<svg xmlns="http://www.w3.org/2000/svg" width="125" height="235" viewBox="0 0 125 235" fill="none">
  <path d="M122.356 5.31884C122.356 0.574612 119.066 -1.37889 114.954 1.03973L52.3598 37.8773C48.2478 40.2959 44.9582 46.0634 44.9582 50.8077V84.1103C44.9582 88.8545 48.2478 90.808 52.3598 88.3894L114.954 51.5518C119.066 49.1332 122.356 43.3657 122.356 38.6215V5.31884Z" fill="#18325B"/>
  <path d="M110.933 50.1565L92.2009 106.808L90.3733 105.041L97.2267 57.6914L110.933 50.1565Z" fill="#18325B"/>
  <path d="M124.549 6.52807C124.549 1.78384 121.259 -0.169666 117.147 2.24896L54.553 39.0865C50.4409 41.5052 47.1513 47.2727 47.1513 52.0169V85.3195C47.1513 90.0638 50.4409 92.0173 54.553 89.5986L117.147 52.7611C121.259 50.3424 124.549 44.5749 124.549 39.8307V6.52807Z" fill="#2C70F5"/>
  <path d="M113.127 51.3657L92.5664 106.25L99.4198 58.9007L113.127 51.3657Z" fill="#2C70F5"/>
  <path d="M73.8338 53.0401C73.8338 50.0634 71.8235 48.9471 69.2649 50.4354C66.7063 51.9238 64.696 55.4588 64.696 58.4355C64.696 61.4123 66.7063 62.5286 69.2649 61.0402C71.7321 59.5518 73.8338 56.0169 73.8338 53.0401Z" fill="white"/>
  <path d="M92.5664 42.0636C92.5664 39.0868 90.5561 37.9705 87.9975 39.4589C85.4389 40.9473 83.4286 44.4822 83.4286 47.459C83.4286 50.4357 85.4389 51.552 87.9975 50.0636C90.5561 48.5752 92.5664 44.9473 92.5664 42.0636Z" fill="white"/>
  <path d="M111.299 30.9935C111.299 28.0167 109.289 26.9004 106.73 28.3888C104.171 29.8772 102.161 33.4121 102.161 36.3889C102.161 39.3657 104.171 40.482 106.73 38.9936C109.289 37.5052 111.299 33.9703 111.299 30.9935Z" fill="white"/>
  <path d="M0 196.297C0 230.065 23.3929 243.647 52.2685 226.623C81.1441 209.693 104.537 168.576 104.537 134.808C104.537 101.041 81.1441 87.4592 52.2685 104.483C23.3929 121.506 0 162.53 0 196.297Z" fill="#18325B"/>
  <path d="M1.91895 197.042C1.91895 230.81 25.3118 244.391 54.1874 227.368C83.063 210.437 106.456 169.321 106.456 135.553C106.456 101.785 83.063 88.2036 54.1874 105.227C25.3118 122.25 1.91895 163.367 1.91895 197.042Z" fill="#8AFFCA"/>
  <path d="M6.85336 197.321C6.85336 229.507 29.1497 242.438 56.6546 226.251C84.1595 210.065 106.456 170.902 106.456 138.716C106.456 106.529 84.1595 93.599 56.6546 109.785C29.1497 125.971 6.85336 165.135 6.85336 197.321Z" fill="#CCFFE5"/>
  <mask id="mask0_310_140" style="mask-type:luminance" maskUnits="userSpaceOnUse" x="6" y="102" width="101" height="132">
    <path d="M6.85336 197.321C6.85336 229.507 29.1497 242.438 56.6546 226.251C84.1595 210.065 106.456 170.902 106.456 138.716C106.456 106.529 84.1595 93.599 56.6546 109.785C29.1497 125.971 6.85336 165.135 6.85336 197.321Z" fill="white"/>
  </mask>
  <g mask="url(#mask0_310_140)">
    <path d="M107.552 192.298C107.552 178.53 84.7992 180.763 56.6546 197.321C28.5101 213.879 5.75684 238.438 5.75684 252.205C5.75684 265.973 28.5101 263.74 56.6546 247.182C84.7992 230.624 107.552 206.065 107.552 192.298Z" fill="#2CF5A0"/>
  </g>
  <mask id="mask1_310_140" style="mask-type:luminance" maskUnits="userSpaceOnUse" x="6" y="102" width="101" height="132">
    <path d="M6.85336 197.321C6.85336 229.507 29.1497 242.438 56.6546 226.251C84.1595 210.065 106.456 170.902 106.456 138.716C106.456 106.529 84.1595 93.599 56.6546 109.785C29.1497 125.971 6.85336 165.135 6.85336 197.321Z" fill="white"/>
  </mask>
  <g mask="url(#mask1_310_140)">
    <path d="M58.1167 205.786C67.6201 200.205 73.1941 193.414 73.1941 189.414C73.1941 189.228 73.1941 189.135 73.1941 188.949C68.0769 191.088 62.5029 193.879 56.746 197.321C50.4409 201.042 44.4099 205.135 38.8358 209.414C38.8358 209.507 38.8358 209.507 38.8358 209.6C38.7445 213.6 48.6133 211.368 58.1167 205.786Z" fill="#18325B"/>
  </g>
  <mask id="mask2_310_140" style="mask-type:luminance" maskUnits="userSpaceOnUse" x="6" y="102" width="101" height="132">
    <path d="M6.85336 197.321C6.85336 229.507 29.1497 242.438 56.6546 226.251C84.1595 210.065 106.456 170.902 106.456 138.716C106.456 106.529 84.1595 93.599 56.6546 109.785C29.1497 125.971 6.85336 165.135 6.85336 197.321Z" fill="white"/>
  </mask>
  <g mask="url(#mask2_310_140)">
    <path d="M69.539 167.739L42.3082 183.739L40.4806 208.205C40.4806 214.344 71.2752 196.205 71.2752 190.065L69.539 167.739Z" fill="#DCFFFE"/>
  </g>
  <mask id="mask3_310_140" style="mask-type:luminance" maskUnits="userSpaceOnUse" x="6" y="102" width="101" height="132">
    <path d="M6.85336 197.321C6.85336 229.507 29.1497 242.438 56.6546 226.251C84.1595 210.065 106.456 170.902 106.456 138.716C106.456 106.529 84.1595 93.599 56.6546 109.785C29.1497 125.971 6.85336 165.135 6.85336 197.321Z" fill="white"/>
  </mask>
  <g mask="url(#mask3_310_140)">
    <path d="M34.3583 182.902C35.8203 182.065 37.0083 179.46 37.0083 177.228C37.0083 174.995 35.8203 173.879 34.3583 174.716C32.8962 175.553 31.7083 178.158 31.7083 180.39C31.7083 182.716 32.8962 183.832 34.3583 182.902Z" fill="#18325B"/>
  </g>
  <mask id="mask4_310_140" style="mask-type:luminance" maskUnits="userSpaceOnUse" x="6" y="102" width="101" height="132">
    <path d="M6.85336 197.321C6.85336 229.507 29.1497 242.438 56.6546 226.251C84.1595 210.065 106.456 170.902 106.456 138.716C106.456 106.529 84.1595 93.599 56.6546 109.785C29.1497 125.971 6.85336 165.135 6.85336 197.321Z" fill="white"/>
  </mask>
  <g mask="url(#mask4_310_140)">
    <path d="M77.4889 131.832C77.4889 101.599 34.4496 126.53 34.4496 155.367C34.4496 190.902 34.9979 190.251 55.1012 184.67C75.3872 166.902 77.4889 167.274 77.4889 131.832Z" fill="#18325B"/>
  </g>
  <mask id="mask5_310_140" style="mask-type:luminance" maskUnits="userSpaceOnUse" x="6" y="102" width="101" height="132">
    <path d="M6.85336 197.321C6.85336 229.507 29.1497 242.438 56.6546 226.251C84.1595 210.065 106.456 170.902 106.456 138.716C106.456 106.529 84.1595 93.599 56.6546 109.785C29.1497 125.971 6.85336 165.135 6.85336 197.321Z" fill="white"/>
  </mask>
  <g mask="url(#mask5_310_140)">
    <path d="M57.7512 155.181C49.1616 155.181 41.6685 149.692 37.6479 141.413C35.6376 145.785 34.4496 150.53 34.4496 155.274C34.4496 190.809 34.9979 190.158 55.1012 184.577C73.1941 168.762 76.8492 167.274 77.3975 142.344C73.1941 150.158 65.9752 155.181 57.7512 155.181Z" fill="#18325B"/>
  </g>
  <mask id="mask6_310_140" style="mask-type:luminance" maskUnits="userSpaceOnUse" x="6" y="102" width="101" height="132">
    <path d="M6.85336 197.321C6.85336 229.507 29.1497 242.438 56.6546 226.251C84.1595 210.065 106.456 170.902 106.456 138.716C106.456 106.529 84.1595 93.599 56.6546 109.785C29.1497 125.971 6.85336 165.135 6.85336 197.321Z" fill="white"/>
  </mask>
  <g mask="url(#mask6_310_140)">
    <path d="M74.1993 137.786C74.1993 127.274 67.1632 122.809 58.4822 127.925L51.6288 131.925C43.8617 136.483 37.5565 147.832 37.5565 157.321V187.274C37.5565 194.437 41.0289 196.484 46.2375 196.205C52.0857 195.833 58.7564 192.019 64.6046 185.6C70.3614 179.367 74.1079 170.344 74.1079 162.809V137.786H74.1993Z" fill="white"/>
  </g>
  <mask id="mask7_310_140" style="mask-type:luminance" maskUnits="userSpaceOnUse" x="6" y="102" width="101" height="132">
    <path d="M6.85336 197.321C6.85336 229.507 29.1497 242.438 56.6546 226.251C84.1595 210.065 106.456 170.902 106.456 138.716C106.456 106.529 84.1595 93.599 56.6546 109.785C29.1497 125.971 6.85336 165.135 6.85336 197.321Z" fill="white"/>
  </mask>
  <g mask="url(#mask7_310_140)">
    <path d="M68.8994 124.297C68.8994 122.343 62.9598 124.204 55.5581 128.483C48.2478 132.762 42.2169 137.878 42.2169 139.925C42.2169 141.878 48.1565 140.018 55.5581 135.739C62.9598 131.46 68.8994 126.343 68.8994 124.297Z" fill="#18325B"/>
  </g>
  <mask id="mask8_310_140" style="mask-type:luminance" maskUnits="userSpaceOnUse" x="6" y="102" width="101" height="132">
    <path d="M6.85336 197.321C6.85336 229.507 29.1497 242.438 56.6546 226.251C84.1595 210.065 106.456 170.902 106.456 138.716C106.456 106.529 84.1595 93.599 56.6546 109.785C29.1497 125.971 6.85336 165.135 6.85336 197.321Z" fill="white"/>
  </mask>
  <g mask="url(#mask8_310_140)">
    <path d="M53.5478 186.437C53.5478 184.763 51.5374 184.67 49.0702 186.065C46.603 187.553 44.5927 190.065 44.5927 191.739C44.5927 193.414 46.603 193.507 49.0702 192.112C51.5374 190.623 53.5478 188.112 53.5478 186.437Z" fill="#18325B"/>
  </g>
  <mask id="mask9_310_140" style="mask-type:luminance" maskUnits="userSpaceOnUse" x="6" y="102" width="101" height="132">
    <path d="M6.85336 197.321C6.85336 229.507 29.1497 242.438 56.6546 226.251C84.1595 210.065 106.456 170.902 106.456 138.716C106.456 106.529 84.1595 93.599 56.6546 109.785C29.1497 125.971 6.85336 165.135 6.85336 197.321Z" fill="white"/>
  </mask>
  <g mask="url(#mask9_310_140)">
    <path d="M45.872 191.833C44.5013 192.577 41.3944 194.065 38.6531 192.856C35.2721 191.367 33.5359 186.344 33.5359 178.158L34.6324 177.507C34.6324 185.414 36.1859 190.065 39.3841 191.553C42.5824 193.042 46.4203 190.344 46.4203 190.344L46.5116 191.553C46.5116 191.367 46.2375 191.553 45.872 191.833Z" fill="#18325B"/>
  </g>
</svg>
