<svg xmlns="http://www.w3.org/2000/svg" width="181" height="194" viewBox="0 0 181 194" fill="none">
  <path d="M97.0726 14.4867V48.5253L121.947 34.0386L124.374 1.31697L121.947 0L97.0726 14.4867Z" fill="#18325B"/>
  <path d="M109.51 76.3844L111.937 77.7013L135.194 22.5911L132.767 21.2742L86.2531 48.2214L109.51 76.3844Z" fill="#18325B"/>
  <path d="M68.7598 103.737C53.3899 99.9885 43.2782 91.9854 41.7615 82.4627C40.7503 75.7765 44.1883 69.4956 51.2665 65.2408C56.1201 62.3029 57.8391 58.5546 56.4235 54.4011C53.9967 47.411 43.1771 41.2314 34.9866 42.2444L34.7844 40.117C43.986 39.0026 55.7156 45.6888 58.5469 53.6919C59.5581 56.6298 60.1648 62.3029 52.4799 66.9629C46.2106 70.8125 43.076 76.283 43.986 82.0575C45.3006 90.7697 54.8056 98.0637 69.3665 101.609L68.7598 103.737Z" fill="#18325B"/>
  <path d="M0 44.8783L9.70726 60.7833L31.2453 54.1984L39.8402 40.3196L27.605 34.6465L0 44.8783Z" fill="#2C70F5"/>
  <path d="M137.115 104.547L68.6587 65.342L0.808929 104.649L69.0631 144.158L137.115 104.547Z" fill="#2CF5A0"/>
  <path d="M68.6586 65.342L0.808929 104.649L71.0855 104.345L68.6586 65.342Z" fill="#25D887"/>
  <path d="M80.186 75.0674L71.0855 69.7996L49.0419 82.564L58.1425 87.8319L80.186 75.0674Z" fill="#EBFAFF"/>
  <path d="M87.8709 129.164L72.8045 120.857L54.8056 131.191L69.9732 139.498L87.8709 129.164Z" fill="#EBFAFF"/>
  <path d="M69.1643 143.854L137.216 104.446V154.592L69.1643 194L67.6475 163.912L69.1643 143.854Z" fill="#25D887"/>
  <path d="M69.1642 143.753L1.01117 104.446V154.491L69.1642 193.899V143.753Z" fill="#1DBC70"/>
  <path d="M142.98 100.191L166.54 47.3096L140.047 62.6067V98.7728L142.98 100.191Z" fill="#18325B"/>
  <path d="M153.294 17.7285L128.621 76.1818L131.554 77.6L146.317 51.2606L156.226 19.0455L153.294 17.7285Z" fill="#18325B"/>
  <path d="M181 48.9305L156.226 19.0454L131.554 77.6L142.98 70.9138V100.191L169.473 84.894V55.6167L181 48.9305Z" fill="#2C70F5"/>
  <path d="M124.374 28.872V1.31689L99.4994 15.8036V43.2574L88.6799 49.5383L111.937 77.7012L135.194 22.591L124.374 28.872Z" fill="#2CF5A0"/>
  <path d="M63.0972 145.88L40.6492 132.913V144.462L63.0972 157.429V145.88Z" fill="#25D887"/>
  <path d="M69.1642 193.899L106.679 144.158L137.216 154.592L69.1642 193.899Z" fill="#2CF5A0"/>
  <path d="M29.4251 42.447C29.4251 43.3587 30.133 43.9665 30.9419 43.9665C31.852 43.9665 32.4587 43.2574 32.4587 42.447C32.4587 41.5352 31.7508 40.9274 30.9419 40.9274C30.133 40.8261 29.4251 41.5352 29.4251 42.447Z" fill="#18325B"/>
  <path d="M58.648 131.393L70.7821 124.403L72.0966 125.214L59.9626 132.204L58.648 131.393Z" fill="#EBFAFF"/>
  <path d="M61.5804 133.115L73.8156 126.125L75.1302 126.834L62.895 133.926L61.5804 133.115Z" fill="#EBFAFF"/>
  <path d="M93.0279 123.491L126.902 103.939L130.644 106.067L96.7693 125.72L93.0279 123.491Z" fill="#EBFAFF"/>
  <path d="M64.4117 134.534L71.49 130.38L72.8045 131.089L65.8274 135.243L64.4117 134.534Z" fill="#EBFAFF"/>
  <path d="M156.226 19.0454L156.125 19.3493V92.5932L169.473 84.894V55.6167L181 48.9305L156.226 19.0454Z" fill="#2C70F5"/>
</svg>
