<svg xmlns="http://www.w3.org/2000/svg" width="203" height="200" viewBox="0 0 203 200" fill="none">
  <g clip-path="url(#clip0_310_225)">
    <path d="M197.49 124.148L65.8301 200L0 162.121L131.755 86.269L197.49 124.148Z" fill="#E8EAEA"/>
    <path d="M203 29.072L113.802 80.0189L63.2653 50.947L152.464 0L159.588 4.07197L162.628 5.77652L191.031 22.1591L194.071 23.8636L203 29.072Z" fill="#2CF5A0"/>
    <path d="M23.8432 111.553C23.6533 111.553 23.5583 111.458 23.5583 111.269V105.587L27.548 103.314C27.643 103.22 27.8329 103.314 27.9279 103.409C28.0229 103.504 27.9279 103.693 27.8329 103.788L24.1282 105.966V111.364C24.1282 111.458 24.0332 111.553 23.8432 111.553Z" fill="black"/>
    <path d="M27.738 126.136H27.643L23.6533 123.864V118.182C23.6533 117.992 23.7483 117.898 23.9382 117.898C24.1282 117.898 24.2232 117.992 24.2232 118.182V123.58L27.9279 125.758C28.0229 125.852 28.1179 126.042 28.0229 126.136C27.9279 126.042 27.833 126.136 27.738 126.136Z" fill="black"/>
    <path d="M25.3631 110.606L22.9883 109.186C22.7033 108.996 22.4183 108.996 22.2284 109.091L21.7534 109.375L21.9434 109.47C21.9434 109.564 21.9434 109.659 21.9434 109.754V116.761C21.9434 117.424 22.4183 118.277 22.9883 118.655L25.3631 120.076C25.4581 120.171 25.5531 120.171 25.5531 120.171L25.6481 120.455L26.1231 120.171C26.3131 120.076 26.503 119.792 26.503 119.508V112.5C26.408 111.743 25.9331 110.985 25.3631 110.606Z" fill="#202122"/>
    <path d="M25.9331 119.792C25.9331 120.455 25.4581 120.739 24.8882 120.455L22.5133 119.034C21.9434 118.655 21.4684 117.898 21.4684 117.14V110.133C21.4684 109.47 21.9434 109.186 22.5133 109.47L24.8882 110.89C25.4581 111.269 25.9331 112.027 25.9331 112.784V119.792Z" fill="#464849"/>
    <path d="M203 89.962L179.347 104.735L78.1792 161.458L27.7379 132.386L150.374 62.2158L157.403 66.3825L160.443 68.087L188.846 84.3749L191.886 86.1742L203 89.962Z" fill="#303030"/>
    <path d="M203 88.6363L78.1792 160.133L27.7379 131.061L150.374 60.8901L157.403 65.0568L160.443 66.7613L188.846 83.0492L191.886 84.8485L203 88.6363Z" fill="#303030"/>
    <path d="M160.443 68.0871L64.5002 122.822L61.5555 121.117L157.403 66.3826L160.443 68.0871Z" fill="#3A3A3A"/>
    <path d="M191.886 86.1742L98.2228 139.583L95.183 137.879L188.846 84.375L191.886 86.1742Z" fill="#3A3A3A"/>
    <path d="M89.1034 137.121L105.157 146.307L114.942 140.625L98.8877 131.439L89.1034 137.121Z" fill="#D6D9D8"/>
    <path d="M113.802 139.205L63.2653 110.133V50.947L113.802 80.019V139.205Z" fill="#1DBC70"/>
    <path d="M113.802 139.205L203 88.2576V29.072L113.802 80.019V139.205Z" fill="#25D887"/>
    <path d="M49.1114 81.4393L96.3229 108.807L105.347 103.598L58.0407 76.3257L49.1114 81.4393Z" fill="#256AD8"/>
    <path d="M106.297 172.064L92.1432 163.92L90.5283 152.083L104.587 160.227L106.297 172.064Z" fill="#141516"/>
    <path d="M96.2561 158.332L84.5696 178.505L90.2458 181.773L101.932 161.599L96.2561 158.332Z" fill="#10110D"/>
    <path d="M98.7927 163.731C98.7927 158.428 95.088 156.345 90.5283 158.996C85.9686 161.648 82.2639 167.992 82.2639 173.296C82.2639 178.599 85.9686 180.682 90.5283 178.03C95.088 175.379 98.7927 168.939 98.7927 163.731Z" fill="#10110D"/>
    <path d="M104.587 167.046C104.587 161.743 100.883 159.659 96.3229 162.311C91.7632 164.962 88.0585 171.307 88.0585 176.61C88.0585 181.913 91.7632 183.996 96.3229 181.345C100.883 178.693 104.587 172.254 104.587 167.046Z" fill="#2B2C2D"/>
    <path d="M101.263 168.939C101.263 165.72 98.9827 164.489 96.2279 166.098C93.4731 167.708 91.1933 171.591 91.1933 174.716C91.1933 177.936 93.4731 179.167 96.2279 177.557C99.0777 175.947 101.263 172.064 101.263 168.939Z" fill="#191B1C"/>
    <path d="M100.598 169.318C100.598 166.572 98.6027 165.436 96.2279 166.856C93.8531 168.277 91.8582 171.591 91.8582 174.432C91.8582 177.178 93.8531 178.314 96.2279 176.894C98.6977 175.379 100.598 172.064 100.598 169.318Z" fill="#5A5E5C"/>
    <path d="M100.218 169.508C100.218 166.951 98.4127 165.909 96.2279 167.235C94.0431 168.466 92.2382 171.591 92.2382 174.053C92.2382 176.61 94.0431 177.651 96.2279 176.326C98.5077 175.095 100.218 172.064 100.218 169.508Z" fill="#CEC7C1"/>
    <path d="M99.7426 169.792C99.7426 167.614 98.2227 166.761 96.3229 167.803C94.423 168.94 92.9031 171.591 92.9031 173.769C92.9031 175.947 94.423 176.799 96.3229 175.758C98.1277 174.621 99.7426 171.97 99.7426 169.792Z" fill="#8E9698"/>
    <path d="M99.2677 170.076C99.2677 168.182 97.9378 167.424 96.3229 168.371C94.708 169.318 93.3781 171.591 93.3781 173.485C93.3781 175.379 94.708 176.136 96.3229 175.189C97.9378 174.243 99.2677 171.97 99.2677 170.076Z" fill="#CEC7C1"/>
    <path d="M98.3177 170.549C98.3177 169.224 97.3678 168.655 96.2279 169.318C95.088 169.981 94.138 171.591 94.138 172.917C94.138 174.243 95.088 174.811 96.2279 174.148C97.4628 173.485 98.3177 171.875 98.3177 170.549Z" fill="#8E9698"/>
    <path d="M96.6079 173.296C96.6079 173.011 96.5129 172.822 96.2279 172.917C96.0379 173.011 95.7529 173.296 95.7529 173.674C95.7529 173.958 95.8479 174.148 96.1329 174.053C96.3229 173.864 96.6079 173.58 96.6079 173.296Z" fill="#191B1C"/>
    <path d="M94.993 173.39C95.183 173.201 95.3729 172.822 95.3729 172.633C95.3729 172.349 95.088 172.349 94.898 172.538C94.613 172.727 94.518 173.106 94.518 173.296C94.518 173.58 94.708 173.58 94.993 173.39Z" fill="#191B1C"/>
    <path d="M95.088 171.307C95.1829 171.496 95.4679 171.402 95.6579 171.212C95.8479 170.928 95.9429 170.644 95.8479 170.455C95.7529 170.265 95.4679 170.36 95.2779 170.549C95.088 170.739 94.993 171.117 95.088 171.307Z" fill="#191B1C"/>
    <path d="M96.7979 169.792C96.6079 170.076 96.6079 170.36 96.7979 170.455C96.9878 170.549 97.2728 170.36 97.3678 170.076C97.5578 169.792 97.5578 169.508 97.3678 169.413C97.2728 169.318 96.9878 169.508 96.7979 169.792Z" fill="#191B1C"/>
    <path d="M97.7478 171.023C97.5578 171.023 97.2728 171.307 97.1778 171.591C97.0828 171.875 97.1778 172.159 97.3678 172.159C97.5578 172.159 97.8428 171.875 97.9378 171.591C98.0328 171.307 97.9378 171.023 97.7478 171.023Z" fill="#191B1C"/>
    <path d="M29.8278 143.182L25.6481 145.549V135.795L29.8278 133.428V143.182Z" fill="#2CF5A0"/>
    <path d="M96.7029 123.106L49.3014 95.8333L31.0627 106.345L29.3528 107.292C28.1179 108.049 27.073 109.848 27.073 111.269V148.674C27.073 150.095 74.0945 178.22 75.3294 177.462L87.7735 129.829L92.0482 127.841L96.7029 123.106Z" fill="#303030"/>
    <path d="M96.7029 123.106V159.848C96.6079 159.848 96.6079 159.848 96.5129 159.943C96.0379 160.132 95.4679 160.417 94.993 160.701C91.0033 162.973 87.5835 167.424 85.6837 172.254L76.8493 177.367C75.6144 178.125 74.5695 177.462 74.5695 176.042V138.636C74.5695 137.216 75.6144 135.417 76.8493 134.659L96.6079 123.295L96.7029 123.106Z" fill="#202122"/>
    <path d="M96.7029 108.712L49.3014 81.4395L30.9677 91.9508L29.2578 92.8978C28.0229 93.6554 26.978 95.4546 26.978 96.8751V134.28C26.978 135.701 73.9995 163.826 75.2344 163.068L87.6785 115.436L91.9532 113.447L96.7029 108.712Z" fill="#2C70F5"/>
    <path d="M96.7029 108.712L76.8493 120.17C75.6144 120.928 74.5695 122.727 74.5695 124.148V161.553C74.5695 162.974 75.6144 163.636 76.8493 162.879L96.7029 151.42V108.712Z" fill="#256AD8"/>
    <path d="M81.694 144.223C80.744 144.223 80.1741 143.466 80.1741 142.33V126.231C80.1741 124.716 81.314 122.822 82.6439 122.064L90.8133 117.424C91.1933 117.235 91.5732 117.045 91.9532 117.045C92.9031 117.045 93.4731 117.803 93.4731 118.939V135.038C93.4731 136.553 92.3332 138.447 91.0033 139.205L82.9289 143.845C82.4539 144.129 82.0739 144.223 81.694 144.223Z" fill="#1E5EBC"/>
    <path d="M93.0931 118.939V135.038C93.0931 136.458 92.0482 138.258 90.8133 139.015L83.1188 143.466L82.6439 143.75C81.409 144.508 80.364 143.845 80.364 142.424V126.326C80.364 124.905 81.409 123.106 82.6439 122.348L90.8133 117.708C91.5732 117.235 92.2382 117.329 92.7131 117.708C92.9981 117.898 93.0931 118.371 93.0931 118.939Z" fill="#2B2C2D"/>
    <path d="M70.7698 146.97C70.3898 146.97 70.1048 146.875 69.7248 146.686L30.6827 124.243C29.4478 123.58 28.4979 121.875 28.4979 120.455V101.231C28.4979 100.189 29.0679 99.5266 29.9228 99.5266C30.3028 99.5266 30.5877 99.6213 30.9677 99.8107L70.0098 122.159C71.2447 122.822 72.1947 124.527 72.1947 125.947V145.171C72.1947 146.307 71.6247 146.97 70.7698 146.97Z" fill="#1E5EBC"/>
    <path d="M71.9097 125.947V145.171C71.9097 146.496 70.9598 146.97 69.8198 146.402L46.2616 132.86L42.4619 130.682L40.372 129.451L30.7777 123.958C30.4927 123.769 30.1128 123.485 29.9228 123.201C29.2578 122.443 28.7829 121.307 28.7829 120.36V101.136C28.7829 99.8107 29.7328 99.3372 30.8727 99.9054L45.1217 108.144L55.7609 114.299L57.8507 115.53L61.6504 117.708L69.9148 122.443C71.0547 123.106 71.9097 124.621 71.9097 125.947Z" fill="#2B2C2D"/>
    <path d="M64.1203 160.985L34.3875 143.845C34.2925 143.75 34.1975 143.561 34.1975 143.466C34.1975 143.277 34.2925 143.277 34.3875 143.371L64.1203 160.511C64.2153 160.606 64.3103 160.796 64.3103 160.89C64.4052 160.985 64.3103 160.985 64.1203 160.985Z" fill="#3A3A3A"/>
    <path d="M64.1203 162.121L34.3875 144.981C34.2925 144.887 34.1975 144.697 34.1975 144.602C34.1975 144.413 34.2925 144.413 34.3875 144.508L64.1203 161.648C64.2153 161.743 64.3103 161.932 64.3103 162.027C64.4052 162.121 64.3103 162.121 64.1203 162.121Z" fill="#3A3A3A"/>
    <path d="M64.1203 163.258L34.3875 146.117C34.2925 146.023 34.1975 145.833 34.1975 145.739C34.1975 145.549 34.2925 145.549 34.3875 145.644L64.1203 162.784C64.2153 162.879 64.3103 163.068 64.3103 163.163C64.4052 163.258 64.3103 163.258 64.1203 163.258Z" fill="#3A3A3A"/>
    <path d="M64.1203 164.394L34.3875 147.254C34.2925 147.159 34.1975 146.97 34.1975 146.875C34.1975 146.686 34.2925 146.686 34.3875 146.78L64.1203 163.826C64.2153 163.921 64.3103 164.11 64.3103 164.205C64.4052 164.394 64.3103 164.489 64.1203 164.394Z" fill="#3A3A3A"/>
    <path d="M64.1203 165.53L34.3875 148.39C34.2925 148.295 34.1975 148.106 34.1975 148.011C34.1975 147.822 34.2925 147.822 34.3875 147.917L64.1203 165.057C64.2153 165.152 64.3103 165.341 64.3103 165.436C64.3103 165.53 64.3103 165.625 64.1203 165.53Z" fill="#3A3A3A"/>
    <path d="M64.1203 166.667L34.3875 149.527C34.2925 149.432 34.1975 149.243 34.1975 149.148C34.1975 148.958 34.2925 148.958 34.3875 149.053L64.1203 166.193C64.2153 166.288 64.3103 166.477 64.3103 166.572C64.4052 166.667 64.3103 166.762 64.1203 166.667Z" fill="#3A3A3A"/>
    <path d="M64.1203 167.803L34.3875 150.663C34.2925 150.568 34.1975 150.379 34.1975 150.284C34.1975 150.095 34.2925 150.095 34.3875 150.189L64.1203 167.33C64.2153 167.424 64.3103 167.614 64.3103 167.708C64.4052 167.803 64.3103 167.898 64.1203 167.803Z" fill="#3A3A3A"/>
    <path d="M64.1203 160.701L34.3875 143.561C34.2925 143.466 34.1975 143.276 34.1975 143.182C34.1975 142.992 34.2925 142.992 34.3875 143.087L64.1203 160.227C64.2153 160.322 64.3103 160.511 64.3103 160.606C64.4052 160.701 64.3103 160.795 64.1203 160.701Z" fill="black"/>
    <path d="M64.1203 161.837L34.3875 144.697C34.2925 144.602 34.1975 144.413 34.1975 144.318C34.1975 144.129 34.2925 144.129 34.3875 144.224L64.1203 161.364C64.2153 161.458 64.3103 161.648 64.3103 161.743C64.4052 161.837 64.3103 161.932 64.1203 161.837Z" fill="black"/>
    <path d="M64.1203 162.973L34.3875 145.833C34.2925 145.739 34.1975 145.549 34.1975 145.455C34.1975 145.265 34.2925 145.265 34.3875 145.36L64.1203 162.5C64.2153 162.595 64.3103 162.784 64.3103 162.879C64.4052 162.973 64.3103 163.068 64.1203 162.973Z" fill="black"/>
    <path d="M64.1203 164.11L34.3875 146.97C34.2925 146.875 34.1975 146.686 34.1975 146.591C34.1975 146.402 34.2925 146.402 34.3875 146.496L64.1203 163.636C64.2153 163.731 64.3103 163.921 64.3103 164.015C64.4052 164.11 64.3103 164.205 64.1203 164.11Z" fill="black"/>
    <path d="M64.1203 165.246L34.3875 148.106C34.2925 148.011 34.1975 147.822 34.1975 147.727C34.1975 147.538 34.2925 147.538 34.3875 147.633L64.1203 164.773C64.2153 164.867 64.3103 165.057 64.3103 165.151C64.4052 165.246 64.3103 165.341 64.1203 165.246Z" fill="black"/>
    <path d="M64.1203 166.383L34.3875 149.242C34.2925 149.148 34.1975 148.958 34.1975 148.864C34.1975 148.674 34.2925 148.674 34.3875 148.769L64.1203 165.909C64.2153 166.004 64.3103 166.193 64.3103 166.288C64.4052 166.383 64.3103 166.477 64.1203 166.383Z" fill="black"/>
    <path d="M64.1203 167.519L34.3875 150.379C34.2925 150.284 34.1975 150.095 34.1975 150C34.1975 149.811 34.2925 149.811 34.3875 149.905L64.1203 167.045C64.2153 167.14 64.3103 167.329 64.3103 167.424C64.4052 167.519 64.3103 167.614 64.1203 167.519Z" fill="black"/>
    <path d="M75.1394 164.962L67.92 160.795C66.6851 160.038 65.6401 160.701 65.6401 162.121V166.572C65.6401 167.992 66.6851 169.792 67.92 170.549L75.1394 174.716V164.962Z" fill="#CAD1D8"/>
    <path d="M75.1394 165.909C75.0444 165.814 74.9495 165.72 74.8545 165.72L67.54 161.553C67.255 161.364 67.065 161.364 66.8751 161.364C66.4951 161.364 66.4001 161.932 66.4001 162.216V166.667C66.4001 167.898 67.255 169.318 68.2999 169.981L75.0444 173.864V165.909H75.1394Z" fill="#F7FBFC"/>
    <path d="M31.0627 139.015L25.7431 135.985V145.739L31.0627 148.769C32.2976 149.527 33.3425 148.864 33.3425 147.443V142.992C33.3425 141.477 32.2976 139.773 31.0627 139.015Z" fill="#CAD1D8"/>
    <path d="M30.5877 139.678L25.6481 136.837V144.792L31.3477 148.106C31.6327 148.295 31.8226 148.295 32.0126 148.295C32.3926 148.295 32.4876 147.727 32.4876 147.443V142.992C32.4876 141.761 31.6327 140.246 30.5877 139.678Z" fill="#F7FBFC"/>
    <path d="M79.2241 172.349L75.1394 174.716V164.962L79.2241 162.595V172.349Z" fill="#2CF5A0"/>
    <path d="M105.347 160.227L103.922 161.08C102.307 159.186 99.7426 158.712 96.7029 159.849C96.6079 159.849 96.6079 159.849 96.5129 159.943V151.421L96.7029 151.326L105.347 146.402V160.227Z" fill="#202122"/>
    <path d="M200.15 105.776L189.701 99.8105C188.561 99.9052 187.516 99.9052 186.376 100.095L187.706 109.564L201.765 117.708L200.15 105.776Z" fill="#141516"/>
    <path d="M191.749 103.913L180.062 124.084L185.738 127.352L197.424 107.181L191.749 103.913Z" fill="#10110D"/>
    <path d="M194.261 109.186C194.261 103.883 190.556 101.799 185.996 104.451C181.437 107.102 177.732 113.447 177.732 118.75C177.732 124.053 181.437 126.136 185.996 123.485C190.556 120.928 194.261 114.489 194.261 109.186Z" fill="#10110D"/>
    <path d="M200.055 112.595C200.055 107.292 196.35 105.209 191.791 107.86C187.231 110.512 183.526 116.856 183.526 122.159C183.526 127.462 187.231 129.546 191.791 126.894C196.35 124.243 200.055 117.803 200.055 112.595Z" fill="#2B2C2D"/>
    <path d="M196.825 114.489C196.825 111.269 194.546 110.038 191.791 111.648C189.036 113.258 186.756 117.14 186.756 120.265C186.756 123.485 189.036 124.716 191.791 123.106C194.546 121.496 196.825 117.614 196.825 114.489Z" fill="#191B1C"/>
    <path d="M196.16 114.773C196.16 112.027 194.166 110.89 191.791 112.311C189.416 113.731 187.421 117.046 187.421 119.792C187.421 122.538 189.416 123.674 191.791 122.349C194.166 120.928 196.16 117.614 196.16 114.773Z" fill="#5A5E5C"/>
    <path d="M195.781 115.057C195.781 112.5 193.976 111.458 191.791 112.784C189.606 114.015 187.801 117.14 187.801 119.697C187.801 122.254 189.606 123.296 191.791 121.97C193.976 120.644 195.781 117.519 195.781 115.057Z" fill="#CEC7C1"/>
    <path d="M195.211 115.341C195.211 113.163 193.691 112.311 191.791 113.352C189.891 114.489 188.371 117.14 188.371 119.318C188.371 121.496 189.891 122.349 191.791 121.307C193.691 120.171 195.211 117.519 195.211 115.341Z" fill="#8E9698"/>
    <path d="M194.736 115.625C194.736 113.731 193.406 112.974 191.791 113.921C190.176 114.868 188.846 117.14 188.846 119.034C188.846 120.928 190.176 121.686 191.791 120.739C193.406 119.792 194.736 117.519 194.736 115.625Z" fill="#CEC7C1"/>
    <path d="M193.881 116.099C193.881 114.773 192.931 114.205 191.791 114.868C190.651 115.53 189.701 117.14 189.701 118.466C189.701 119.792 190.651 120.36 191.791 119.697C192.931 119.034 193.881 117.424 193.881 116.099Z" fill="#8E9698"/>
    <path d="M192.076 118.75C192.076 118.466 191.981 118.277 191.696 118.371C191.411 118.466 191.221 118.75 191.221 119.129C191.221 119.413 191.316 119.602 191.601 119.508C191.886 119.413 192.076 119.129 192.076 118.75Z" fill="#191B1C"/>
    <path d="M190.461 118.94C190.746 118.75 190.841 118.371 190.841 118.182C190.841 117.898 190.556 117.898 190.366 118.087C190.176 118.277 189.986 118.656 189.986 118.845C189.986 119.129 190.271 119.129 190.461 118.94Z" fill="#191B1C"/>
    <path d="M190.651 116.856C190.746 117.046 191.031 116.951 191.221 116.761C191.411 116.477 191.506 116.193 191.411 116.004C191.316 115.814 191.031 115.909 190.841 116.099C190.556 116.288 190.461 116.667 190.651 116.856Z" fill="#191B1C"/>
    <path d="M192.361 115.341C192.171 115.625 192.171 115.909 192.361 116.004C192.551 116.098 192.836 115.909 192.931 115.625C193.121 115.341 193.121 115.057 192.931 114.962C192.741 114.867 192.551 115.057 192.361 115.341Z" fill="#191B1C"/>
    <path d="M193.311 116.572C193.121 116.572 192.836 116.856 192.741 117.14C192.646 117.424 192.741 117.708 192.931 117.708C193.121 117.708 193.406 117.424 193.501 117.14C193.596 116.761 193.501 116.572 193.311 116.572Z" fill="#191B1C"/>
    <path d="M192.171 96.2122V105.303C192.076 105.303 192.076 105.303 191.981 105.398C191.506 105.587 190.936 105.871 190.461 106.155C186.471 108.428 183.051 112.879 181.152 117.708L172.317 122.822C171.082 123.58 170.037 122.917 170.037 121.496V108.996L192.171 96.2122Z" fill="#202122"/>
    <path d="M202.905 104.356L199.39 106.534C197.775 104.64 195.211 104.167 192.171 105.303C192.076 105.303 192.076 105.303 191.981 105.398V96.3068L202.905 89.8674V104.356Z" fill="#202122"/>
    <path d="M117.316 139.299L105.347 146.212V160.227L117.316 153.314V139.299Z" fill="#AFAEB2"/>
    <path d="M105.347 160.227V146.401L96.7029 151.42L96.5129 151.515V108.712L105.347 103.598V160.227Z" fill="#1E5EBC"/>
    <path d="M55.7609 114.299L40.467 129.545L30.8727 124.053C30.5877 123.864 30.2078 123.579 30.0178 123.295L45.1217 108.239L55.7609 114.299Z" fill="#464849"/>
    <path d="M61.6504 117.614L46.3566 132.86L42.5569 130.682L57.7557 115.436L61.6504 117.614Z" fill="#464849"/>
    <path d="M92.7132 117.614L80.3641 138.826V126.231C80.3641 124.811 81.409 123.011 82.6439 122.254L90.8133 117.614C91.5732 117.14 92.2382 117.14 92.7132 117.614Z" fill="#464849"/>
    <path d="M93.0931 120.17V126.136L83.1189 143.276L82.6439 143.561C81.409 144.318 80.3641 143.655 80.3641 142.235V142.045L93.0931 120.17Z" fill="#464849"/>
    <path d="M174.217 106.534L114.467 140.436V155.587L174.217 121.78V106.534Z" fill="#202122"/>
    <path d="M70.5798 136.837C70.3898 136.837 70.2948 136.742 70.2948 136.553V130.871L74.2845 128.599C74.3795 128.504 74.5695 128.599 74.6645 128.693C74.7595 128.788 74.6645 128.977 74.5695 129.072L70.8648 131.25V136.648C70.8648 136.742 70.7698 136.837 70.5798 136.837Z" fill="black"/>
    <path d="M74.4745 151.421H74.3795L70.3898 149.148V143.466C70.3898 143.277 70.4848 143.182 70.6748 143.182C70.8648 143.182 70.9598 143.277 70.9598 143.466V148.864L74.6645 151.042C74.7595 151.136 74.8545 151.231 74.7595 151.421C74.6645 151.421 74.5695 151.421 74.4745 151.421Z" fill="black"/>
    <path d="M72.0997 135.89L69.7248 134.47C69.4399 134.28 69.1549 134.28 68.9649 134.375L68.4899 134.659L68.6799 134.754C68.6799 134.848 68.6799 134.943 68.6799 135.038V142.045C68.6799 142.708 69.1549 143.561 69.7248 143.939L72.0997 145.36C72.1947 145.36 72.2896 145.455 72.2896 145.455L72.3846 145.739L72.8596 145.455C73.0496 145.36 73.2396 145.076 73.2396 144.792V137.784C73.1446 137.121 72.6696 136.269 72.0997 135.89Z" fill="#202122"/>
    <path d="M72.6696 145.076C72.6696 145.739 72.1947 146.023 71.6247 145.739L69.2499 144.318C68.6799 143.939 68.205 143.182 68.205 142.424V135.417C68.205 134.754 68.6799 134.47 69.2499 134.754L71.6247 136.174C72.1947 136.553 72.6696 137.311 72.6696 138.068V145.076Z" fill="#464849"/>
    <path opacity="0.5" d="M63.2653 50.9469L113.137 80.4923L113.802 138.636L114.372 80.4923L196.825 32.5757L113.802 79.1666L63.2653 50.9469Z" fill="#F4F4F4"/>
  </g>
  <defs>
    <clipPath id="clip0_310_225">
      <rect width="203" height="200" fill="white"/>
    </clipPath>
  </defs>
</svg>
