<svg width="316" height="314" viewBox="0 0 316 314" fill="none" xmlns="http://www.w3.org/2000/svg">
<g clip-path="url(#clip0_868_58266)">
<path d="M177.884 1.02119L176.901 12.2105L175.756 12.1083L176.548 3.15109L171.456 10.2994L170.899 10.2556L167.142 2.39249L166.35 11.2914L165.205 11.1893L166.188 0L167.171 0.0875302L171.324 8.81137L176.901 0.933655L177.884 1.02119Z" fill="black"/>
<path d="M181.597 11.7874C180.936 10.8245 180.76 9.55533 181.054 7.97979L182.228 1.64844L183.402 1.86726L182.242 8.15485C182.007 9.43862 182.125 10.4452 182.58 11.1892C183.049 11.9332 183.827 12.4001 184.928 12.5897C186.043 12.7939 186.938 12.6335 187.642 12.1083C188.347 11.5831 188.802 10.6786 189.051 9.39486L190.21 3.10727L191.355 3.31151L190.181 9.64286C189.888 11.2184 189.271 12.3271 188.318 13.0128C187.364 13.6838 186.175 13.8881 184.737 13.6255C183.299 13.3629 182.257 12.7502 181.597 11.7874Z" fill="black"/>
<path d="M193.366 15.0552C192.691 14.603 192.207 14.107 191.913 13.5818L192.603 12.8232C192.896 13.3192 193.337 13.7715 193.923 14.1945C194.51 14.6176 195.156 14.9094 195.861 15.099C196.844 15.3616 197.621 15.3762 198.208 15.1428C198.795 14.9094 199.162 14.5155 199.309 13.9465C199.426 13.5089 199.382 13.1296 199.192 12.8086C199.001 12.4731 198.722 12.1959 198.37 11.9625C198.018 11.7145 197.533 11.4227 196.888 11.0872C196.125 10.6641 195.523 10.2994 195.083 9.97848C194.643 9.65754 194.305 9.24906 194.056 8.76765C193.806 8.28623 193.777 7.7027 193.953 7.03163C194.1 6.47727 194.378 6.02503 194.789 5.64574C195.2 5.26644 195.743 5.03303 196.418 4.91632C197.093 4.79961 197.886 4.87255 198.766 5.10597C199.397 5.26644 199.984 5.51444 200.527 5.83539C201.07 6.15633 201.54 6.53563 201.892 6.9441L201.261 7.76105C200.879 7.33799 200.454 6.98787 199.969 6.6961C199.485 6.40433 199.001 6.20009 198.502 6.0688C197.548 5.8208 196.77 5.80621 196.198 6.05421C195.611 6.30221 195.244 6.71069 195.097 7.27963C194.98 7.71728 195.024 8.09658 195.215 8.43212C195.406 8.76765 195.684 9.05941 196.051 9.29283C196.418 9.54083 196.917 9.8326 197.548 10.1681C198.296 10.5766 198.898 10.9413 199.338 11.2623C199.779 11.5832 200.131 11.9771 200.366 12.4585C200.6 12.9399 200.644 13.5089 200.468 14.1653C200.322 14.7197 200.043 15.1719 199.632 15.5512C199.221 15.9305 198.663 16.1639 197.988 16.2661C197.299 16.3682 196.521 16.3098 195.626 16.0618C194.819 15.843 194.07 15.5075 193.395 15.0552H193.366Z" fill="black"/>
<path d="M207.174 8.72396L203.403 7.46936L203.726 6.49194L212.398 9.36585L212.075 10.3433L208.304 9.08867L205.061 18.7753L203.931 18.396L207.174 8.70937V8.72396Z" fill="black"/>
<path d="M217.652 20.3508L211.826 17.9875L209.434 20.2487L208.29 19.7819L217.344 11.3352L218.43 11.7729L218.929 24.1146L217.769 23.6332L217.652 20.3508ZM217.608 19.3005L217.402 12.6919L212.589 17.2581L217.608 19.3005Z" fill="black"/>
<path d="M233.97 19.096L228.834 29.1037L227.954 28.666L225.65 17.2725L221.482 25.3982L220.426 24.8584L225.562 14.8508L226.442 15.2885L228.761 26.6966L232.928 18.5709L233.985 19.1106L233.97 19.096Z" fill="black"/>
<path d="M241.585 30.227L242.554 30.8251L240.279 34.4576C239.59 34.5743 238.871 34.5452 238.122 34.3701C237.374 34.195 236.669 33.9033 235.994 33.4802C235.041 32.8821 234.307 32.1381 233.793 31.2482C233.28 30.3583 233.045 29.4101 233.074 28.3889C233.104 27.3677 233.397 26.4194 233.969 25.5004C234.542 24.5813 235.275 23.8957 236.185 23.4288C237.095 22.962 238.049 22.7578 239.076 22.8161C240.103 22.8745 241.101 23.1954 242.07 23.8081C242.803 24.2604 243.405 24.7856 243.86 25.3983C244.33 26.011 244.623 26.6675 244.77 27.3823L243.743 27.6303C243.449 26.4194 242.715 25.442 241.556 24.7272C240.778 24.2458 239.971 23.9832 239.135 23.9394C238.298 23.8957 237.506 24.0561 236.772 24.45C236.038 24.8293 235.437 25.3983 234.967 26.1423C234.498 26.8863 234.263 27.674 234.233 28.491C234.219 29.3079 234.41 30.0811 234.806 30.8105C235.217 31.54 235.804 32.1527 236.581 32.6195C237.565 33.2322 238.562 33.5094 239.546 33.4365L241.556 30.227H241.585Z" fill="black"/>
<path d="M257.86 36.4417C258.08 37.4775 257.816 38.4695 257.067 39.4177C256.319 40.366 255.424 40.8474 254.353 40.8766C253.281 40.9057 252.181 40.4827 251.051 39.5928L248.659 37.7255L246.458 40.5119L245.519 39.7824L252.504 30.9419L255.835 33.5386C256.965 34.4285 257.64 35.3913 257.86 36.4271V36.4417ZM254.147 39.7533C254.91 39.7387 255.571 39.374 256.128 38.6737C256.686 37.9589 256.891 37.2295 256.73 36.4855C256.568 35.7415 256.04 35.0266 255.16 34.341L252.797 32.5029L249.305 36.9231L251.667 38.7613C252.548 39.4469 253.369 39.7824 254.132 39.7679L254.147 39.7533Z" fill="black"/>
<path d="M259.973 51.9783L260.531 47.5872C260.296 47.4121 260.061 47.2225 259.826 47.0183L257.596 44.9759L255.174 47.6018L254.294 46.7994L261.925 38.5278L265.036 41.3726C266.092 42.3354 266.694 43.3566 266.841 44.4069C266.987 45.4573 266.635 46.4347 265.828 47.31C265.226 47.9519 264.566 48.3458 263.818 48.4917C263.084 48.6376 262.306 48.5355 261.514 48.1707L260.927 52.8682L259.958 51.9929L259.973 51.9783ZM262.879 47.4267C263.656 47.4559 264.331 47.1496 264.933 46.4931C265.549 45.822 265.813 45.1072 265.711 44.3486C265.608 43.59 265.138 42.8314 264.317 42.0874L262.101 40.0742L258.271 44.2173L260.487 46.2305C261.308 46.9891 262.115 47.383 262.879 47.4121V47.4267Z" fill="black"/>
<path d="M264.419 55.5087C264.169 54.5021 264.199 53.5246 264.492 52.5618C264.786 51.599 265.329 50.7528 266.136 50.0234C266.928 49.294 267.823 48.8126 268.821 48.6084C269.819 48.4041 270.787 48.4479 271.785 48.7834C272.783 49.1189 273.634 49.6879 274.397 50.5048C275.16 51.3218 275.659 52.2263 275.909 53.2183C276.158 54.2103 276.129 55.1877 275.835 56.1505C275.542 57.1134 274.999 57.9741 274.192 58.7035C273.4 59.4329 272.49 59.9143 271.507 60.1186C270.509 60.3374 269.525 60.279 268.557 59.9581C267.588 59.6372 266.723 59.0682 265.96 58.2513C265.196 57.4343 264.698 56.5298 264.448 55.5232L264.419 55.5087ZM268.806 58.8786C269.599 59.1266 270.391 59.1703 271.184 58.9807C271.991 58.791 272.71 58.4117 273.355 57.8136C274.001 57.2155 274.456 56.5298 274.706 55.7421C274.955 54.9543 274.984 54.1665 274.794 53.3788C274.603 52.5764 274.207 51.847 273.59 51.2051C272.989 50.5486 272.284 50.0964 271.507 49.8338C270.729 49.5712 269.922 49.5274 269.115 49.7171C268.307 49.9067 267.574 50.286 266.928 50.8841C266.282 51.4823 265.827 52.1679 265.593 52.9557C265.343 53.7435 265.329 54.5312 265.519 55.3336C265.71 56.136 266.121 56.8654 266.723 57.5218C267.324 58.1783 268.029 58.6306 268.806 58.8786Z" fill="black"/>
<path d="M280.356 59.0682L276.863 61.7962L280.473 66.3624L279.666 66.9897L276.056 62.4235L272.285 65.3704L271.551 64.4367L280.444 57.4927L285.228 63.5468L284.421 64.1741L280.371 59.0536L280.356 59.0682Z" fill="black"/>
<path d="M282.982 78.3541L282.131 78.923L277.655 72.3437L287.003 66.0415L291.347 72.4166L290.495 72.9856L286.812 67.5879L283.481 69.8345L286.753 74.6486L285.917 75.2176L282.645 70.4034L279.167 72.7376L282.982 78.3249V78.3541Z" fill="black"/>
<path d="M284.097 81.6073C283.951 80.8195 283.951 80.1192 284.127 79.5357L285.154 79.4774C285.007 80.0317 284.992 80.659 285.11 81.3738C285.227 82.0887 285.477 82.7452 285.844 83.3725C286.357 84.2478 286.9 84.8021 287.472 85.0501C288.045 85.2981 288.588 85.2835 289.101 84.9772C289.498 84.7438 289.732 84.452 289.835 84.0873C289.938 83.7226 289.938 83.3287 289.864 82.9056C289.791 82.4826 289.644 81.9282 289.439 81.2425C289.204 80.411 289.043 79.7254 288.955 79.1856C288.867 78.6458 288.911 78.1352 289.087 77.61C289.263 77.0849 289.644 76.6618 290.246 76.3117C290.745 76.0199 291.259 75.8886 291.816 75.9178C292.374 75.947 292.931 76.1512 293.489 76.5451C294.047 76.939 294.56 77.5371 295.015 78.3395C295.338 78.8938 295.587 79.4774 295.734 80.1047C295.896 80.7174 295.954 81.3009 295.91 81.8553L294.883 81.9866C294.912 81.4176 294.868 80.8778 294.722 80.3381C294.59 79.7983 294.384 79.3023 294.135 78.8646C293.636 78.0185 293.093 77.4642 292.521 77.2307C291.948 76.9973 291.391 77.0265 290.862 77.3183C290.466 77.5517 290.231 77.8435 290.129 78.2228C290.026 78.5875 290.026 78.9959 290.099 79.419C290.187 79.8421 290.319 80.411 290.525 81.0967C290.76 81.9136 290.921 82.5847 291.009 83.1244C291.097 83.6642 291.053 84.1894 290.877 84.7C290.701 85.2106 290.319 85.6336 289.732 85.9838C289.233 86.2755 288.72 86.3922 288.162 86.3631C287.605 86.3339 287.047 86.1151 286.489 85.7066C285.932 85.2981 285.418 84.7 284.963 83.8976C284.538 83.1682 284.259 82.4242 284.097 81.6218V81.6073Z" fill="black"/>
<path d="M288.867 90.0976C288.764 89.2953 288.823 88.6096 289.028 88.0407H290.056C289.865 88.595 289.821 89.2223 289.894 89.9372C289.967 90.652 290.158 91.3376 290.481 91.9795C290.936 92.884 291.435 93.4821 291.993 93.7593C292.55 94.0511 293.093 94.0657 293.621 93.8031C294.032 93.5988 294.282 93.3217 294.414 92.9569C294.531 92.5922 294.575 92.1983 294.517 91.7899C294.473 91.3668 294.37 90.8124 294.208 90.0976C294.018 89.2515 293.9 88.5513 293.856 88.0115C293.812 87.4717 293.886 86.9465 294.091 86.4505C294.296 85.9545 294.722 85.5461 295.338 85.2397C295.852 84.9917 296.38 84.8896 296.938 84.9625C297.495 85.0209 298.038 85.2689 298.552 85.7065C299.08 86.1442 299.55 86.7715 299.961 87.5884C300.254 88.1574 300.445 88.7701 300.562 89.3974C300.68 90.0247 300.695 90.6082 300.621 91.148L299.594 91.2063C299.667 90.652 299.653 90.0976 299.55 89.5433C299.447 88.9889 299.286 88.4929 299.051 88.0261C298.611 87.1508 298.112 86.5672 297.539 86.2901C296.982 86.0129 296.424 86.0129 295.881 86.2755C295.47 86.4797 295.206 86.7569 295.089 87.1216C294.971 87.4863 294.927 87.8802 294.986 88.3178C295.045 88.7555 295.148 89.3244 295.294 90.0101C295.47 90.8416 295.602 91.5273 295.646 92.0671C295.691 92.6068 295.617 93.132 295.412 93.628C295.206 94.124 294.795 94.5179 294.179 94.8243C293.665 95.0723 293.137 95.1744 292.58 95.1014C292.022 95.0285 291.479 94.7805 290.951 94.3283C290.422 93.876 289.953 93.2487 289.542 92.4318C289.175 91.6878 288.926 90.9146 288.838 90.0976H288.867Z" fill="black"/>
<path d="M302.866 93.949L303.351 95.0431L292.991 99.5217L292.521 98.4276L302.881 93.949H302.866Z" fill="black"/>
<path d="M295.646 104.219C295.808 103.198 296.204 102.308 296.849 101.535C297.495 100.762 298.332 100.193 299.344 99.8282C300.371 99.4635 301.369 99.3614 302.367 99.551C303.365 99.7261 304.245 100.164 305.023 100.849C305.801 101.535 306.388 102.396 306.769 103.432C307.151 104.482 307.254 105.503 307.107 106.51C306.946 107.516 306.549 108.406 305.889 109.194C305.243 109.982 304.407 110.551 303.38 110.915C302.352 111.28 301.34 111.368 300.342 111.193C299.344 111.017 298.449 110.58 297.686 109.909C296.908 109.238 296.336 108.377 295.954 107.327C295.573 106.276 295.455 105.255 295.617 104.234L295.646 104.219ZM298.376 109.019C299.007 109.559 299.726 109.894 300.533 110.04C301.34 110.186 302.162 110.098 302.998 109.807C303.835 109.515 304.51 109.048 305.038 108.421C305.566 107.793 305.904 107.079 306.036 106.262C306.168 105.445 306.08 104.628 305.772 103.796C305.463 102.965 305.009 102.279 304.377 101.725C303.746 101.185 303.027 100.835 302.22 100.689C301.413 100.543 300.591 100.616 299.755 100.922C298.933 101.229 298.244 101.681 297.715 102.323C297.187 102.95 296.849 103.68 296.717 104.496C296.585 105.313 296.673 106.13 296.982 106.976C297.29 107.808 297.759 108.494 298.376 109.033V109.019Z" fill="black"/>
<path d="M312.111 121.39L301.179 124.249L300.929 123.301L307.944 113.994L299.08 116.313L298.772 115.161L309.704 112.301L309.954 113.25L302.94 122.571L311.803 120.252L312.111 121.39Z" fill="black"/>
<path d="M306.095 134.038L304.994 127.882L301.781 127.079L301.561 125.868L313.579 128.976L313.784 130.128L303.556 137.145L303.336 135.92L306.066 134.067L306.095 134.038ZM306.975 133.44L312.478 129.734L306.036 128.13L306.975 133.44Z" fill="black"/>
<path d="M314.958 137.656L315.076 138.837L304.862 139.902L305.523 146.161L304.496 146.263L303.718 138.823L314.958 137.656Z" fill="black"/>
<path d="M314.944 177.146L303.688 176.14L303.791 175.002L312.801 175.804L305.626 170.728L305.684 170.173L313.608 166.453L304.657 165.651L304.76 164.513L316.015 165.52L315.927 166.497L307.137 170.611L315.047 176.169L314.958 177.146H314.944Z" fill="black"/>
<path d="M304.099 180.837C305.082 180.196 306.344 180.021 307.929 180.312L314.298 181.494L314.078 182.661L307.768 181.494C306.476 181.261 305.464 181.363 304.715 181.829C303.967 182.296 303.497 183.07 303.292 184.164C303.087 185.272 303.248 186.162 303.776 186.862C304.305 187.563 305.214 188.03 306.506 188.263L312.816 189.43L312.596 190.568L306.227 189.386C304.657 189.095 303.527 188.482 302.852 187.534C302.177 186.585 301.971 185.404 302.235 183.974C302.5 182.544 303.131 181.509 304.099 180.867V180.837Z" fill="black"/>
<path d="M300.782 192.537C301.237 191.866 301.736 191.385 302.279 191.093L303.042 191.779C302.543 192.07 302.074 192.508 301.663 193.092C301.237 193.675 300.944 194.317 300.753 195.003C300.489 195.98 300.474 196.753 300.709 197.337C300.944 197.92 301.34 198.285 301.912 198.431C302.352 198.548 302.734 198.504 303.057 198.314C303.394 198.125 303.673 197.847 303.923 197.512C304.172 197.176 304.466 196.68 304.818 196.038C305.243 195.28 305.625 194.682 305.948 194.244C306.271 193.806 306.681 193.471 307.166 193.223C307.65 192.975 308.237 192.946 308.912 193.135C309.47 193.281 309.925 193.558 310.306 193.967C310.688 194.375 310.922 194.915 311.025 195.586C311.128 196.257 311.069 197.045 310.834 197.92C310.673 198.533 310.423 199.131 310.086 199.671C309.748 200.225 309.382 200.678 308.956 201.028L308.134 200.4C308.56 200.021 308.912 199.598 309.205 199.117C309.499 198.635 309.704 198.154 309.836 197.658C310.086 196.71 310.101 195.936 309.866 195.367C309.631 194.784 309.22 194.419 308.633 194.273C308.193 194.157 307.811 194.2 307.474 194.39C307.136 194.58 306.843 194.857 306.593 195.222C306.344 195.586 306.05 196.068 305.698 196.71C305.287 197.454 304.921 198.037 304.598 198.489C304.275 198.927 303.864 199.262 303.394 199.51C302.91 199.744 302.338 199.773 301.677 199.598C301.12 199.452 300.665 199.175 300.298 198.752C299.931 198.329 299.682 197.789 299.579 197.103C299.476 196.418 299.55 195.645 299.784 194.755C300.005 193.952 300.342 193.208 300.797 192.537H300.782Z" fill="black"/>
<path d="M307.107 206.294L308.369 202.56L309.352 202.881L306.432 211.488L305.449 211.167L306.711 207.432L296.982 204.179L297.363 203.056L307.093 206.309L307.107 206.294Z" fill="black"/>
<path d="M295.382 216.666L297.789 210.875L295.514 208.482L295.984 207.344L304.466 216.374L304.011 217.454L291.596 217.921L292.08 216.768L295.382 216.666ZM296.439 216.637L303.086 216.447L298.508 211.648L296.439 216.637Z" fill="black"/>
<path d="M296.615 232.845L286.562 227.71L287.017 226.835L298.493 224.574L290.334 220.416L290.877 219.365L300.929 224.501L300.474 225.376L288.998 227.652L297.157 231.809L296.615 232.845Z" fill="black"/>
<path d="M285.404 240.387L284.802 241.35L281.148 239.074C281.031 238.389 281.06 237.674 281.236 236.93C281.412 236.186 281.706 235.486 282.131 234.814C282.733 233.866 283.481 233.137 284.376 232.641C285.272 232.145 286.24 231.911 287.253 231.926C288.265 231.941 289.234 232.261 290.158 232.83C291.083 233.399 291.772 234.143 292.242 235.033C292.712 235.938 292.917 236.886 292.858 237.907C292.8 238.928 292.462 239.92 291.86 240.883C291.406 241.613 290.863 242.196 290.246 242.663C289.63 243.13 288.97 243.422 288.251 243.553L288.001 242.532C289.219 242.24 290.202 241.525 290.936 240.358C291.42 239.585 291.684 238.782 291.743 237.951C291.787 237.119 291.626 236.332 291.244 235.602C290.863 234.873 290.29 234.275 289.542 233.808C288.793 233.341 288.016 233.093 287.179 233.078C286.343 233.064 285.58 233.253 284.846 233.647C284.112 234.041 283.496 234.639 283.012 235.398C282.395 236.375 282.117 237.353 282.175 238.345L285.404 240.358V240.387Z" fill="black"/>
<path d="M279.064 256.58C278.022 256.799 277.024 256.522 276.07 255.793C275.131 255.049 274.632 254.144 274.603 253.094C274.574 252.029 275.014 250.949 275.894 249.811L277.773 247.448L274.97 245.245L275.704 244.312L284.567 251.27L281.94 254.567C281.045 255.69 280.076 256.362 279.035 256.58H279.064ZM275.733 252.889C275.748 253.648 276.114 254.305 276.804 254.859C277.523 255.428 278.257 255.617 279.005 255.472C279.754 255.326 280.473 254.801 281.177 253.925L283.041 251.591L278.609 248.105L276.745 250.453C276.056 251.329 275.718 252.145 275.733 252.904V252.889Z" fill="black"/>
<path d="M263.451 258.623L267.868 259.177C268.044 258.944 268.235 258.71 268.44 258.477L270.495 256.259L267.868 253.838L268.675 252.962L276.981 260.578L274.119 263.67C273.136 264.721 272.123 265.319 271.067 265.45C270.01 265.581 269.027 265.246 268.147 264.429C267.501 263.831 267.105 263.174 266.958 262.43C266.811 261.701 266.929 260.928 267.295 260.14L262.57 259.542L263.451 258.594V258.623ZM268.029 261.526C267.985 262.299 268.308 262.97 268.954 263.583C269.629 264.195 270.348 264.458 271.096 264.356C271.859 264.254 272.622 263.787 273.371 262.97L275.41 260.782L271.243 256.96L269.203 259.148C268.44 259.965 268.044 260.753 268.015 261.526H268.029Z" fill="black"/>
<path d="M259.87 263.043C260.883 262.795 261.866 262.824 262.835 263.116C263.803 263.407 264.654 263.962 265.388 264.75C266.122 265.552 266.591 266.442 266.811 267.419C267.017 268.397 266.958 269.374 266.635 270.352C266.312 271.329 265.725 272.19 264.904 272.948C264.082 273.707 263.172 274.203 262.174 274.436C261.176 274.684 260.193 274.655 259.225 274.349C258.256 274.057 257.405 273.503 256.657 272.715C255.923 271.912 255.453 271.023 255.233 270.031C255.028 269.039 255.086 268.061 255.409 267.098C255.732 266.135 256.319 265.275 257.141 264.516C257.963 263.758 258.887 263.262 259.885 263.028L259.87 263.043ZM256.466 267.39C256.202 268.178 256.172 268.966 256.348 269.753C256.524 270.556 256.921 271.271 257.522 271.927C258.124 272.584 258.814 273.021 259.591 273.269C260.384 273.517 261.176 273.546 261.969 273.357C262.776 273.167 263.51 272.773 264.17 272.175C264.83 271.577 265.285 270.877 265.549 270.104C265.813 269.33 265.857 268.528 265.681 267.726C265.505 266.923 265.109 266.194 264.522 265.552C263.935 264.91 263.231 264.458 262.438 264.21C261.646 263.962 260.853 263.933 260.046 264.122C259.239 264.312 258.506 264.706 257.845 265.304C257.185 265.902 256.73 266.588 256.466 267.375V267.39Z" fill="black"/>
<path d="M256.231 278.871L253.501 275.399L248.894 278.973L248.263 278.171L252.871 274.597L249.921 270.848L250.86 270.118L257.816 278.973L251.711 283.715L251.08 282.898L256.246 278.886L256.231 278.871Z" fill="black"/>
<path d="M236.846 281.424L236.273 280.578L242.906 276.143L249.216 285.465L242.789 289.769L242.217 288.922L247.661 285.29L245.416 281.978L240.573 285.217L240.001 284.386L244.843 281.147L242.495 277.689L236.86 281.468L236.846 281.424Z" fill="black"/>
<path d="M233.559 282.533C234.366 282.387 235.056 282.387 235.643 282.562L235.701 283.583C235.144 283.437 234.513 283.423 233.794 283.54C233.075 283.656 232.414 283.89 231.783 284.254C230.903 284.75 230.345 285.29 230.096 285.859C229.846 286.428 229.861 286.968 230.154 287.478C230.375 287.872 230.683 288.106 231.05 288.208C231.416 288.31 231.813 288.31 232.238 288.237C232.664 288.164 233.221 288.033 233.911 287.814C234.748 287.581 235.437 287.42 235.98 287.333C236.523 287.26 237.037 287.303 237.565 287.478C238.093 287.654 238.519 288.033 238.871 288.646C239.15 289.142 239.282 289.667 239.253 290.206C239.223 290.761 239.018 291.315 238.607 291.855C238.211 292.409 237.609 292.905 236.802 293.372C236.244 293.693 235.643 293.927 235.026 294.087C234.395 294.247 233.823 294.291 233.265 294.247L233.133 293.226C233.706 293.255 234.249 293.212 234.792 293.08C235.335 292.949 235.833 292.759 236.274 292.497C237.125 292.001 237.682 291.476 237.917 290.892C238.167 290.309 238.137 289.769 237.829 289.244C237.609 288.85 237.301 288.616 236.934 288.514C236.567 288.412 236.156 288.398 235.731 288.485C235.305 288.558 234.733 288.704 234.043 288.908C233.221 289.142 232.546 289.302 232.003 289.39C231.46 289.477 230.932 289.433 230.433 289.258C229.92 289.083 229.494 288.704 229.157 288.106C228.878 287.61 228.746 287.085 228.775 286.53C228.804 285.976 229.024 285.422 229.435 284.867C229.846 284.313 230.463 283.817 231.255 283.35C231.989 282.927 232.752 282.65 233.544 282.504L233.559 282.533Z" fill="black"/>
<path d="M225.003 287.245C225.81 287.143 226.5 287.201 227.072 287.42V288.441C226.514 288.251 225.883 288.193 225.164 288.266C224.445 288.339 223.756 288.529 223.11 288.85C222.2 289.287 221.599 289.783 221.305 290.338C221.012 290.892 220.997 291.432 221.261 291.957C221.466 292.365 221.745 292.628 222.112 292.745C222.479 292.861 222.875 292.905 223.286 292.861C223.712 292.818 224.269 292.715 224.988 292.555C225.839 292.38 226.544 292.263 227.087 292.219C227.63 292.176 228.158 292.263 228.657 292.467C229.156 292.672 229.567 293.095 229.875 293.707C230.124 294.218 230.212 294.743 230.154 295.298C230.095 295.852 229.846 296.377 229.405 296.902C228.965 297.427 228.334 297.894 227.498 298.303C226.925 298.58 226.309 298.784 225.678 298.901C225.047 299.018 224.46 299.032 223.917 298.945L223.858 297.923C224.416 297.996 224.974 297.982 225.531 297.88C226.089 297.778 226.588 297.617 227.057 297.398C227.953 296.961 228.525 296.465 228.818 295.91C229.097 295.356 229.112 294.802 228.848 294.262C228.642 293.853 228.363 293.591 227.997 293.474C227.63 293.357 227.234 293.314 226.793 293.372C226.353 293.43 225.781 293.532 225.076 293.678C224.24 293.853 223.55 293.97 223.007 294.014C222.464 294.058 221.936 293.985 221.437 293.78C220.938 293.576 220.542 293.168 220.234 292.555C219.984 292.044 219.896 291.519 219.955 290.965C220.028 290.41 220.278 289.871 220.733 289.346C221.188 288.82 221.819 288.354 222.655 287.945C223.403 287.58 224.196 287.347 225.003 287.245Z" fill="black"/>
<path d="M221.145 301.133L220.044 301.6L215.568 291.286L216.669 290.819L221.145 301.133Z" fill="black"/>
<path d="M210.77 293.956C211.797 294.116 212.692 294.525 213.47 295.166C214.247 295.808 214.82 296.64 215.187 297.661C215.553 298.682 215.641 299.674 215.465 300.666C215.275 301.658 214.849 302.534 214.159 303.307C213.47 304.08 212.604 304.649 211.547 305.028C210.491 305.408 209.463 305.51 208.451 305.349C207.438 305.189 206.543 304.78 205.751 304.138C204.973 303.496 204.401 302.665 204.019 301.644C203.652 300.623 203.564 299.616 203.755 298.624C203.946 297.632 204.386 296.742 205.061 295.983C205.736 295.225 206.602 294.641 207.659 294.277C208.715 293.912 209.757 293.795 210.77 293.956ZM205.942 296.655C205.399 297.267 205.061 297.982 204.914 298.799C204.768 299.601 204.856 300.418 205.149 301.25C205.443 302.081 205.912 302.752 206.543 303.292C207.174 303.832 207.893 304.153 208.7 304.299C209.522 304.43 210.344 304.357 211.18 304.051C212.017 303.744 212.707 303.292 213.264 302.665C213.807 302.038 214.159 301.323 214.306 300.52C214.453 299.718 214.379 298.901 214.086 298.07C213.792 297.238 213.323 296.567 212.692 296.042C212.061 295.517 211.342 295.181 210.52 295.05C209.698 294.918 208.876 294.991 208.025 295.298C207.189 295.604 206.499 296.056 205.956 296.684L205.942 296.655Z" fill="black"/>
<path d="M193.468 310.251L190.621 299.382L191.575 299.134L200.923 306.137L198.604 297.311L199.763 297.004L202.61 307.873L201.656 308.121L192.294 301.133L194.613 309.944L193.468 310.236V310.251Z" fill="black"/>
<path d="M180.745 304.24L186.953 303.175L187.774 299.981L188.992 299.776L185.837 311.724L184.678 311.928L177.664 301.731L178.911 301.512L180.76 304.24H180.745ZM181.332 305.116L185.045 310.601L186.688 304.197L181.347 305.116H181.332Z" fill="black"/>
<path d="M177.121 313.037L175.932 313.154L174.89 303L168.595 303.642L168.492 302.621L175.976 301.862L177.121 313.037Z" fill="black"/>
<path d="M137.368 312.906L138.425 301.717L139.569 301.819L138.733 310.761L143.854 303.642L144.412 303.701L148.125 311.593L148.961 302.694L150.106 302.796L149.049 313.985L148.066 313.898L143.957 305.145L138.337 312.993L137.354 312.906H137.368Z" fill="black"/>
<path d="M133.699 302.11C134.344 303.088 134.52 304.357 134.227 305.918L133.023 312.235L131.85 312.016L133.053 305.743C133.302 304.459 133.185 303.452 132.73 302.708C132.275 301.964 131.483 301.498 130.397 301.293C129.281 301.089 128.386 301.235 127.682 301.76C126.978 302.285 126.508 303.175 126.259 304.459L125.055 310.732L123.911 310.513L125.114 304.197C125.407 302.636 126.038 301.512 126.992 300.841C127.946 300.17 129.149 299.98 130.588 300.243C132.026 300.52 133.068 301.133 133.713 302.11H133.699Z" fill="black"/>
<path d="M121.96 298.784C122.635 299.236 123.119 299.732 123.398 300.272L122.708 301.031C122.414 300.535 121.974 300.068 121.387 299.66C120.8 299.236 120.155 298.93 119.465 298.755C118.482 298.492 117.704 298.478 117.117 298.697C116.53 298.916 116.163 299.324 116.002 299.893C115.884 300.331 115.928 300.71 116.119 301.045C116.31 301.366 116.589 301.658 116.926 301.906C117.278 302.154 117.763 302.446 118.408 302.796C119.171 303.219 119.773 303.598 120.213 303.919C120.654 304.24 120.991 304.649 121.226 305.13C121.475 305.612 121.49 306.195 121.314 306.866C121.167 307.421 120.888 307.873 120.477 308.238C120.067 308.602 119.524 308.85 118.849 308.952C118.174 309.054 117.396 308.996 116.501 308.748C115.884 308.588 115.297 308.325 114.74 308.004C114.182 307.669 113.742 307.304 113.375 306.881L114.006 306.078C114.388 306.501 114.813 306.852 115.283 307.143C115.767 307.435 116.251 307.639 116.75 307.785C117.704 308.048 118.482 308.048 119.054 307.814C119.641 307.581 120.008 307.173 120.169 306.589C120.287 306.151 120.243 305.772 120.052 305.437C119.861 305.101 119.582 304.809 119.215 304.561C118.849 304.313 118.364 304.021 117.733 303.671C116.985 303.263 116.398 302.898 115.958 302.577C115.517 302.256 115.18 301.848 114.945 301.366C114.71 300.885 114.681 300.316 114.857 299.66C115.004 299.105 115.283 298.653 115.708 298.288C116.134 297.924 116.677 297.69 117.366 297.588C118.056 297.486 118.834 297.559 119.729 297.792C120.536 298.011 121.285 298.347 121.96 298.813V298.784Z" fill="black"/>
<path d="M108.092 305.028L111.849 306.297L111.511 307.275L102.868 304.357L103.206 303.38L106.962 304.649L110.264 294.991L111.394 295.371L108.092 305.028Z" fill="black"/>
<path d="M97.7171 293.358L103.528 295.765L105.935 293.518L107.079 293.999L97.9665 302.402L96.8806 301.95L96.4551 289.608L97.6144 290.09L97.7024 293.372L97.7171 293.358ZM97.7464 294.408L97.9225 301.016L102.75 296.48L97.7464 294.408Z" fill="black"/>
<path d="M81.3989 294.51L86.5937 284.531L87.4742 284.984L89.7193 296.392L93.9309 288.295L94.9875 288.835L89.7927 298.814L88.9123 298.361L86.6524 286.939L82.4408 295.035L81.3989 294.495V294.51Z" fill="black"/>
<path d="M73.8421 283.35L72.8736 282.737L75.1775 279.119C75.8672 279.017 76.5863 279.046 77.3347 279.221C78.083 279.396 78.7874 279.688 79.4624 280.111C80.4163 280.709 81.15 281.453 81.6489 282.358C82.1479 283.248 82.3827 284.211 82.3533 285.217C82.324 286.224 82.0158 287.187 81.4435 288.106C80.8565 289.025 80.1228 289.71 79.213 290.177C78.3032 290.644 77.3346 290.834 76.3074 290.775C75.2802 290.717 74.2824 290.382 73.3138 289.769C72.5801 289.317 71.9931 288.777 71.5236 288.164C71.054 287.551 70.7605 286.88 70.6284 286.165L71.6556 285.917C71.9344 287.128 72.6682 288.106 73.8275 288.835C74.6052 289.317 75.4123 289.594 76.2487 289.637C77.0852 289.696 77.8776 289.521 78.6113 289.141C79.3451 288.762 79.9467 288.208 80.4163 287.464C80.8859 286.72 81.1353 285.947 81.1647 285.115C81.194 284.298 81.0033 283.525 80.6071 282.781C80.2108 282.052 79.6239 281.439 78.8461 280.957C77.8629 280.345 76.8797 280.068 75.8819 280.126L73.8421 283.335V283.35Z" fill="black"/>
<path d="M57.5677 277.004C57.3623 275.968 57.6264 274.976 58.3748 274.028C59.1232 273.094 60.0331 272.613 61.1043 272.584C62.1755 272.554 63.2614 272.992 64.3914 273.882L66.7686 275.764L68.9845 272.992L69.9237 273.736L62.8946 282.533L59.5781 279.922C58.4482 279.032 57.7732 278.054 57.5677 277.018V277.004ZM61.2951 273.707C60.532 273.707 59.8716 274.072 59.314 274.772C58.7417 275.487 58.5363 276.216 58.6977 276.96C58.8591 277.704 59.3727 278.434 60.2532 279.119L62.6011 280.972L66.123 276.581L63.775 274.728C62.8946 274.042 62.0728 273.692 61.3097 273.707H61.2951Z" fill="black"/>
<path d="M55.5869 261.496L55.0146 265.887C55.2494 266.062 55.4842 266.252 55.7043 266.456L57.9348 268.513L60.3708 265.902L61.2513 266.704L53.5619 274.947L50.4655 272.087C49.409 271.11 48.822 270.103 48.6899 269.039C48.5579 267.988 48.8954 267.011 49.7171 266.135C50.3188 265.494 50.9938 265.1 51.7275 264.954C52.4613 264.808 53.239 264.925 54.0314 265.289L54.6478 260.606L55.6016 261.496H55.5869ZM52.652 266.033C51.8743 265.99 51.1846 266.296 50.5829 266.952C49.9666 267.623 49.7025 268.338 49.8052 269.082C49.9079 269.841 50.3628 270.599 51.1846 271.358L53.3858 273.386L57.2305 269.257L55.0293 267.23C54.2075 266.471 53.4151 266.077 52.6374 266.033H52.652Z" fill="black"/>
<path d="M51.14 257.922C51.3894 258.929 51.3601 259.906 51.0519 260.869C50.7584 261.832 50.2008 262.678 49.3937 263.408C48.5866 264.137 47.6915 264.604 46.7083 264.808C45.7251 265.012 44.7272 264.954 43.7587 264.618C42.7755 264.283 41.9097 263.714 41.1613 262.882C40.4129 262.065 39.914 261.146 39.6645 260.154C39.4151 259.162 39.4591 258.185 39.7526 257.222C40.0608 256.259 40.6037 255.413 41.4108 254.684C42.2179 253.954 43.113 253.487 44.1109 253.283C45.1088 253.079 46.092 253.137 47.0605 253.458C48.029 253.794 48.8948 254.363 49.6432 255.18C50.3916 255.997 50.8905 256.916 51.14 257.922ZM46.7817 254.523C46.0039 254.261 45.1968 254.217 44.4044 254.407C43.5973 254.582 42.8782 254.975 42.2179 255.559C41.5575 256.143 41.1173 256.843 40.8532 257.616C40.6037 258.389 40.5744 259.192 40.7505 259.979C40.9412 260.782 41.3374 261.511 41.9391 262.168C42.5407 262.824 43.2304 263.276 44.0229 263.553C44.8153 263.816 45.6077 263.86 46.4148 263.685C47.2219 263.51 47.9556 263.13 48.6013 262.532C49.247 261.934 49.7019 261.248 49.9513 260.475C50.2008 259.702 50.2302 258.9 50.0394 258.097C49.8486 257.295 49.4524 256.566 48.8508 255.909C48.2491 255.253 47.5594 254.8 46.767 254.538L46.7817 254.523Z" fill="black"/>
<path d="M35.2337 254.261L38.7409 251.562L35.1603 246.966L35.9821 246.339L39.5626 250.934L43.3486 248.017L44.0824 248.95L35.1603 255.836L30.4058 249.753L31.2275 249.125L35.2483 254.275L35.2337 254.261Z" fill="black"/>
<path d="M32.6946 234.946L33.5604 234.377L38.0067 240.985L28.6151 247.229L24.3008 240.825L25.1519 240.256L28.7912 245.668L32.1369 243.451L28.8939 238.622L29.745 238.053L32.9881 242.882L36.4806 240.562L32.6946 234.946Z" fill="black"/>
<path d="M31.5939 231.692C31.7406 232.495 31.726 233.18 31.5499 233.764L30.5227 233.822C30.6694 233.268 30.6841 232.641 30.5667 231.926C30.4493 231.211 30.2145 230.555 29.8476 229.927C29.3487 229.052 28.8057 228.498 28.2334 228.235C27.6611 227.987 27.1182 228.002 26.6046 228.293C26.2084 228.512 25.9736 228.819 25.8709 229.183C25.7681 229.548 25.7681 229.942 25.8268 230.365C25.9002 230.788 26.0323 231.342 26.2377 232.028C26.4725 232.874 26.6339 233.56 26.7073 234.085C26.7807 234.625 26.7367 235.15 26.5606 235.66C26.3845 236.171 25.9883 236.609 25.3866 236.944C24.8877 237.221 24.3594 237.353 23.8164 237.324C23.2735 237.294 22.7012 237.076 22.1582 236.682C21.6006 236.288 21.1017 235.69 20.6321 234.887C20.3092 234.333 20.0744 233.735 19.913 233.122C19.7663 232.495 19.7076 231.911 19.7516 231.372L20.7788 231.255C20.7495 231.824 20.7788 232.364 20.9256 232.918C21.0576 233.458 21.2484 233.954 21.5125 234.391C21.9968 235.252 22.5398 235.792 23.1267 236.04C23.7137 236.288 24.2567 236.259 24.7849 235.952C25.1812 235.733 25.4306 235.427 25.5187 235.062C25.6067 234.698 25.6361 234.289 25.548 233.866C25.4746 233.443 25.3279 232.874 25.1371 232.188C24.9023 231.372 24.7409 230.7 24.6675 230.161C24.5942 229.621 24.6382 229.096 24.7996 228.6C24.9757 228.089 25.3573 227.666 25.9589 227.331C26.4578 227.053 26.9861 226.922 27.5437 226.951C28.1014 226.98 28.659 227.199 29.2166 227.622C29.7743 228.031 30.2732 228.644 30.7428 229.431C31.1683 230.161 31.4472 230.919 31.5939 231.707V231.692Z" fill="black"/>
<path d="M26.8982 223.187C27.0009 223.99 26.9422 224.675 26.7221 225.244H25.6949C25.8857 224.69 25.9444 224.048 25.871 223.333C25.7976 222.618 25.6069 221.933 25.2987 221.291C24.8585 220.386 24.3595 219.788 23.8019 219.496C23.2443 219.205 22.7013 219.19 22.173 219.453C21.7622 219.642 21.498 219.934 21.3806 220.299C21.2632 220.664 21.2192 221.057 21.2632 221.466C21.3073 221.889 21.41 222.443 21.5714 223.158C21.7475 224.004 21.8649 224.704 21.9089 225.244C21.9529 225.784 21.8649 226.295 21.6594 226.805C21.454 227.301 21.0284 227.71 20.3974 228.016C19.8838 228.264 19.3556 228.352 18.7979 228.293C18.2403 228.235 17.712 227.972 17.1837 227.549C16.6554 227.112 16.2005 226.484 15.7897 225.653C15.5108 225.069 15.3054 224.471 15.2027 223.844C15.0853 223.216 15.0706 222.633 15.1587 222.093L16.1859 222.035C16.1125 222.589 16.1272 223.144 16.2152 223.698C16.3179 224.252 16.4647 224.748 16.6995 225.215C17.1397 226.105 17.6386 226.689 18.1963 226.966C18.7539 227.243 19.3115 227.257 19.8545 226.995C20.2654 226.805 20.5295 226.513 20.6469 226.149C20.7643 225.784 20.8083 225.39 20.7643 224.952C20.7056 224.515 20.6176 223.946 20.4561 223.246C20.28 222.414 20.1626 221.728 20.1186 221.189C20.0746 220.649 20.148 220.124 20.3681 219.628C20.5735 219.132 20.9844 218.738 21.6007 218.431C22.1144 218.183 22.6426 218.096 23.2003 218.169C23.7579 218.242 24.3008 218.504 24.8145 218.942C25.3427 219.394 25.7976 220.022 26.2085 220.853C26.5754 221.597 26.8102 222.385 26.8982 223.187Z" fill="black"/>
<path d="M12.9281 219.278L12.4585 218.184L22.848 213.763L23.3176 214.858L12.9281 219.278Z" fill="black"/>
<path d="M20.1921 209.008C20.0307 210.029 19.6198 210.919 18.9741 211.692C18.3284 212.465 17.492 213.034 16.4648 213.384C15.4376 213.749 14.4397 213.836 13.4418 213.647C12.444 213.457 11.5635 213.019 10.7858 212.334C10.008 211.648 9.43571 210.787 9.05417 209.737C8.67264 208.687 8.56992 207.665 8.74601 206.659C8.90743 205.652 9.31831 204.762 9.97867 203.989C10.639 203.216 11.4755 202.647 12.488 202.282C13.5152 201.918 14.5278 201.83 15.5256 202.02C16.5235 202.209 17.4039 202.647 18.1817 203.318C18.9594 203.989 19.5171 204.85 19.8986 205.9C20.2801 206.951 20.3829 207.986 20.2068 208.993L20.1921 209.008ZM17.492 204.193C16.8757 203.654 16.1566 203.303 15.3495 203.158C14.5424 203.012 13.7207 203.085 12.8842 203.376C12.0478 203.668 11.3727 204.135 10.8298 204.748C10.2868 205.375 9.94932 206.09 9.81725 206.892C9.68518 207.695 9.75855 208.526 10.0667 209.358C10.3749 210.189 10.8298 210.889 11.4461 211.429C12.0771 211.984 12.7962 212.319 13.6033 212.465C14.4104 212.611 15.2468 212.538 16.0686 212.246C16.8903 211.954 17.58 211.488 18.123 210.86C18.666 210.233 18.9888 209.518 19.1355 208.701C19.2676 207.884 19.1942 207.067 18.8861 206.221C18.5926 205.39 18.123 204.704 17.5067 204.15L17.492 204.193Z" fill="black"/>
<path d="M3.84475 191.764L14.7919 188.963L15.0414 189.911L7.96828 199.175L16.8463 196.899L17.1398 198.052L6.19267 200.853L5.9432 199.904L13.0016 190.626L4.12357 192.902L3.83008 191.764H3.84475Z" fill="black"/>
<path d="M9.91999 179.145L10.9766 185.316L14.1756 186.133L14.381 187.358L2.37732 184.178L2.17188 183.026L12.444 176.082L12.6494 177.322L9.90532 179.16L9.91999 179.145ZM9.03953 179.729L3.50725 183.405L9.94934 185.053L9.03953 179.743V179.729Z" fill="black"/>
<path d="M1.08615 175.527L0.96875 174.346L11.1822 173.339L10.5659 167.081L11.5931 166.979L12.3268 174.419L1.08615 175.527Z" fill="black"/>
<path d="M0.792447 140.398L12.0624 141.157L11.9891 142.295L2.96427 141.682L10.2428 146.598L10.1988 147.153L2.36262 151.048L11.3287 151.661L11.2553 152.799L-0.0146484 152.04L0.0587239 151.063L8.74601 146.759L0.719075 141.376L0.792447 140.398Z" fill="black"/>
<path d="M11.5635 136.489C10.6097 137.16 9.33298 137.364 7.74814 137.101L1.36475 136.066L1.55551 134.899L7.89488 135.934C9.18624 136.139 10.1988 136.007 10.9325 135.54C11.6662 135.059 12.1211 134.271 12.2972 133.177C12.4733 132.068 12.2972 131.178 11.7543 130.493C11.2113 129.807 10.2868 129.355 8.99547 129.151L2.6561 128.115L2.84687 126.977L9.23026 128.013C10.8151 128.275 11.9597 128.859 12.6494 129.793C13.3391 130.726 13.5739 131.908 13.3391 133.338C13.1043 134.767 12.5027 135.832 11.5488 136.489H11.5635Z" fill="black"/>
<path d="M14.6154 124.701C14.1751 125.387 13.6909 125.869 13.1626 126.175L12.3849 125.504C12.8838 125.197 13.324 124.76 13.7349 124.162C14.1458 123.564 14.4246 122.922 14.6007 122.221C14.8355 121.244 14.8355 120.471 14.6007 119.887C14.3659 119.304 13.955 118.954 13.3827 118.808C12.9425 118.706 12.561 118.749 12.2381 118.954C11.9153 119.158 11.6365 119.435 11.4017 119.785C11.1669 120.135 10.8734 120.631 10.5506 121.273C10.1397 122.046 9.77281 122.645 9.46464 123.097C9.15648 123.534 8.76027 123.885 8.27601 124.133C7.79175 124.381 7.21945 124.424 6.52975 124.264C5.97212 124.133 5.50254 123.87 5.121 123.461C4.73947 123.068 4.49 122.528 4.35793 121.857C4.22586 121.186 4.28456 120.412 4.50467 119.508C4.65142 118.881 4.88621 118.297 5.20905 117.743C5.53189 117.188 5.89875 116.722 6.30963 116.357L7.14608 116.97C6.73519 117.349 6.38301 117.787 6.10419 118.268C5.82538 118.749 5.61993 119.245 5.50254 119.741C5.26775 120.704 5.28242 121.463 5.53189 122.032C5.78135 122.601 6.20691 122.965 6.79389 123.097C7.23413 123.199 7.61566 123.155 7.95317 122.951C8.29069 122.747 8.5695 122.469 8.80429 122.105C9.03908 121.74 9.33257 121.244 9.65541 120.602C10.0516 119.844 10.4038 119.245 10.712 118.808C11.0201 118.37 11.4163 118.02 11.9006 117.772C12.3849 117.524 12.9425 117.48 13.6175 117.641C14.1751 117.772 14.6447 118.049 15.0263 118.458C15.4078 118.866 15.6573 119.406 15.7747 120.077C15.8921 120.748 15.8334 121.536 15.6279 122.44C15.4225 123.257 15.1143 124.001 14.6594 124.672L14.6154 124.701Z" fill="black"/>
<path d="M7.96818 111.12L6.79422 114.883L5.81104 114.577L8.52581 105.912L9.509 106.218L8.33504 109.982L18.1376 113.016L17.7854 114.154L7.98286 111.12H7.96818Z" fill="black"/>
<path d="M19.4434 100.499L17.1688 106.334L19.5021 108.669L19.0471 109.821L10.3599 100.98L10.7854 99.8863L23.1853 99.1423L22.7304 100.309L19.4287 100.484L19.4434 100.499ZM18.3868 100.557L11.7539 100.893L16.4351 105.576L18.3868 100.543V100.557Z" fill="black"/>
<path d="M17.8589 84.3062L28.0283 89.2078L27.6027 90.0831L16.186 92.6069L24.433 96.5896L23.9048 97.6545L13.7354 92.7528L14.1609 91.8775L25.5923 89.3391L17.3453 85.3565L17.8589 84.3062Z" fill="black"/>
<path d="M28.9236 76.5014L29.5106 75.5239L33.2086 77.7122C33.3406 78.3979 33.326 79.1127 33.1645 79.8567C33.0031 80.6007 32.7243 81.3155 32.3134 81.9866C31.7411 82.9494 31.0074 83.6934 30.1123 84.2186C29.2318 84.7438 28.2779 84.9918 27.2507 84.9918C26.2382 84.9918 25.255 84.7 24.3305 84.1603C23.3913 83.6059 22.687 82.8911 22.2027 82.0012C21.7185 81.1113 21.4837 80.163 21.5277 79.1419C21.5717 78.1207 21.8799 77.1141 22.4669 76.1512C22.9071 75.4218 23.4354 74.8091 24.037 74.3277C24.6387 73.8463 25.299 73.5399 26.0181 73.394L26.2969 74.4152C25.0789 74.7216 24.1251 75.4802 23.4207 76.6472C22.9511 77.435 22.7016 78.2374 22.6723 79.0689C22.6429 79.9005 22.8337 80.6882 23.2299 81.4031C23.6261 82.1325 24.2131 82.716 24.9615 83.1682C25.7246 83.6205 26.517 83.8393 27.3388 83.8393C28.1605 83.8393 28.9383 83.6351 29.6573 83.2266C30.3911 82.8035 30.978 82.2054 31.4476 81.4322C32.0493 80.4402 32.2987 79.4482 32.2107 78.4708L28.9383 76.5305L28.9236 76.5014Z" fill="black"/>
<path d="M34.867 60.2062C35.9089 59.9728 36.9068 60.2062 37.8753 60.9356C38.8438 61.6505 39.3427 62.5404 39.4014 63.6053C39.4601 64.6557 39.0493 65.7644 38.1835 66.9023L36.3491 69.3094L39.196 71.4393L38.4769 72.3875L29.4521 65.6185L32.0055 62.2632C32.8713 61.1107 33.8251 60.425 34.867 60.1916V60.2062ZM38.2715 63.8241C38.2422 63.0655 37.8606 62.4091 37.1562 61.8839C36.4225 61.3295 35.6888 61.1545 34.9404 61.3295C34.192 61.5046 33.4876 62.0444 32.8126 62.9197L31.0076 65.2976L35.5127 68.6821L37.3177 66.3042C37.9927 65.4143 38.3155 64.5973 38.2715 63.8241Z" fill="black"/>
<path d="M50.4216 57.8137L45.9899 57.3469C45.8285 57.5803 45.6377 57.8137 45.4322 58.0471L43.4218 60.3083L46.1073 62.6716L45.3148 63.5615L36.833 56.136L39.6358 52.9849C40.5897 51.9054 41.5875 51.2927 42.6588 51.1322C43.7153 50.9718 44.6985 51.2927 45.5937 52.0805C46.254 52.664 46.6649 53.3205 46.8263 54.0499C46.9877 54.7793 46.8997 55.5525 46.5475 56.3403L51.2727 56.8217L50.4069 57.7991L50.4216 57.8137ZM45.7844 55.0127C45.7991 54.2395 45.4763 53.5685 44.8159 52.9849C44.1262 52.3868 43.4072 52.1388 42.6441 52.2555C41.881 52.3722 41.1326 52.8537 40.3989 53.6852L38.4179 55.9318L42.6734 59.6518L44.6545 57.4052C45.3882 56.5737 45.7698 55.7713 45.7991 54.9981L45.7844 55.0127Z" fill="black"/>
<path d="M53.9138 53.306C52.916 53.5685 51.9181 53.5685 50.9496 53.306C49.9811 53.0288 49.1153 52.5036 48.3669 51.7304C47.6185 50.9572 47.1195 50.0673 46.8848 49.0899C46.65 48.1125 46.694 47.1351 47.0021 46.1431C47.3103 45.1511 47.8679 44.2758 48.675 43.5172C49.4821 42.744 50.3773 42.2334 51.3751 41.9708C52.373 41.7082 53.3562 41.7082 54.3247 41.9854C55.3079 42.2626 56.1737 42.7877 56.9221 43.5609C57.6705 44.3341 58.1694 45.224 58.4042 46.2014C58.639 47.1788 58.595 48.1708 58.3015 49.1337C57.9933 50.1111 57.4357 50.9718 56.6286 51.745C55.8215 52.5182 54.9117 53.0288 53.9138 53.306ZM57.2156 48.8857C57.465 48.0979 57.4797 47.3101 57.2743 46.5078C57.0688 45.72 56.6726 45.0052 56.0563 44.3633C55.44 43.736 54.7503 43.2983 53.9578 43.0649C53.1654 42.8315 52.373 42.8169 51.5659 43.0212C50.7735 43.2254 50.0398 43.6339 49.3941 44.2466C48.7484 44.8593 48.3082 45.5595 48.0587 46.3473C47.8092 47.1351 47.7946 47.9228 47.9853 48.7252C48.1761 49.5276 48.587 50.2424 49.2033 50.8697C49.8196 51.497 50.5094 51.9346 51.3164 52.1681C52.1089 52.4015 52.916 52.4015 53.7084 52.1972C54.5155 51.993 55.2345 51.5699 55.8802 50.9572C56.5259 50.3445 56.9661 49.6443 57.2156 48.8565V48.8857Z" fill="black"/>
<path d="M57.1869 37.4045L59.9897 40.8182L64.5094 37.1419L65.1698 37.9297L60.65 41.606L63.6877 45.2968L62.7632 46.0408L55.6167 37.3461L61.6186 32.4736L62.2789 33.2614L57.2015 37.3899L57.1869 37.4045Z" fill="black"/>
<path d="M76.5128 34.4139L77.1144 35.2455L70.5843 39.8262L64.0688 30.6501L70.3935 26.2007L70.9952 27.0468L65.639 30.8106L67.9576 34.0784L72.7268 30.7231L73.3138 31.5546L68.5446 34.9099L70.9658 38.3236L76.5128 34.4285V34.4139Z" fill="black"/>
<path d="M79.7555 33.2469C78.9631 33.422 78.2587 33.422 77.6718 33.2615L77.5984 32.2403C78.156 32.3716 78.8017 32.3716 79.5061 32.2403C80.2104 32.109 80.8855 31.8464 81.5018 31.4817C82.3676 30.9565 82.9105 30.4168 83.16 29.8332C83.4095 29.2497 83.3654 28.7099 83.0573 28.2139C82.8225 27.8346 82.5143 27.6012 82.1475 27.5137C81.7806 27.4261 81.3844 27.4261 80.9588 27.5137C80.5479 27.6012 79.9903 27.7471 79.2859 27.9659C78.4495 28.2285 77.7598 28.389 77.2315 28.4911C76.6886 28.5786 76.175 28.5494 75.6467 28.389C75.1184 28.2285 74.6782 27.8492 74.326 27.2511C74.0325 26.7697 73.8857 26.2445 73.9004 25.6901C73.9151 25.1358 74.1205 24.5814 74.5021 24.027C74.8836 23.4727 75.4853 22.9475 76.2777 22.4661C76.8353 22.1306 77.4223 21.8826 78.0386 21.7075C78.6549 21.5324 79.2419 21.4741 79.7996 21.5033L79.9463 22.5244C79.374 22.5099 78.831 22.5682 78.2881 22.7141C77.7451 22.86 77.2609 23.0642 76.8206 23.3268C75.9695 23.8374 75.4412 24.3918 75.2064 24.9607C74.9717 25.5296 75.0157 26.084 75.3385 26.5946C75.5733 26.9739 75.8815 27.2219 76.2483 27.3094C76.6152 27.397 77.0261 27.397 77.4516 27.3094C77.8772 27.2219 78.4348 27.0614 79.1245 26.8572C79.9316 26.6092 80.6213 26.4341 81.1496 26.332C81.6926 26.2299 82.2208 26.2737 82.7344 26.4341C83.2481 26.5946 83.6883 26.9593 84.0405 27.5574C84.334 28.0388 84.4807 28.564 84.4514 29.1184C84.4367 29.6727 84.2166 30.2271 83.8204 30.796C83.4241 31.3504 82.8225 31.8756 82.0301 32.357C81.311 32.7947 80.5626 33.0864 79.7555 33.2615V33.2469Z" fill="black"/>
<path d="M88.1932 28.3452C87.3861 28.4619 86.6964 28.4182 86.1241 28.2285V27.2073C86.667 27.3824 87.298 27.4261 88.0171 27.3386C88.7361 27.2511 89.4112 27.0468 90.0568 26.7113C90.952 26.2445 91.539 25.7339 91.8178 25.1795C92.0966 24.6252 92.0966 24.0854 91.8178 23.5602C91.6123 23.1663 91.3188 22.9037 90.952 22.8016C90.5851 22.6849 90.1889 22.6557 89.7633 22.7141C89.3378 22.7725 88.7802 22.8892 88.0611 23.0496C87.21 23.2539 86.5056 23.3852 85.9773 23.4289C85.4344 23.4873 84.9061 23.4289 84.4072 23.2247C83.9082 23.0205 83.4827 22.6266 83.1598 22.0139C82.8957 21.5033 82.793 20.9781 82.837 20.4383C82.8957 19.884 83.1305 19.3442 83.5561 18.8044C83.9816 18.2646 84.5979 17.7978 85.4197 17.3748C85.992 17.083 86.5937 16.8642 87.2247 16.7475C87.8557 16.6162 88.4426 16.587 88.9856 16.6599L89.059 17.6811C88.5013 17.6228 87.9437 17.6519 87.3861 17.7541C86.8431 17.8708 86.3295 18.0312 85.8746 18.2792C84.9942 18.7315 84.4218 19.2421 84.1577 19.811C83.8936 20.38 83.8936 20.9197 84.1577 21.4595C84.3631 21.8534 84.6566 22.116 85.0235 22.2327C85.3904 22.3494 85.8012 22.3786 86.2268 22.3202C86.667 22.2619 87.2247 22.1452 87.929 21.9701C88.7508 21.7659 89.4405 21.6346 89.9981 21.5762C90.5411 21.5179 91.0694 21.5762 91.5683 21.7804C92.0672 21.9701 92.4781 22.3786 92.801 22.9767C93.0651 23.4727 93.1678 24.0125 93.1091 24.5668C93.0504 25.1212 92.801 25.6609 92.3754 26.2007C91.9352 26.7405 91.3042 27.2073 90.4824 27.6304C89.734 28.0097 88.9563 28.2723 88.1492 28.3744L88.1932 28.3452Z" fill="black"/>
<path d="M91.7739 14.3549L92.8598 13.8589L97.5703 24.0707L96.4844 24.5667L91.7739 14.3549Z" fill="black"/>
<path d="M102.296 21.3136C101.268 21.1677 100.359 20.7884 99.5662 20.1611C98.7737 19.5338 98.1868 18.7169 97.7906 17.7103C97.3943 16.7037 97.2916 15.6971 97.4531 14.7051C97.6145 13.7131 98.0254 12.8232 98.7004 12.0354C99.3754 11.2476 100.227 10.6495 101.268 10.2556C102.31 9.86174 103.338 9.73044 104.365 9.86174C105.377 10.0076 106.287 10.3869 107.08 11.0142C107.872 11.6415 108.474 12.4585 108.855 13.4651C109.251 14.4717 109.354 15.4783 109.193 16.4703C109.031 17.4623 108.606 18.3522 107.945 19.1399C107.285 19.9131 106.434 20.5112 105.392 20.9051C104.35 21.299 103.308 21.4303 102.281 21.299L102.296 21.3136ZM107.065 18.5126C107.593 17.8853 107.916 17.1559 108.048 16.3536C108.18 15.5512 108.077 14.7342 107.755 13.9173C107.432 13.1004 106.962 12.4293 106.316 11.9187C105.671 11.4081 104.952 11.0872 104.13 10.9705C103.308 10.8537 102.486 10.9559 101.65 11.2768C100.813 11.5978 100.138 12.0646 99.5955 12.7065C99.0672 13.3338 98.7297 14.0632 98.5977 14.8801C98.4656 15.6971 98.5683 16.514 98.8765 17.331C99.1993 18.1479 99.6689 18.819 100.315 19.3296C100.96 19.8402 101.694 20.1611 102.516 20.2778C103.338 20.3945 104.159 20.2778 104.996 19.9715C105.832 19.6651 106.507 19.1837 107.035 18.5418L107.065 18.5126Z" fill="black"/>
<path d="M119.23 4.61011L122.327 15.4201L121.388 15.6827L111.893 8.89909L114.403 17.6667L113.258 17.9876L110.162 7.17766L111.115 6.91507L120.625 13.6987L118.115 4.93105L119.245 4.61011H119.23Z" fill="black"/>
<path d="M132.07 10.3432L125.892 11.554L125.143 14.7635L123.925 14.9969L126.816 2.97609L127.975 2.74268L135.225 12.7795L133.992 13.0275L132.084 10.3432H132.07ZM131.453 9.4825L127.623 4.08481L126.141 10.5329L131.468 9.49709L131.453 9.4825Z" fill="black"/>
<path d="M135.504 1.47352L136.693 1.32764L137.955 11.452L144.235 10.6788L144.367 11.7L136.898 12.619L135.504 1.47352Z" fill="black"/>
</g>
<defs>
<clipPath id="clip0_868_58266">
<rect width="316" height="314" fill="white"/>
</clipPath>
</defs>
</svg>
