<svg width="14" height="14" viewBox="0 0 14 14" fill="none" xmlns="http://www.w3.org/2000/svg">
  <path d="M12 5.90909C12 9.72727 7 13 7 13C7 13 2 9.72727 2 5.90909C2 4.60712 2.52678 3.35847 3.46447 2.43784C4.40215 1.51721 5.67392 1 7 1C8.32608 1 9.59785 1.51721 10.5355 2.43784C11.4732 3.35847 12 4.60712 12 5.90909Z" stroke="currentColor" stroke-linecap="round" stroke-linejoin="round"/>
  <path d="M7 8C8.10457 8 9 7.10457 9 6C9 4.89543 8.10457 4 7 4C5.89543 4 5 4.89543 5 6C5 7.10457 5.89543 8 7 8Z" stroke="currentColor" stroke-linecap="round" stroke-linejoin="round"/>
</svg>
