<svg width="210" height="66" viewBox="0 0 210 66" fill="none" xmlns="http://www.w3.org/2000/svg">
  <g clip-path="url(#clip0_701_52)">
    <path d="M28.0525 0L0 16.5268V49.5805L28.0525 66.1073L56.1051 49.5805V16.5268L28.0525 0ZM3.46717 18.5659L28.0525 4.18537L52.5328 18.5659L28.0525 33.0537V61.922L3.46717 47.4342V18.5659Z" fill="#18325B"/>
    <path d="M5.56848 38.9559C5.56848 36.9169 5.56848 34.7706 5.56848 32.7315C5.56848 32.0876 6.09381 31.9803 6.61914 32.5169C6.93434 32.8389 7.0394 33.1608 7.14447 33.4828C7.14447 33.5901 7.14447 33.5901 7.14447 33.6974C7.14447 37.7754 7.14447 41.7462 7.14447 45.8242C7.14447 45.9315 7.14447 46.0389 7.14447 46.1462C7.0394 46.4681 6.7242 46.5754 6.30394 46.2535C5.88368 45.9315 5.56848 45.5023 5.56848 45.073C5.56848 43.6779 5.56848 42.2828 5.56848 40.995C5.56848 40.3511 5.56848 39.5998 5.56848 38.9559Z" fill="#18325B"/>
    <path d="M13.3433 43.463C13.3433 45.5021 13.3433 47.5411 13.3433 49.5801C13.3433 49.6874 13.3433 49.7947 13.3433 49.9021C13.2383 50.224 12.9231 50.224 12.5028 50.0094C12.0825 49.7947 11.8724 49.2582 11.7673 48.8289C11.7673 48.7216 11.7673 48.7216 11.7673 48.6143C11.7673 44.5362 11.7673 40.4582 11.7673 36.4874C11.7673 36.3801 11.7673 36.2728 11.7673 36.1655C11.8724 35.8435 12.1876 35.7362 12.6079 36.0582C13.0281 36.3801 13.3433 36.8094 13.3433 37.2387C13.3433 38.7411 13.3433 40.2435 13.3433 41.746C13.3433 42.2826 13.3433 42.9265 13.3433 43.463Z" fill="#18325B"/>
    <path d="M24.1651 49.7949C24.1651 47.7559 24.1651 45.7168 24.1651 43.5705C24.1651 42.9266 24.6904 42.9266 25.2158 43.4632C25.531 43.7851 25.7411 44.1071 25.7411 44.5364C25.7411 44.9656 25.7411 45.3949 25.7411 45.7168C25.7411 49.4729 25.7411 53.1217 25.7411 56.8778C25.7411 56.9851 25.7411 57.0924 25.7411 57.1998C25.636 57.5217 25.3208 57.629 24.9006 57.3071C24.4803 56.9851 24.1651 56.5559 24.1651 56.1266C24.1651 54.3022 24.1651 52.5851 24.1651 50.7607C24.1651 50.4388 24.1651 50.1168 24.1651 49.7949Z" fill="#18325B"/>
    <path d="M10.1914 39.4923C10.1914 40.8875 10.1914 42.2826 10.1914 43.5704C10.1914 44.2143 9.66605 44.2143 9.14072 43.6777C8.82552 43.3557 8.72046 43.0338 8.72046 42.6045C8.72046 41.5314 8.72046 40.5655 8.72046 39.4923C8.72046 37.7753 8.72046 36.1655 8.72046 34.4484C8.72046 33.8045 9.35085 33.8045 9.87618 34.3411C10.1914 34.6631 10.2964 34.985 10.2964 35.4143C10.1914 36.8094 10.1914 38.2045 10.1914 39.4923Z" fill="#18325B"/>
    <path d="M14.8143 42.2828C14.8143 40.8877 14.8143 39.5999 14.8143 38.2048C14.8143 37.5609 15.4447 37.5609 15.97 38.0975C16.2852 38.4194 16.3903 38.8487 16.3903 39.1706C16.3903 41.1023 16.3903 42.9267 16.3903 44.8584C16.3903 45.717 16.3903 46.4682 16.3903 47.3267C16.3903 47.8633 16.0751 48.0779 15.6548 47.756C15.2345 47.434 14.9193 46.8975 14.9193 46.4682C14.8143 44.9658 14.8143 43.5706 14.8143 42.2828Z" fill="#18325B"/>
    <path d="M19.4372 44.9657C19.4372 46.3609 19.4372 47.6487 19.4372 49.0438C19.4372 49.6877 18.9118 49.6877 18.3865 49.1511C18.0713 48.8292 17.9662 48.3999 17.9662 48.0779C17.9662 46.3609 17.9662 44.5365 17.9662 42.8194C17.9662 41.8536 17.9662 40.8877 17.9662 39.9218C17.9662 39.3853 18.2814 39.1706 18.7017 39.4926C19.122 39.8145 19.4372 40.3511 19.4372 40.8877C19.5422 42.2828 19.4372 43.6779 19.4372 44.9657Z" fill="#18325B"/>
    <path d="M21.0131 45.9315C21.0131 44.5364 21.0131 43.2486 21.0131 41.8535C21.0131 41.3169 21.3283 41.1023 21.7486 41.4242C22.1688 41.7462 22.484 42.2828 22.484 42.8193C22.484 45.5023 22.484 48.1852 22.484 50.9754C22.484 51.6193 21.9587 51.7267 21.4334 51.1901C21.1182 50.8681 20.908 50.4389 21.0131 50.1169C21.0131 48.6145 21.0131 47.2193 21.0131 45.9315Z" fill="#18325B"/>
    <path d="M8.72046 46.4679C8.72046 46.3606 8.72046 46.146 8.72046 46.0386C8.72046 45.6094 9.03566 45.5021 9.45592 45.7167C9.87618 45.9313 10.1914 46.4679 10.1914 46.8972C10.1914 47.2191 10.1914 47.5411 10.1914 47.863C10.1914 48.2923 9.87618 48.3996 9.45592 48.185C9.03566 47.9704 8.72046 47.4338 8.72046 47.0045C8.72046 46.7899 8.72046 46.6825 8.72046 46.4679Z" fill="#18325B"/>
    <path d="M14.8143 50.2242C14.8143 50.0095 14.8143 49.9022 14.8143 49.6876C14.8143 49.2583 15.1295 49.151 15.5497 49.3656C15.97 49.5803 16.2852 50.1168 16.2852 50.5461C16.2852 50.8681 16.2852 51.19 16.2852 51.6193C16.2852 52.0485 15.8649 52.1559 15.5497 51.9412C15.1295 51.7266 14.8143 51.19 14.8143 50.7607C14.8143 50.5461 14.8143 50.3315 14.8143 50.2242Z" fill="#18325B"/>
    <path d="M19.4372 52.9074C19.4372 53.0147 19.4372 53.2293 19.4372 53.3367C19.4372 53.7659 19.122 53.8733 18.7017 53.6586C18.2814 53.444 17.9662 52.9074 17.9662 52.4781C17.9662 52.1562 17.9662 51.8342 17.9662 51.5123C17.9662 51.083 18.2814 50.9757 18.7017 51.1903C19.122 51.405 19.4372 51.9415 19.4372 52.3708C19.5422 52.5854 19.4372 52.8001 19.4372 52.9074Z" fill="#18325B"/>
    <path d="M22.5891 54.7316C22.5891 54.8389 22.5891 55.0536 22.5891 55.1609C22.5891 55.5902 22.2739 55.6975 21.8536 55.4828C21.4334 55.2682 21.0131 54.7316 21.0131 54.3023C21.0131 53.9804 21.0131 53.6584 21.0131 53.3365C21.0131 52.9072 21.3283 52.7999 21.7486 53.0145C22.1688 53.2292 22.484 53.7658 22.484 54.195C22.5891 54.4097 22.5891 54.517 22.5891 54.7316Z" fill="#18325B"/>
  </g>
  <g clip-path="url(#clip1_701_52)">
    <path d="M70 7.74756H88.8028V13.1931H75.9094V29.1028H86.2241V34.5484H76.0169V58.2527H70V7.74756Z" fill="#18325B"/>
    <path d="M113.73 58.3594H109.647L108.573 55.5832H108.358C106.424 57.8255 104.06 59 101.374 59C98.6876 59 96.5388 58.0391 94.9271 56.1171C93.3154 54.1951 92.4559 51.6325 92.4559 48.3224V19.2793H98.4728V47.575C98.4728 49.497 98.9025 50.9918 99.6546 51.9528C100.407 53.0206 101.481 53.4477 102.771 53.4477C104.167 53.4477 105.242 52.9138 106.209 51.846C107.068 50.7783 107.606 49.3902 107.82 47.7885V19.2793H113.837V58.3594H113.73Z" fill="#18325B"/>
    <path d="M122.325 7H128.342V58.3593H122.325V7Z" fill="#18325B"/>
    <path d="M156.278 52.9138V58.3593H137.368V7H143.385V52.9138H156.278Z" fill="#18325B"/>
    <path d="M177.444 21.8421C179.378 23.9776 180.238 26.647 180.238 30.0639V58.3596H176.155L175.081 55.5834H174.866C172.932 57.8257 170.675 59.0002 167.989 59.0002C165.411 59.0002 163.262 58.0392 161.65 56.1173C160.038 54.1953 159.179 51.6327 159.179 48.4294V46.8277C159.179 43.5177 160.146 40.8483 162.187 38.7127C164.121 36.5772 166.807 35.5095 169.923 35.5095H174.221V30.2774C174.221 28.3555 173.899 26.8606 173.147 25.7928C172.394 24.7251 171.427 24.1912 170.138 24.1912C168.849 24.1912 167.882 24.7251 167.13 25.7928C166.378 26.8606 165.948 28.3555 165.948 30.2774V31.5587H159.931V30.0639C159.931 26.647 160.898 23.9776 162.725 21.8421C164.658 19.7066 167.022 18.7456 170.031 18.7456C173.147 18.7456 175.618 19.7066 177.444 21.8421ZM172.824 51.8462C173.684 50.7785 174.221 49.3904 174.328 47.7887V41.0618H170.031C168.526 41.0618 167.345 41.5957 166.485 42.6635C165.625 43.7312 165.196 45.1193 165.196 47.0413V47.7887C165.196 49.6039 165.625 51.0988 166.378 52.0598C167.13 53.0208 168.204 53.5546 169.386 53.5546C170.783 53.4479 171.857 52.914 172.824 51.8462Z" fill="#18325B"/>
    <path d="M207.529 21.6283C209.14 23.5503 210 26.1129 210 29.423V48.3224C210 51.5257 209.14 54.0883 207.529 56.117C205.917 58.039 203.768 59 201.082 59C198.181 59 195.817 57.8255 193.991 55.5832H193.668L192.594 58.3593H188.511V7H194.528V21.2012C196.355 19.4928 198.503 18.7454 200.975 18.7454C203.661 18.7454 205.81 19.7064 207.529 21.6283ZM203.983 30.1704C203.983 28.2485 203.553 26.7536 202.801 25.7926C202.049 24.7248 200.975 24.2977 199.685 24.2977C198.289 24.2977 197.107 24.8316 196.14 25.7926C195.28 26.7536 194.743 28.1417 194.528 29.7433V47.8953C194.635 49.6037 195.173 50.885 196.14 51.9528C197.107 53.0205 198.289 53.5544 199.685 53.5544C200.975 53.5544 201.942 53.0205 202.801 52.0595C203.553 50.9918 203.983 49.6037 203.983 47.6817V30.1704Z" fill="#18325B"/>
  </g>
  <defs>
    <clipPath id="clip0_701_52">
      <rect width="56" height="66" fill="white"/>
    </clipPath>
    <clipPath id="clip1_701_52">
      <rect width="140" height="52" fill="white" transform="translate(70 7)"/>
    </clipPath>
  </defs>
</svg>
