<svg width="320" height="124" viewBox="0 0 320 124" fill="none" xmlns="http://www.w3.org/2000/svg">
  <g clip-path="url(#clip0_310_544)">
    <path d="M114.286 119.524H113.135V102.283H109.846C109.681 105.267 109.517 107.92 109.353 110.572C109.188 113.225 109.024 115.048 108.859 116.209C108.695 117.369 108.366 118.198 108.037 118.695C107.544 119.193 107.05 119.524 106.228 119.524V118.529C106.721 118.529 107.05 118.364 107.215 118.032C107.379 117.701 107.708 117.037 107.708 116.209C107.873 114.882 108.037 112.727 108.366 109.412C108.53 106.096 108.695 103.444 108.695 101.455H114.121V119.524H114.286Z" fill="white"/>
    <path d="M122.672 106.262C123.33 106.925 123.494 107.754 123.494 108.915V119.524H122.672L122.343 118.364C121.686 119.358 120.863 119.856 119.877 119.856C119.054 119.856 118.397 119.524 117.903 118.861C117.41 118.198 117.081 117.369 117.081 116.209V115.546C117.081 114.551 117.41 113.556 118.068 112.893C118.726 112.23 119.383 111.899 120.37 111.899H122.343V109.08C122.343 108.252 122.179 107.588 121.85 107.091C121.521 106.594 121.028 106.428 120.534 106.428C120.041 106.428 119.548 106.594 119.219 107.091C118.89 107.588 118.726 108.252 118.726 109.08V109.744H117.575V109.08C117.575 107.92 117.903 107.091 118.397 106.428C119.054 105.765 119.712 105.433 120.534 105.433C121.357 105.268 122.179 105.599 122.672 106.262ZM121.685 118.032C122.014 117.535 122.343 116.872 122.508 116.209V112.893H120.534C119.877 112.893 119.383 113.059 119.054 113.556C118.726 114.054 118.561 114.717 118.561 115.546V116.043C118.561 116.872 118.726 117.535 119.054 118.032C119.383 118.53 119.877 118.695 120.37 118.695C120.699 118.695 121.192 118.53 121.685 118.032Z" fill="white"/>
    <path d="M126.619 106.594C126.619 105.102 126.783 104.107 127.112 103.278C127.441 102.615 127.934 102.118 128.756 101.786C129.25 101.621 129.743 101.621 130.565 101.455L131.552 101.289C131.881 101.289 132.374 101.123 132.703 100.958V101.952C132.539 102.118 132.21 102.284 131.716 102.284C131.387 102.284 131.059 102.449 130.73 102.449C130.072 102.449 129.743 102.615 129.25 102.781C128.592 102.947 128.263 103.278 127.934 103.941C127.77 104.439 127.605 105.268 127.605 106.428V107.091C127.934 106.594 128.263 106.262 128.756 106.097C129.25 105.931 129.579 105.765 130.072 105.765C130.894 105.765 131.716 106.097 132.21 106.76C132.703 107.423 133.032 108.252 133.032 109.412V116.043C133.032 117.204 132.703 118.032 132.045 118.695C131.552 119.359 130.894 119.69 129.908 119.69C128.921 119.69 128.099 119.359 127.605 118.695C126.948 118.032 126.619 117.204 126.619 116.043V106.594ZM128.263 118.032C128.592 118.53 129.085 118.695 129.743 118.695C130.401 118.695 130.894 118.53 131.223 118.032C131.552 117.535 131.881 116.872 131.881 116.043V109.744C131.881 108.915 131.716 108.252 131.223 107.754C130.894 107.257 130.401 107.091 129.743 107.091C129.085 107.091 128.592 107.257 128.263 107.754C127.934 108.252 127.605 108.749 127.605 109.412V116.043C127.77 116.872 127.934 117.535 128.263 118.032Z" fill="white"/>
    <path d="M135.992 108.915C135.992 107.754 136.321 106.925 136.978 106.262C137.636 105.599 138.458 105.268 139.281 105.268C140.103 105.268 141.089 105.599 141.583 106.262C142.24 106.925 142.569 107.754 142.569 108.915V116.043C142.569 117.203 142.24 118.032 141.583 118.695C140.925 119.358 140.103 119.69 139.281 119.69C138.458 119.69 137.472 119.358 136.978 118.695C136.321 118.032 135.992 117.203 135.992 116.043V108.915ZM137.636 118.032C137.965 118.53 138.458 118.695 139.116 118.695C139.774 118.695 140.267 118.53 140.596 118.032C140.925 117.535 141.254 116.872 141.254 116.043V108.915C141.254 108.086 141.089 107.423 140.596 106.925C140.267 106.428 139.774 106.262 139.116 106.262C138.458 106.262 137.965 106.428 137.636 106.925C137.307 107.423 136.978 108.086 136.978 108.915V116.043C137.143 116.872 137.307 117.535 137.636 118.032Z" fill="white"/>
    <path d="M151.285 106.262C151.778 106.925 152.107 107.754 152.107 108.915V116.043C152.107 117.203 151.778 118.032 151.285 118.695C150.791 119.358 150.134 119.69 149.147 119.69C148.654 119.69 148.16 119.524 147.831 119.358C147.338 119.193 147.009 118.861 146.68 118.364V124H145.529V105.433H146.351L146.68 106.594C147.338 105.765 148.16 105.268 149.311 105.268C150.134 105.268 150.791 105.599 151.285 106.262ZM150.956 109.08C150.956 108.252 150.791 107.423 150.462 106.925C150.134 106.428 149.64 106.262 148.983 106.262C148.325 106.262 147.831 106.428 147.503 106.925C147.009 107.423 146.845 107.92 146.845 108.583V116.043C146.845 116.872 147.174 117.369 147.667 117.867C148.16 118.364 148.654 118.53 149.147 118.53C149.805 118.53 150.298 118.364 150.462 117.867C150.791 117.369 150.956 116.706 150.956 115.711V109.08Z" fill="white"/>
    <path d="M160 106.262C160.658 106.925 160.822 107.754 160.822 108.915V119.524H160L159.671 118.364C159.013 119.358 158.191 119.856 157.205 119.856C156.382 119.856 155.725 119.524 155.231 118.861C154.738 118.198 154.573 117.203 154.573 116.043V115.38C154.573 114.385 154.902 113.391 155.56 112.727C156.218 112.064 156.876 111.733 157.862 111.733H159.836V108.915C159.836 108.086 159.671 107.423 159.342 106.925C159.013 106.428 158.52 106.262 158.027 106.262C157.533 106.262 157.04 106.428 156.711 106.925C156.382 107.423 156.218 108.086 156.218 108.915V109.578H155.067V108.915C155.067 107.754 155.396 106.925 155.889 106.262C156.547 105.599 157.205 105.268 158.027 105.268C158.684 105.268 159.507 105.599 160 106.262ZM159.013 118.032C159.342 117.535 159.671 116.872 159.836 116.209V112.893H157.862C157.205 112.893 156.711 113.059 156.382 113.556C156.053 114.054 155.889 114.717 155.889 115.546V116.043C155.889 116.872 156.053 117.535 156.382 118.032C156.711 118.53 157.205 118.695 157.698 118.695C158.027 118.695 158.52 118.53 159.013 118.032Z" fill="white"/>
    <path d="M162.302 105.433H168.88V106.428H166.249V119.524H165.098V106.428H162.467V105.433H162.302Z" fill="white"/>
    <path d="M170.36 108.915C170.36 107.754 170.689 106.925 171.346 106.262C172.004 105.599 172.826 105.268 173.648 105.268C174.471 105.268 175.457 105.599 175.951 106.262C176.608 106.925 176.937 107.754 176.937 108.915V116.043C176.937 117.203 176.608 118.032 175.951 118.695C175.293 119.358 174.471 119.69 173.648 119.69C172.826 119.69 171.84 119.358 171.346 118.695C170.689 118.032 170.36 117.203 170.36 116.043V108.915ZM172.169 118.032C172.497 118.53 172.991 118.695 173.648 118.695C174.306 118.695 174.8 118.53 175.128 118.032C175.457 117.535 175.786 116.872 175.786 116.043V108.915C175.786 108.086 175.622 107.423 175.128 106.925C174.8 106.428 174.306 106.262 173.648 106.262C172.991 106.262 172.497 106.428 172.169 106.925C171.84 107.423 171.511 108.086 171.511 108.915V116.043C171.675 116.872 171.84 117.535 172.169 118.032Z" fill="white"/>
    <path d="M185.817 106.262C186.31 106.925 186.639 107.754 186.639 108.915V116.043C186.639 117.203 186.31 118.032 185.817 118.695C185.324 119.358 184.666 119.69 183.679 119.69C183.186 119.69 182.693 119.524 182.364 119.358C181.87 119.193 181.542 118.861 181.213 118.364V124H180.062V105.433H180.884L181.213 106.594C181.87 105.765 182.693 105.268 183.844 105.268C184.666 105.268 185.324 105.599 185.817 106.262ZM185.488 109.08C185.488 108.252 185.324 107.423 184.995 106.925C184.666 106.428 184.173 106.262 183.515 106.262C182.857 106.262 182.364 106.428 182.035 106.925C181.542 107.423 181.377 107.92 181.377 108.583V116.043C181.377 116.872 181.706 117.369 182.199 117.867C182.693 118.364 183.186 118.53 183.679 118.53C184.337 118.53 184.83 118.364 184.995 117.867C185.324 117.369 185.488 116.706 185.488 115.711V109.08Z" fill="white"/>
    <path d="M196.177 105.433V119.524H195.026V108.417L190.75 119.524H189.599V105.433H190.75V116.706L195.026 105.433H196.177Z" fill="white"/>
    <path d="M205.385 105.433V119.524H204.234V113.888H202.59L200.288 119.524H198.972L201.439 113.722C199.959 113.39 199.301 112.396 199.301 110.738V108.749C199.301 106.594 200.452 105.599 202.754 105.599H205.385V105.433ZM204.234 106.594H202.59C201.768 106.594 201.274 106.759 200.946 107.091C200.617 107.422 200.452 107.92 200.452 108.749V110.738C200.452 111.401 200.617 112.064 200.946 112.396C201.274 112.727 201.932 112.893 202.59 112.893H204.234V106.594Z" fill="white"/>
    <path d="M221.829 103.941C222.652 104.936 223.145 106.096 223.145 107.588V112.727C223.145 114.219 222.652 115.546 221.829 116.374C221.007 117.203 219.856 117.866 218.376 117.866V120.021H217.225V117.866C215.745 117.701 214.594 117.203 213.772 116.374C212.95 115.546 212.456 114.219 212.456 112.727V107.588C212.456 106.096 212.95 104.77 213.772 103.941C214.594 103.112 215.745 102.449 217.225 102.449V100.792H218.376V102.449C219.856 102.449 221.007 102.947 221.829 103.941ZM214.594 115.711C215.252 116.374 216.074 116.872 217.225 117.037V103.444C216.074 103.61 215.252 103.941 214.594 104.77C213.936 105.433 213.607 106.428 213.607 107.754V112.727C213.772 113.888 213.936 114.882 214.594 115.711ZM221.994 107.588C221.994 106.262 221.665 105.267 221.007 104.604C220.349 103.941 219.527 103.444 218.376 103.278V116.872C219.527 116.706 220.349 116.374 221.007 115.546C221.665 114.882 221.994 113.888 221.994 112.562V107.588Z" fill="white"/>
    <path d="M232.025 105.433L228.078 124H226.927L228.078 118.529L224.789 105.433H226.105L228.571 116.54L230.709 105.433H232.025Z" fill="white"/>
    <path d="M239.753 119.524H238.602V106.428H235.642C235.478 108.749 235.478 110.738 235.313 112.727C235.149 114.551 234.985 115.877 234.985 116.706C234.82 117.701 234.491 118.53 234.162 118.861C233.833 119.358 233.176 119.524 232.518 119.524V118.53C232.847 118.53 233.176 118.364 233.34 118.032C233.505 117.701 233.669 117.203 233.833 116.54C233.998 115.711 234.162 114.054 234.327 111.899C234.491 109.744 234.491 107.588 234.656 105.599H239.753V119.524Z" fill="white"/>
    <path d="M251.264 106.76C252.086 107.589 252.415 108.749 252.415 110.075V114.883C252.415 116.209 252.086 117.369 251.264 118.198C250.442 119.027 249.455 119.524 248.14 119.69V124H246.989V119.69C245.673 119.524 244.687 119.027 243.864 118.198C243.042 117.369 242.713 116.209 242.713 114.883V110.075C242.713 108.749 243.042 107.589 243.864 106.76C244.687 105.931 245.673 105.433 246.989 105.268V101.289H248.14V105.268C249.455 105.433 250.442 105.931 251.264 106.76ZM244.687 117.535C245.18 118.198 246.002 118.53 246.989 118.695V106.428C246.002 106.594 245.344 106.925 244.687 107.589C244.193 108.252 243.864 109.081 243.864 110.241V114.883C243.864 116.043 244.193 116.872 244.687 117.535ZM251.264 110.241C251.264 109.081 250.935 108.252 250.442 107.589C249.949 106.925 249.126 106.594 248.14 106.428V118.695C249.126 118.53 249.784 118.198 250.442 117.535C250.935 116.872 251.264 116.043 251.264 114.883V110.241Z" fill="white"/>
    <path d="M261.953 105.433V119.524H260.802V108.417L256.526 119.524H255.375V105.433H256.526V116.706L260.802 105.433H261.953Z" fill="white"/>
    <path d="M271.161 119.524H270.01V106.428H267.05C266.886 108.749 266.886 110.738 266.721 112.727C266.557 114.551 266.393 115.877 266.393 116.706C266.228 117.701 265.899 118.53 265.57 118.861C265.241 119.358 264.584 119.524 263.926 119.524V118.53C264.255 118.53 264.584 118.364 264.748 118.032C264.913 117.701 265.077 117.203 265.241 116.54C265.406 115.711 265.57 114.054 265.735 111.899C265.899 109.744 265.899 107.588 266.064 105.599H271.161V119.524Z" fill="white"/>
    <path d="M283.494 105.433V119.524H282.343V108.583L279.219 116.706H278.89L275.766 108.583V119.524H274.615V105.433H275.766L279.054 114.385L282.343 105.433H283.494Z" fill="white"/>
    <path d="M286.619 108.915C286.619 107.754 286.948 106.925 287.605 106.262C288.263 105.599 288.921 105.268 289.907 105.268C290.894 105.268 291.552 105.599 292.21 106.262C292.867 106.925 293.196 107.754 293.196 108.915V112.727H287.77V116.043C287.77 116.872 287.934 117.535 288.263 118.032C288.592 118.53 289.085 118.695 289.743 118.695C290.401 118.695 290.894 118.53 291.223 118.032C291.552 117.535 291.716 116.872 291.716 116.043V115.38H292.867V116.043C292.867 117.203 292.539 118.032 291.881 118.695C291.223 119.358 290.565 119.69 289.579 119.69C288.592 119.69 287.934 119.358 287.276 118.695C286.619 118.032 286.29 117.203 286.29 116.043V108.915H286.619ZM291.881 111.733V109.08C291.881 108.252 291.716 107.588 291.223 107.091C290.73 106.594 290.401 106.428 289.743 106.428C289.085 106.428 288.592 106.594 288.263 107.091C287.934 107.588 287.77 108.252 287.77 109.08V111.733H291.881Z" fill="white"/>
    <path d="M295.992 105.433H297.143V111.733H301.089V105.433H302.24V119.524H301.089V112.727H297.143V119.524H295.992V105.433Z" fill="white"/>
    <path d="M304.214 105.433H310.791V106.428H308.16V119.524H307.009V106.428H304.214V105.433Z" fill="white"/>
    <path d="M317.533 106.262C318.191 106.925 318.356 107.754 318.356 108.915V119.524H317.533L317.204 118.364C316.547 119.358 315.725 119.856 314.738 119.856C313.916 119.856 313.258 119.524 312.765 118.861C312.271 118.198 311.942 117.369 311.942 116.209V115.546C311.942 114.551 312.271 113.556 312.929 112.893C313.587 112.23 314.245 111.899 315.231 111.899H317.204V109.08C317.204 108.252 317.04 107.588 316.711 107.091C316.382 106.594 315.889 106.428 315.396 106.428C314.902 106.428 314.409 106.594 314.08 107.091C313.751 107.588 313.587 108.252 313.587 109.08V109.744H312.436V109.08C312.436 107.92 312.765 107.091 313.258 106.428C313.916 105.765 314.573 105.433 315.396 105.433C316.218 105.268 317.04 105.599 317.533 106.262ZM316.547 118.032C316.876 117.535 317.204 116.872 317.369 116.209V112.893H315.396C314.738 112.893 314.245 113.059 313.916 113.556C313.587 114.054 313.422 114.717 313.422 115.546V116.043C313.422 116.872 313.587 117.535 313.916 118.032C314.245 118.53 314.738 118.695 315.231 118.695C315.56 118.695 316.218 118.53 316.547 118.032Z" fill="white"/>
    <path d="M105.899 11.7705H134.676V20.2251H114.943V44.9256H130.73V53.3801H114.943V90.1823H105.735V11.7705H105.899Z" fill="white"/>
    <path d="M172.826 90.5136H166.578L164.933 86.2035H164.604C161.644 89.6848 158.027 91.5083 153.916 91.5083C149.805 91.5083 146.516 90.0163 144.049 87.0324C141.583 84.0484 140.267 80.0698 140.267 74.9308V29.8398H149.476V73.6046C149.476 76.5885 150.134 78.9094 151.285 80.4013C152.436 82.0591 154.08 82.7222 156.053 82.7222C158.191 82.7222 159.836 81.8933 161.316 80.2356C162.631 78.5778 163.453 76.4227 163.782 73.9361V29.8398H172.991V90.5136H172.826Z" fill="white"/>
    <path d="M185.817 10.6099H195.026V90.3478H185.817V10.6099Z" fill="white"/>
    <path d="M237.944 81.8933V90.3478H209.003V10.6099H218.212V81.8933H237.944Z" fill="white"/>
    <path d="M270.339 33.8185C273.299 37.134 274.615 41.2784 274.615 46.5832V90.5137H268.366L266.722 86.2035H266.393C263.433 89.6848 259.979 91.5083 255.868 91.5083C251.922 91.5083 248.633 90.0163 246.167 87.0324C243.7 84.0484 242.384 80.0698 242.384 75.0965V72.6099C242.384 67.4709 243.864 63.3265 246.989 60.011C250.113 56.6955 254.06 55.0377 258.828 55.0377H265.406V46.9147C265.406 43.9308 264.913 41.6099 263.762 39.9522C262.611 38.2944 261.131 37.4655 259.157 37.4655C257.184 37.4655 255.704 38.2944 254.553 39.9522C253.402 41.6099 252.744 43.9308 252.744 46.9147V48.904H243.535V46.4174C243.535 41.1126 245.015 36.9682 247.811 33.6527C250.771 30.3372 254.389 28.8452 258.993 28.8452C263.762 28.8452 267.379 30.503 270.339 33.8185ZM263.104 80.4014C264.419 78.7436 265.242 76.5885 265.406 74.1019V63.6581H258.828C256.526 63.6581 254.717 64.4869 253.402 66.1447C252.086 67.8024 251.429 69.9575 251.429 72.9415V74.1019C251.429 76.9201 252.086 79.2409 253.237 80.7329C254.389 82.2249 256.033 83.0538 257.842 83.0538C260.144 82.888 261.788 82.0591 263.104 80.4014Z" fill="white"/>
    <path d="M316.218 33.4869C318.685 36.4708 320 40.4494 320 45.5885V74.9307C320 79.904 318.685 83.8826 316.218 87.0323C313.751 90.0163 310.463 91.5083 306.352 91.5083C301.912 91.5083 298.294 89.6847 295.498 86.2034H295.005L293.361 90.5136H287.112V10.6099H296.321V32.658C299.116 30.0056 302.405 28.8452 306.187 28.8452C310.463 28.8452 313.751 30.3371 316.218 33.4869ZM310.956 46.5831C310.956 43.5992 310.298 41.2783 309.147 39.7863C307.996 38.1286 306.352 37.4655 304.378 37.4655C302.241 37.4655 300.432 38.2944 298.952 39.7863C297.636 41.2783 296.814 43.4334 296.485 45.92V74.1018C296.65 76.7542 297.472 78.7435 298.952 80.4013C300.432 82.0591 302.241 82.8879 304.378 82.8879C306.352 82.8879 307.831 82.0591 309.147 80.5671C310.298 78.9093 310.956 76.7542 310.956 73.7703V46.5831Z" fill="white"/>
    <path d="M43.9055 0L0 25.5294V76.5882L43.9055 102.118L87.8109 76.5882V25.5294L43.9055 0ZM5.42652 28.6791L43.9055 6.46524L82.2199 28.6791L43.9055 51.0588V95.6524L5.42652 73.2727V28.6791Z" fill="white"/>
    <path d="M8.71533 60.1765C8.71533 57.0267 8.71533 53.7112 8.71533 50.5615C8.71533 49.5668 9.53753 49.4011 10.3597 50.2299C10.8531 50.7273 11.0175 51.2246 11.1819 51.7219C11.1819 51.8877 11.1819 51.8877 11.1819 52.0535C11.1819 58.3529 11.1819 64.4866 11.1819 70.7861C11.1819 70.9519 11.1819 71.1176 11.1819 71.2834C11.0175 71.7807 10.5242 71.9465 9.86641 71.4492C9.20865 70.9519 8.71533 70.2888 8.71533 69.6257C8.71533 67.4706 8.71533 65.3155 8.71533 63.3262C8.71533 62.3315 8.71533 61.1711 8.71533 60.1765Z" fill="white"/>
    <path d="M20.8839 67.1392C20.8839 70.2889 20.8839 73.4386 20.8839 76.5884C20.8839 76.7542 20.8839 76.9199 20.8839 77.0857C20.7195 77.583 20.2261 77.583 19.5684 77.2515C18.9106 76.9199 18.5817 76.091 18.4173 75.4279C18.4173 75.2622 18.4173 75.2622 18.4173 75.0964C18.4173 68.7969 18.4173 62.4975 18.4173 56.3638C18.4173 56.198 18.4173 56.0322 18.4173 55.8665C18.5817 55.3691 19.0751 55.2033 19.7328 55.7007C20.3906 56.198 20.8839 56.8611 20.8839 57.5242C20.8839 59.8451 20.8839 62.1659 20.8839 64.4868C20.8839 65.3157 20.8839 66.3103 20.8839 67.1392Z" fill="white"/>
    <path d="M37.8212 76.9197C37.8212 73.77 37.8212 70.6203 37.8212 67.3047C37.8212 66.3101 38.6434 66.3101 39.4656 67.139C39.9589 67.6363 40.2878 68.1336 40.2878 68.7967C40.2878 69.4598 40.2878 70.1229 40.2878 70.6203C40.2878 76.4224 40.2878 82.0588 40.2878 87.8609C40.2878 88.0267 40.2878 88.1924 40.2878 88.3582C40.1233 88.8555 39.63 89.0213 38.9722 88.524C38.3145 88.0267 37.8212 87.3636 37.8212 86.7005C37.8212 83.8823 37.8212 81.2299 37.8212 78.4117C37.8212 77.9144 37.8212 77.4171 37.8212 76.9197Z" fill="white"/>
    <path d="M15.9507 61.0054C15.9507 63.1605 15.9507 65.3155 15.9507 67.3048C15.9507 68.2995 15.1285 68.2995 14.3063 67.4706C13.8129 66.9733 13.6485 66.476 13.6485 65.8129C13.6485 64.1551 13.6485 62.6631 13.6485 61.0054C13.6485 58.353 13.6485 55.8663 13.6485 53.2139C13.6485 52.2193 14.6351 52.2193 15.4573 53.0482C15.9507 53.5455 16.1151 54.0428 16.1151 54.7059C15.9507 56.861 15.9507 59.0161 15.9507 61.0054Z" fill="white"/>
    <path d="M23.186 65.3156C23.186 63.1606 23.186 61.1713 23.186 59.0162C23.186 58.0215 24.1727 58.0215 24.9949 58.8504C25.4882 59.3477 25.6526 60.0108 25.6526 60.5082C25.6526 63.4921 25.6526 66.3103 25.6526 69.2942C25.6526 70.6205 25.6526 71.7809 25.6526 73.1071C25.6526 73.936 25.1593 74.2675 24.5016 73.7702C23.8438 73.2729 23.3505 72.444 23.3505 71.7809C23.186 69.46 23.186 67.3049 23.186 65.3156Z" fill="white"/>
    <path d="M30.4214 69.4597C30.4214 71.6148 30.4214 73.6041 30.4214 75.7592C30.4214 76.7538 29.5992 76.7538 28.777 75.9249C28.2837 75.4276 28.1193 74.7645 28.1193 74.2672C28.1193 71.6148 28.1193 68.7966 28.1193 66.1442C28.1193 64.6522 28.1193 63.1602 28.1193 61.6683C28.1193 60.8394 28.6126 60.5078 29.2703 61.0052C29.9281 61.5025 30.4214 62.3314 30.4214 63.1602C30.5859 65.3153 30.4214 67.4704 30.4214 69.4597Z" fill="white"/>
    <path d="M32.888 70.9521C32.888 68.797 32.888 66.8077 32.888 64.6526C32.888 63.8238 33.3813 63.4922 34.0391 63.9895C34.6968 64.4869 35.1901 65.3157 35.1901 66.1446C35.1901 70.289 35.1901 74.4334 35.1901 78.7435C35.1901 79.7382 34.3679 79.904 33.5457 79.0751C33.0524 78.5778 32.7236 77.9147 32.888 77.4173C32.888 75.0965 32.888 72.9414 32.888 70.9521Z" fill="white"/>
    <path d="M13.6485 71.7808C13.6485 71.615 13.6485 71.2835 13.6485 71.1177C13.6485 70.4546 14.1418 70.2888 14.7996 70.6204C15.4573 70.9519 15.9507 71.7808 15.9507 72.4439C15.9507 72.9412 15.9507 73.4385 15.9507 73.9359C15.9507 74.599 15.4573 74.7648 14.7996 74.4332C14.1418 74.1017 13.6485 73.2728 13.6485 72.6097C13.6485 72.2781 13.6485 72.1123 13.6485 71.7808Z" fill="white"/>
    <path d="M23.186 77.5828C23.186 77.2512 23.186 77.0855 23.186 76.7539C23.186 76.0908 23.6794 75.925 24.3371 76.2566C24.9949 76.5881 25.4882 77.417 25.4882 78.0801C25.4882 78.5774 25.4882 79.0748 25.4882 79.7379C25.4882 80.401 24.8304 80.5668 24.3371 80.2352C23.6794 79.9037 23.186 79.0748 23.186 78.4117C23.186 78.0801 23.186 77.7486 23.186 77.5828Z" fill="white"/>
    <path d="M30.4214 81.7274C30.4214 81.8931 30.4214 82.2247 30.4214 82.3905C30.4214 83.0536 29.9281 83.2193 29.2703 82.8878C28.6126 82.5562 28.1193 81.7274 28.1193 81.0643C28.1193 80.5669 28.1193 80.0696 28.1193 79.5723C28.1193 78.9092 28.6126 78.7434 29.2703 79.075C29.9281 79.4065 30.4214 80.2354 30.4214 80.8985C30.5859 81.23 30.4214 81.5616 30.4214 81.7274Z" fill="white"/>
    <path d="M35.3546 84.5452C35.3546 84.711 35.3546 85.0426 35.3546 85.2083C35.3546 85.8714 34.8613 86.0372 34.2035 85.7057C33.5458 85.3741 32.888 84.5452 32.888 83.8821C32.888 83.3848 32.888 82.8875 32.888 82.3902C32.888 81.727 33.3813 81.5613 34.0391 81.8928C34.6968 82.2244 35.1902 83.0533 35.1902 83.7164C35.3546 84.0479 35.3546 84.2137 35.3546 84.5452Z" fill="white"/>
  </g>
  <defs>
    <clipPath id="clip0_310_544">
      <rect width="320" height="124" fill="white"/>
    </clipPath>
  </defs>
</svg>
