<svg xmlns="http://www.w3.org/2000/svg" width="37" height="26" viewBox="0 0 37 26" fill="none">
  <g clip-path="url(#clip0_310_526)">
    <path d="M37 21.3969C36.9038 21.733 36.8291 22.0792 36.7115 22.4153C35.9316 24.6049 33.9336 25.9797 31.4334 25.9797C22.8111 25.9899 14.1889 26.0001 5.56656 25.9797C2.83136 25.9696 0.705169 24.3299 0.128213 21.845C0.0427375 21.4886 0.0106844 21.1219 0.0106844 20.7553C0 16.3761 0 11.9868 0 7.59745C0 7.52616 0.0106844 7.46505 0.0106844 7.35303C0.160266 7.4345 0.277794 7.49561 0.406006 7.56689C5.98325 10.8156 11.5605 14.0542 17.1271 17.3131C18.0566 17.8528 18.9007 17.8528 19.8302 17.3131C25.4288 14.044 31.0488 10.7953 36.6581 7.53634C36.7756 7.47524 36.8825 7.41413 37 7.35303C37 12.0275 37 16.7122 37 21.3969Z" fill="#18325B"/>
    <path d="M18.5267 0C22.7898 0 27.0528 0 31.3159 0C33.5276 0 35.205 0.906385 36.2948 2.74971C36.4765 3.05523 36.5726 3.40149 36.7222 3.72738C36.8397 3.98198 36.7649 4.12456 36.5085 4.27732C32.7369 6.4669 28.9653 8.65648 25.2044 10.8562C23.0676 12.0987 20.9307 13.3412 18.8045 14.5938C18.6015 14.716 18.4626 14.7262 18.2596 14.604C12.3298 11.1414 6.39992 7.69918 0.470095 4.26714C0.224354 4.12456 0.192301 3.99217 0.267091 3.74775C0.950892 1.48688 3.0664 0.0101841 5.67339 0C9.95782 0 14.2423 0 18.5267 0Z" fill="#18325B"/>
  </g>
  <defs>
    <clipPath id="clip0_310_526">
      <rect width="37" height="26" fill="white"/>
    </clipPath>
  </defs>
</svg>
