<svg xmlns="http://www.w3.org/2000/svg" width="39" height="39" viewBox="0 0 39 39" fill="none">
  <path d="M0.949158 9.5565C1.05349 9.2913 1.16825 8.92003 1.34561 8.59119C2.39934 6.64997 3.72433 4.9103 5.20581 3.28732C6.08218 2.33262 7.04201 1.45218 8.01228 0.60356C9.3477 -0.563291 10.6936 0.158035 11.3717 1.11273C13.1244 3.55251 14.752 6.06655 15.9935 8.81395C16.1813 9.21705 16.3169 9.65197 16.4421 10.0763C16.6716 10.8188 16.536 11.5189 16.0144 12.0705C15.4197 12.707 14.7624 13.301 14.1051 13.8845C13.2392 14.6588 13.2183 14.6482 13.6669 15.7196C15.6179 20.3552 18.9043 23.5905 23.5261 25.4257C23.9226 25.5848 24.1625 25.553 24.4442 25.2029C24.9971 24.4922 25.6023 23.8133 26.2178 23.145C26.9898 22.2964 27.9392 22.0312 28.9825 22.5192C30.318 23.145 31.6429 23.7815 32.9053 24.5452C34.3973 25.4469 35.8266 26.4758 37.2663 27.4624C37.861 27.8655 38.2157 28.4595 38.3931 29.1702C38.4974 29.5839 38.4661 29.9658 38.2575 30.3158C38.0071 30.7402 37.7462 31.1857 37.4332 31.557C35.378 33.9649 32.9471 35.9061 30.2971 37.614C29.3686 38.208 28.4505 38.1019 27.4906 37.911C24.1103 37.2321 21.0431 35.7788 18.1844 33.8907C12.2585 29.9658 7.4802 24.9271 3.99558 18.6579C2.69146 16.3136 1.70033 13.8314 1.19955 11.1689C1.09522 10.6703 1.04305 10.1717 0.949158 9.5565Z" fill="#18325B"/>
</svg>
