<svg xmlns="http://www.w3.org/2000/svg" width="30" height="45" viewBox="0 0 30 45" fill="none">
  <path d="M14.9256 44.9998C13.8276 43.1676 12.7545 41.4145 11.7188 39.6501C8.64926 34.4135 5.70449 29.1203 3.23387 23.6236C2.27308 21.4747 1.38715 19.3144 0.825649 17.0524C0.0520231 13.9873 0.626004 11.0806 2.33547 8.41139C5.25528 3.83077 9.73483 1.55742 15.562 1.67053C22.3998 1.80625 28.3518 6.76011 29.2627 12.9128C29.5996 15.1862 29.1004 17.3125 28.3518 19.4275C26.8669 23.5897 24.9079 27.5822 22.7492 31.4842C20.3036 35.8725 17.7331 40.2043 15.2251 44.5587C15.1502 44.6832 15.0629 44.7963 14.9256 44.9998ZM14.9755 6.975C10.2215 6.96369 6.36581 10.4246 6.35333 14.6999C6.34086 19.0317 10.184 22.5491 14.9506 22.5604C19.6797 22.5604 23.5353 19.0769 23.5478 14.8016C23.5603 10.4698 19.7421 6.98631 14.9755 6.975Z" fill="#18325B"/>
</svg>
