<svg width="220" height="220" viewBox="0 0 220 220" fill="none" xmlns="http://www.w3.org/2000/svg">
  <g opacity="0.8" clip-path="url(#clip0_1411_7050)">
    <path d="M123.844 0.71548L123.159 8.5551L122.362 8.48355L122.914 2.20777L119.369 7.21613L118.981 7.18547L116.365 1.67627L115.813 7.91117L115.017 7.83962L115.701 0L116.386 0.0613269L119.277 6.17357L123.159 0.654153L123.844 0.71548Z" fill="white"/>
    <path d="M126.428 8.25848C125.968 7.58389 125.845 6.69465 126.05 5.59076L126.867 1.15479L127.684 1.3081L126.877 5.71342C126.714 6.61288 126.795 7.31814 127.112 7.83942C127.439 8.36069 127.98 8.68777 128.747 8.82065C129.523 8.96374 130.146 8.85131 130.637 8.48335C131.127 8.11539 131.444 7.48168 131.618 6.58222L132.425 2.1769L133.221 2.32L132.404 6.75597C132.2 7.85986 131.771 8.63667 131.107 9.11706C130.443 9.58723 129.615 9.73033 128.614 9.54635C127.613 9.36237 126.887 8.93308 126.428 8.25848Z" fill="white"/>
    <path d="M134.622 10.5483C134.152 10.2314 133.815 9.88393 133.61 9.51597L134.091 8.98447C134.295 9.33199 134.601 9.64884 135.01 9.94526C135.419 10.2417 135.868 10.4461 136.359 10.579C137.043 10.7629 137.585 10.7732 137.993 10.6096C138.402 10.4461 138.657 10.1701 138.759 9.7715C138.841 9.46486 138.811 9.19911 138.678 8.97425C138.545 8.73916 138.351 8.54496 138.106 8.38142C137.86 8.20766 137.523 8.00324 137.074 7.76815C136.542 7.47174 136.124 7.21621 135.817 6.99135C135.511 6.76648 135.276 6.48029 135.102 6.14299C134.928 5.80569 134.908 5.39685 135.03 4.92667C135.133 4.53827 135.327 4.22141 135.613 3.95566C135.899 3.68991 136.277 3.52638 136.747 3.44461C137.217 3.36284 137.768 3.41394 138.381 3.57748C138.821 3.68991 139.229 3.86367 139.607 4.08854C139.985 4.3134 140.312 4.57915 140.558 4.86535L140.118 5.43773C139.853 5.14132 139.556 4.89601 139.219 4.69159C138.882 4.48716 138.545 4.34407 138.198 4.25208C137.533 4.07832 136.992 4.0681 136.594 4.24186C136.185 4.41562 135.929 4.70181 135.827 5.10043C135.746 5.40707 135.776 5.67282 135.909 5.9079C136.042 6.14299 136.236 6.34741 136.491 6.51095C136.747 6.68471 137.094 6.88913 137.533 7.12422C138.054 7.41041 138.473 7.66594 138.78 7.89081C139.086 8.11567 139.332 8.39164 139.495 8.72894C139.658 9.06624 139.689 9.46486 139.567 9.92481C139.464 10.3132 139.27 10.6301 138.984 10.8958C138.698 11.1616 138.31 11.3251 137.84 11.3967C137.36 11.4682 136.818 11.4273 136.195 11.2536C135.633 11.1002 135.112 10.8652 134.642 10.5483H134.622Z" fill="white"/>
    <path d="M144.235 6.11218L141.609 5.23316L141.834 4.54834L147.872 6.56191L147.647 7.24672L145.022 6.3677L142.764 13.1545L141.977 12.8888L144.235 6.10195V6.11218Z" fill="white"/>
    <path d="M151.53 14.2586L147.474 12.6027L145.809 14.187L145.012 13.8599L151.315 7.94189L152.071 8.24853L152.419 16.8956L151.612 16.5583L151.53 14.2586ZM151.499 13.5226L151.356 8.89246L148.005 12.0917L151.499 13.5226Z" fill="white"/>
    <path d="M162.891 13.3796L159.315 20.3913L158.702 20.0847L157.098 12.102L154.197 17.7952L153.461 17.417L157.037 10.4053L157.65 10.7119L159.264 18.7048L162.165 13.0117L162.901 13.3898L162.891 13.3796Z" fill="white"/>
    <path d="M168.193 21.1782L168.867 21.5972L167.284 24.1423C166.803 24.2241 166.303 24.2036 165.782 24.081C165.261 23.9583 164.77 23.7539 164.3 23.4575C163.636 23.0384 163.126 22.5171 162.768 21.8936C162.41 21.2702 162.247 20.6058 162.267 19.8903C162.288 19.1748 162.492 18.5104 162.891 17.8665C163.289 17.2226 163.8 16.7422 164.433 16.4151C165.067 16.088 165.731 15.9449 166.446 15.9858C167.161 16.0267 167.856 16.2516 168.53 16.6809C169.041 16.9977 169.46 17.3657 169.776 17.795C170.103 18.2242 170.308 18.6842 170.41 19.185L169.695 19.3588C169.49 18.5104 168.98 17.8256 168.172 17.3248C167.631 16.9875 167.069 16.8035 166.487 16.7728C165.904 16.7422 165.353 16.8546 164.842 17.1306C164.331 17.3963 163.912 17.795 163.585 18.3162C163.258 18.8375 163.095 19.3895 163.074 19.9618C163.064 20.5342 163.197 21.076 163.473 21.587C163.759 22.0981 164.168 22.5274 164.709 22.8544C165.394 23.2837 166.088 23.4779 166.773 23.4268L168.172 21.1782H168.193Z" fill="white"/>
    <path d="M179.523 25.5326C179.676 26.2583 179.492 26.9533 178.971 27.6177C178.45 28.2821 177.827 28.6194 177.081 28.6398C176.335 28.6602 175.569 28.3638 174.782 27.7403L173.117 26.432L171.585 28.3843L170.931 27.8732L175.794 21.6792L178.113 23.4986C178.899 24.1221 179.369 24.7966 179.523 25.5224V25.5326ZM176.938 27.8528C177.469 27.8426 177.929 27.587 178.317 27.0964C178.705 26.5956 178.848 26.0845 178.736 25.5632C178.624 25.042 178.256 24.5411 177.643 24.0607L175.998 22.7729L173.566 25.8699L175.211 27.1577C175.824 27.6381 176.396 27.8732 176.928 27.863L176.938 27.8528Z" fill="white"/>
    <path d="M180.994 36.418L181.382 33.3415C181.219 33.2188 181.055 33.0859 180.892 32.9428L179.339 31.5119L177.653 33.3517L177.04 32.7895L182.353 26.9941L184.518 28.9873C185.254 29.6619 185.673 30.3773 185.775 31.1133C185.877 31.8492 185.632 32.534 185.07 33.1473C184.651 33.597 184.192 33.873 183.67 33.9752C183.16 34.0774 182.618 34.0058 182.067 33.7503L181.658 37.0415L180.984 36.4283L180.994 36.418ZM183.017 33.229C183.558 33.2495 184.028 33.0348 184.447 32.5749C184.876 32.1047 185.06 31.6039 184.988 31.0724C184.917 30.5409 184.59 30.0094 184.018 29.4881L182.475 28.0776L179.809 30.9804L181.351 32.3909C181.923 32.9224 182.485 33.1984 183.017 33.2188V33.229Z" fill="white"/>
    <path d="M184.089 38.8917C183.915 38.1864 183.936 37.5016 184.14 36.827C184.345 36.1524 184.723 35.5596 185.284 35.0485C185.836 34.5374 186.459 34.2002 187.154 34.0571C187.849 33.914 188.523 33.9446 189.218 34.1797C189.913 34.4148 190.505 34.8134 191.036 35.3858C191.568 35.9582 191.915 36.5919 192.089 37.2869C192.262 37.982 192.242 38.6668 192.038 39.3414C191.833 40.016 191.455 40.619 190.893 41.1301C190.342 41.6411 189.708 41.9784 189.024 42.1215C188.329 42.2749 187.644 42.234 186.97 42.0091C186.296 41.7842 185.693 41.3856 185.162 40.8132C184.631 40.2408 184.283 39.6071 184.11 38.9019L184.089 38.8917ZM187.144 41.2527C187.696 41.4265 188.247 41.4572 188.799 41.3243C189.361 41.1914 189.861 40.9257 190.311 40.5066C190.76 40.0875 191.077 39.6071 191.251 39.0552C191.425 38.5033 191.445 37.9513 191.312 37.3994C191.179 36.8372 190.903 36.3261 190.474 35.8764C190.056 35.4165 189.565 35.0996 189.024 34.9156C188.482 34.7317 187.92 34.701 187.358 34.8339C186.797 34.9667 186.286 35.2325 185.836 35.6516C185.387 36.0706 185.07 36.551 184.906 37.103C184.733 37.6549 184.723 38.2068 184.855 38.769C184.988 39.3312 185.274 39.8422 185.693 40.3022C186.112 40.7621 186.602 41.079 187.144 41.2527Z" fill="white"/>
    <path d="M195.185 41.3856L192.753 43.297L195.266 46.4962L194.704 46.9357L192.191 43.7365L189.566 45.8012L189.055 45.147L195.246 40.2817L198.576 44.5235L198.014 44.963L195.195 41.3754L195.185 41.3856Z" fill="white"/>
    <path d="M197.013 54.8976L196.421 55.2963L193.305 50.6865L199.813 46.271L202.837 50.7376L202.244 51.1363L199.68 47.3544L197.361 48.9285L199.639 52.3015L199.057 52.7001L196.778 49.3271L194.357 50.9625L197.013 54.8772V54.8976Z" fill="white"/>
    <path d="M197.789 57.177C197.687 56.6251 197.687 56.1345 197.81 55.7256L198.525 55.6847C198.423 56.0731 198.412 56.5126 198.494 57.0135C198.576 57.5143 198.749 57.9743 199.005 58.4138C199.362 59.0271 199.74 59.4155 200.139 59.5892C200.537 59.763 200.915 59.7528 201.273 59.5381C201.549 59.3746 201.712 59.1701 201.784 58.9146C201.855 58.6591 201.855 58.3831 201.804 58.0867C201.753 57.7903 201.651 57.4019 201.508 56.9215C201.344 56.3389 201.232 55.8585 201.171 55.4803C201.109 55.1021 201.14 54.7444 201.263 54.3764C201.385 54.0085 201.651 53.7121 202.07 53.4667C202.417 53.2623 202.775 53.1703 203.163 53.1908C203.551 53.2112 203.939 53.3543 204.328 53.6303C204.716 53.9063 205.073 54.3253 205.39 54.8875C205.615 55.2759 205.789 55.6847 205.891 56.1242C206.003 56.5535 206.044 56.9624 206.013 57.3508L205.298 57.4428C205.319 57.0441 205.288 56.666 205.186 56.2878C205.094 55.9096 204.951 55.5621 204.777 55.2554C204.43 54.6626 204.052 54.2742 203.653 54.1107C203.255 53.9471 202.867 53.9676 202.499 54.172C202.223 54.3355 202.06 54.54 201.988 54.8057C201.917 55.0612 201.917 55.3474 201.968 55.6438C202.029 55.9403 202.121 56.3389 202.264 56.8193C202.427 57.3917 202.54 57.8618 202.601 58.24C202.662 58.6182 202.632 58.9862 202.509 59.3439C202.386 59.7016 202.121 59.9981 201.712 60.2434C201.365 60.4478 201.007 60.5296 200.619 60.5091C200.231 60.4887 199.843 60.3354 199.454 60.0492C199.066 59.763 198.709 59.3439 198.392 58.7817C198.096 58.2707 197.901 57.7494 197.789 57.1872V57.177Z" fill="white"/>
    <path d="M201.11 63.1257C201.038 62.5636 201.079 62.0832 201.222 61.6845H201.937C201.804 62.0729 201.774 62.5125 201.825 63.0133C201.876 63.5141 202.009 63.9945 202.233 64.4442C202.55 65.078 202.898 65.497 203.286 65.6912C203.674 65.8956 204.052 65.9059 204.42 65.7219C204.706 65.5788 204.88 65.3846 204.971 65.1291C205.053 64.8735 205.084 64.5976 205.043 64.3114C205.012 64.015 204.941 63.6266 204.828 63.1257C204.696 62.5329 204.614 62.0423 204.583 61.6641C204.553 61.2859 204.604 60.918 204.747 60.5704C204.89 60.2229 205.186 59.9367 205.615 59.7221C205.973 59.5483 206.34 59.4768 206.729 59.5279C207.117 59.5688 207.495 59.7425 207.852 60.0492C208.22 60.3558 208.547 60.7953 208.833 61.3677C209.038 61.7663 209.17 62.1956 209.252 62.6351C209.334 63.0746 209.344 63.4835 209.293 63.8616L208.578 63.9025C208.629 63.5141 208.619 63.1257 208.547 62.7373C208.476 62.3489 208.363 62.0014 208.2 61.6743C207.893 61.061 207.546 60.6522 207.148 60.458C206.759 60.2638 206.371 60.2638 205.993 60.4478C205.707 60.5909 205.523 60.7851 205.441 61.0406C205.36 61.2961 205.329 61.5721 205.37 61.8787C205.411 62.1854 205.482 62.584 205.584 63.0644C205.707 63.647 205.799 64.1274 205.83 64.5056C205.86 64.8838 205.809 65.2517 205.666 65.5992C205.523 65.9468 205.237 66.2227 204.808 66.4374C204.45 66.6111 204.083 66.6827 203.694 66.6316C203.306 66.5805 202.928 66.4067 202.56 66.0899C202.193 65.773 201.866 65.3335 201.58 64.7611C201.324 64.2398 201.151 63.6981 201.089 63.1257H201.11Z" fill="white"/>
    <path d="M210.856 65.8242L211.193 66.5908L203.98 69.7287L203.653 68.9621L210.866 65.8242H210.856Z" fill="white"/>
    <path d="M205.83 73.0199C205.943 72.3044 206.218 71.6809 206.668 71.1392C207.117 70.5974 207.7 70.1988 208.405 69.9433C209.12 69.6878 209.815 69.6162 210.509 69.7491C211.204 69.8717 211.817 70.1784 212.359 70.6588C212.9 71.1392 213.309 71.7422 213.574 72.4679C213.84 73.2038 213.911 73.9193 213.809 74.6246C213.697 75.3298 213.421 75.9533 212.961 76.5053C212.512 77.0572 211.929 77.4558 211.214 77.7114C210.499 77.9669 209.794 78.0282 209.099 77.9056C208.405 77.7829 207.782 77.4763 207.25 77.0061C206.709 76.5359 206.31 75.9329 206.045 75.197C205.779 74.461 205.697 73.7456 205.81 73.0301L205.83 73.0199ZM207.73 76.3826C208.17 76.7608 208.67 76.9959 209.232 77.0981C209.794 77.2003 210.366 77.139 210.949 76.9346C211.531 76.7301 212.001 76.4031 212.369 75.9635C212.737 75.524 212.971 75.0232 213.063 74.4508C213.155 73.8784 213.094 73.3061 212.88 72.7234C212.665 72.1408 212.348 71.6604 211.909 71.272C211.47 70.8939 210.969 70.6485 210.407 70.5463C209.845 70.4441 209.273 70.4952 208.691 70.7099C208.119 70.9245 207.639 71.2414 207.271 71.6911C206.903 72.1306 206.668 72.6417 206.576 73.2141C206.484 73.7864 206.545 74.3588 206.76 74.9517C206.974 75.5343 207.301 76.0147 207.73 76.3928V76.3826Z" fill="white"/>
    <path d="M217.293 85.0504L209.681 87.0537L209.508 86.3894L214.391 79.8683L208.22 81.4934L208.006 80.686L215.617 78.6826L215.791 79.347L210.907 85.8783L217.078 84.2531L217.293 85.0504Z" fill="white"/>
    <path d="M213.104 93.9118L212.338 89.5985L210.101 89.0363L209.947 88.188L218.315 90.3651L218.458 91.1726L211.337 96.0889L211.183 95.2304L213.084 93.9323L213.104 93.9118ZM213.717 93.4928L217.548 90.8966L213.063 89.7723L213.717 93.4928Z" fill="white"/>
    <path d="M219.275 96.4468L219.357 97.2747L212.246 98.0208L212.706 102.406L211.991 102.477L211.449 97.2645L219.275 96.4468Z" fill="white"/>
    <path d="M219.265 124.115L211.429 123.41L211.5 122.613L217.773 123.175L212.777 119.618L212.818 119.229L218.335 116.623L212.103 116.061L212.175 115.264L220.01 115.969L219.949 116.654L213.83 119.536L219.336 123.43L219.275 124.115H219.265Z" fill="white"/>
    <path d="M211.715 126.702C212.399 126.252 213.278 126.129 214.381 126.334L218.815 127.162L218.662 127.979L214.269 127.162C213.37 126.998 212.665 127.07 212.144 127.397C211.623 127.724 211.296 128.265 211.153 129.032C211.01 129.809 211.122 130.432 211.49 130.923C211.858 131.414 212.491 131.741 213.39 131.904L217.783 132.722L217.63 133.519L213.196 132.691C212.103 132.487 211.316 132.057 210.847 131.393C210.377 130.729 210.234 129.901 210.417 128.899C210.601 127.897 211.041 127.172 211.715 126.722V126.702Z" fill="white"/>
    <path d="M209.405 134.899C209.722 134.428 210.07 134.091 210.448 133.887L210.979 134.367C210.631 134.572 210.304 134.878 210.018 135.287C209.722 135.696 209.518 136.146 209.385 136.626C209.201 137.311 209.191 137.853 209.354 138.261C209.518 138.67 209.794 138.926 210.192 139.028C210.499 139.11 210.764 139.079 210.989 138.946C211.224 138.813 211.418 138.619 211.592 138.384C211.765 138.149 211.97 137.801 212.215 137.352C212.511 136.82 212.777 136.401 213.002 136.094C213.226 135.788 213.512 135.553 213.85 135.379C214.187 135.205 214.595 135.185 215.065 135.318C215.454 135.42 215.77 135.614 216.036 135.9C216.302 136.186 216.465 136.565 216.536 137.035C216.608 137.505 216.567 138.057 216.404 138.67C216.291 139.099 216.118 139.519 215.883 139.897C215.648 140.285 215.392 140.602 215.096 140.847L214.524 140.408C214.82 140.142 215.065 139.846 215.27 139.508C215.474 139.171 215.617 138.834 215.709 138.486C215.883 137.822 215.893 137.28 215.729 136.882C215.566 136.473 215.28 136.217 214.871 136.115C214.565 136.033 214.299 136.064 214.064 136.197C213.829 136.33 213.625 136.524 213.451 136.779C213.277 137.035 213.073 137.372 212.828 137.822C212.542 138.343 212.286 138.752 212.062 139.069C211.837 139.375 211.551 139.611 211.224 139.784C210.887 139.948 210.488 139.968 210.029 139.846C209.64 139.743 209.324 139.549 209.068 139.253C208.813 138.956 208.639 138.578 208.568 138.098C208.496 137.617 208.547 137.076 208.711 136.452C208.864 135.89 209.099 135.369 209.416 134.899H209.405Z" fill="white"/>
    <path d="M213.809 144.538L214.688 141.921L215.372 142.146L213.339 148.176L212.655 147.951L213.533 145.335L206.76 143.055L207.025 142.268L213.799 144.548L213.809 144.538Z" fill="white"/>
    <path d="M205.646 151.805L207.321 147.747L205.738 146.071L206.064 145.273L211.97 151.6L211.653 152.357L203.01 152.684L203.347 151.876L205.646 151.805ZM206.381 151.784L211.009 151.651L207.822 148.289L206.381 151.784Z" fill="white"/>
    <path d="M206.504 163.14L199.506 159.542L199.823 158.929L207.812 157.344L202.131 154.431L202.509 153.695L209.508 157.293L209.191 157.906L201.202 159.501L206.882 162.414L206.504 163.14Z" fill="white"/>
    <path d="M198.699 168.424L198.28 169.098L195.737 167.504C195.655 167.024 195.675 166.523 195.798 166.001C195.92 165.48 196.125 164.99 196.421 164.519C196.84 163.855 197.361 163.344 197.984 162.996C198.607 162.649 199.282 162.485 199.987 162.496C200.691 162.506 201.366 162.731 202.009 163.129C202.653 163.528 203.133 164.049 203.46 164.673C203.787 165.306 203.93 165.971 203.889 166.686C203.848 167.402 203.613 168.097 203.195 168.771C202.878 169.282 202.5 169.691 202.071 170.018C201.642 170.345 201.182 170.55 200.681 170.642L200.508 169.926C201.356 169.722 202.04 169.221 202.551 168.403C202.888 167.862 203.072 167.3 203.113 166.717C203.143 166.134 203.031 165.582 202.765 165.071C202.5 164.56 202.101 164.141 201.58 163.814C201.059 163.487 200.518 163.313 199.935 163.303C199.353 163.293 198.822 163.426 198.311 163.702C197.8 163.978 197.371 164.397 197.034 164.928C196.605 165.613 196.411 166.298 196.452 166.993L198.699 168.403V168.424Z" fill="white"/>
    <path d="M194.285 179.77C193.56 179.923 192.865 179.729 192.201 179.218C191.547 178.697 191.2 178.063 191.18 177.327C191.159 176.581 191.466 175.824 192.079 175.027L193.386 173.371L191.435 171.828L191.946 171.174L198.117 176.049L196.288 178.359C195.665 179.146 194.99 179.617 194.265 179.77H194.285ZM191.966 177.184C191.977 177.715 192.232 178.175 192.712 178.564C193.213 178.962 193.724 179.095 194.245 178.993C194.766 178.891 195.266 178.523 195.757 177.91L197.054 176.274L193.969 173.831L192.671 175.477C192.191 176.09 191.956 176.663 191.966 177.194V177.184Z" fill="white"/>
    <path d="M183.415 181.201L186.49 181.589C186.612 181.426 186.745 181.262 186.888 181.098L188.319 179.545L186.49 177.848L187.052 177.235L192.834 182.57L190.842 184.737C190.158 185.473 189.453 185.892 188.717 185.984C187.981 186.076 187.297 185.841 186.684 185.269C186.234 184.85 185.959 184.39 185.856 183.868C185.754 183.357 185.836 182.816 186.091 182.264L182.802 181.845L183.415 181.18V181.201ZM186.602 183.235C186.572 183.776 186.796 184.247 187.246 184.676C187.716 185.105 188.216 185.289 188.738 185.218C189.269 185.146 189.8 184.819 190.321 184.247L191.741 182.713L188.84 180.035L187.42 181.569C186.888 182.141 186.612 182.693 186.592 183.235H186.602Z" fill="white"/>
    <path d="M180.922 184.298C181.627 184.124 182.312 184.144 182.986 184.349C183.66 184.553 184.253 184.942 184.764 185.494C185.274 186.056 185.601 186.679 185.755 187.364C185.898 188.049 185.857 188.734 185.632 189.419C185.407 190.103 184.999 190.706 184.426 191.238C183.854 191.769 183.221 192.117 182.526 192.28C181.831 192.454 181.147 192.434 180.473 192.219C179.798 192.015 179.206 191.626 178.685 191.074C178.174 190.512 177.847 189.889 177.694 189.194C177.551 188.499 177.592 187.814 177.816 187.139C178.041 186.465 178.45 185.862 179.022 185.33C179.594 184.799 180.238 184.451 180.932 184.287L180.922 184.298ZM178.552 187.344C178.368 187.896 178.348 188.448 178.47 188.999C178.593 189.562 178.869 190.062 179.288 190.522C179.706 190.982 180.187 191.289 180.728 191.463C181.28 191.637 181.831 191.657 182.383 191.524C182.945 191.391 183.456 191.115 183.916 190.696C184.375 190.277 184.692 189.786 184.876 189.245C185.06 188.703 185.09 188.141 184.968 187.579C184.845 187.017 184.569 186.505 184.161 186.056C183.752 185.606 183.262 185.289 182.71 185.115C182.158 184.942 181.607 184.921 181.045 185.054C180.483 185.187 179.972 185.463 179.512 185.882C179.053 186.301 178.736 186.781 178.552 187.333V187.344Z" fill="white"/>
    <path d="M178.388 195.388L176.488 192.955L173.28 195.459L172.841 194.897L176.049 192.393L173.995 189.766L174.649 189.255L179.492 195.459L175.242 198.781L174.802 198.209L178.399 195.398L178.388 195.388Z" fill="white"/>
    <path d="M164.893 197.176L164.494 196.583L169.112 193.476L173.505 200.007L169.03 203.023L168.632 202.43L172.422 199.885L170.859 197.565L167.488 199.834L167.089 199.251L170.461 196.982L168.826 194.56L164.903 197.207L164.893 197.176Z" fill="white"/>
    <path d="M162.604 197.953C163.166 197.851 163.646 197.851 164.055 197.974L164.095 198.689C163.707 198.587 163.268 198.577 162.767 198.658C162.267 198.74 161.807 198.904 161.368 199.159C160.755 199.507 160.366 199.885 160.193 200.284C160.019 200.682 160.029 201.06 160.234 201.418C160.387 201.694 160.601 201.858 160.857 201.929C161.112 202.001 161.388 202.001 161.684 201.95C161.981 201.899 162.369 201.807 162.849 201.653C163.431 201.49 163.912 201.377 164.29 201.316C164.668 201.265 165.025 201.295 165.393 201.418C165.761 201.541 166.057 201.807 166.302 202.236C166.496 202.583 166.588 202.951 166.568 203.33C166.547 203.718 166.404 204.106 166.118 204.484C165.842 204.873 165.424 205.22 164.862 205.548C164.473 205.772 164.055 205.936 163.625 206.048C163.186 206.161 162.788 206.191 162.4 206.161L162.308 205.445C162.706 205.466 163.084 205.435 163.462 205.343C163.84 205.251 164.187 205.118 164.494 204.934C165.086 204.587 165.475 204.219 165.638 203.81C165.812 203.401 165.791 203.023 165.577 202.655C165.424 202.379 165.209 202.215 164.954 202.144C164.698 202.072 164.412 202.062 164.116 202.123C163.82 202.175 163.421 202.277 162.941 202.42C162.369 202.583 161.899 202.696 161.521 202.757C161.143 202.818 160.775 202.788 160.428 202.665C160.07 202.542 159.774 202.277 159.539 201.858C159.345 201.51 159.253 201.142 159.273 200.754C159.294 200.365 159.447 199.977 159.733 199.589C160.019 199.2 160.448 198.853 161 198.526C161.511 198.229 162.042 198.035 162.594 197.933L162.604 197.953Z" fill="white"/>
    <path d="M156.648 201.254C157.21 201.183 157.69 201.224 158.088 201.377V202.093C157.7 201.96 157.261 201.919 156.76 201.97C156.259 202.021 155.779 202.154 155.33 202.379C154.696 202.685 154.278 203.033 154.073 203.421C153.869 203.81 153.859 204.188 154.043 204.556C154.186 204.842 154.38 205.026 154.635 205.108C154.89 205.19 155.166 205.22 155.452 205.19C155.749 205.159 156.137 205.087 156.638 204.975C157.23 204.852 157.72 204.77 158.098 204.74C158.476 204.709 158.844 204.77 159.192 204.914C159.539 205.057 159.825 205.353 160.04 205.782C160.213 206.14 160.275 206.508 160.234 206.896C160.193 207.285 160.019 207.653 159.713 208.021C159.406 208.389 158.967 208.716 158.385 209.002C157.986 209.196 157.557 209.339 157.118 209.421C156.678 209.503 156.27 209.513 155.892 209.452L155.851 208.736C156.239 208.787 156.627 208.777 157.016 208.706C157.404 208.634 157.751 208.522 158.078 208.368C158.701 208.062 159.1 207.714 159.304 207.326C159.498 206.937 159.508 206.549 159.324 206.171C159.181 205.885 158.987 205.701 158.732 205.619C158.476 205.537 158.201 205.506 157.894 205.547C157.588 205.588 157.189 205.66 156.699 205.762C156.116 205.885 155.636 205.966 155.258 205.997C154.88 206.028 154.512 205.977 154.165 205.833C153.818 205.69 153.542 205.404 153.327 204.975C153.154 204.617 153.092 204.249 153.133 203.861C153.184 203.472 153.358 203.094 153.675 202.726C153.991 202.358 154.431 202.031 155.013 201.745C155.534 201.489 156.086 201.326 156.648 201.254Z" fill="white"/>
    <path d="M153.961 210.985L153.195 211.312L150.079 204.086L150.845 203.759L153.961 210.985Z" fill="white"/>
    <path d="M146.738 205.956C147.453 206.068 148.076 206.355 148.618 206.804C149.159 207.254 149.557 207.837 149.813 208.552C150.068 209.268 150.13 209.963 150.007 210.658C149.874 211.353 149.578 211.966 149.098 212.508C148.618 213.05 148.015 213.448 147.279 213.714C146.544 213.98 145.828 214.051 145.124 213.939C144.419 213.826 143.795 213.54 143.244 213.09C142.702 212.641 142.304 212.058 142.038 211.343C141.783 210.627 141.721 209.922 141.854 209.227C141.987 208.532 142.294 207.908 142.764 207.377C143.234 206.845 143.836 206.436 144.572 206.181C145.307 205.925 146.033 205.844 146.738 205.956ZM143.377 207.847C142.999 208.276 142.764 208.777 142.661 209.349C142.559 209.912 142.621 210.484 142.825 211.067C143.029 211.649 143.356 212.119 143.795 212.498C144.235 212.876 144.735 213.101 145.297 213.203C145.869 213.295 146.441 213.244 147.024 213.029C147.606 212.814 148.086 212.498 148.475 212.058C148.853 211.619 149.098 211.118 149.2 210.556C149.302 209.993 149.251 209.421 149.047 208.838C148.842 208.256 148.515 207.786 148.076 207.418C147.637 207.05 147.136 206.815 146.564 206.723C145.992 206.631 145.42 206.682 144.827 206.896C144.245 207.111 143.765 207.428 143.387 207.867L143.377 207.847Z" fill="white"/>
    <path d="M134.693 217.373L132.711 209.758L133.375 209.585L139.883 214.491L138.269 208.307L139.076 208.092L141.058 215.707L140.394 215.881L133.876 210.985L135.49 217.158L134.693 217.363V217.373Z" fill="white"/>
    <path d="M125.836 213.162L130.157 212.416L130.73 210.177L131.577 210.034L129.381 218.405L128.574 218.548L123.69 211.404L124.559 211.25L125.846 213.162H125.836ZM126.245 213.775L128.829 217.618L129.974 213.131L126.255 213.775H126.245Z" fill="white"/>
    <path d="M123.312 219.325L122.484 219.407L121.759 212.293L117.376 212.743L117.305 212.028L122.515 211.496L123.312 219.325Z" fill="white"/>
    <path d="M95.6362 219.233L96.3718 211.394L97.1687 211.465L96.5863 217.731L100.152 212.743L100.54 212.784L103.125 218.313L103.707 212.078L104.504 212.15L103.768 219.99L103.084 219.928L100.223 213.796L96.3105 219.294L95.626 219.233H95.6362Z" fill="white"/>
    <path d="M93.0819 211.67C93.5314 212.354 93.654 213.244 93.4497 214.337L92.612 218.763L91.7946 218.61L92.6324 214.215C92.8061 213.315 92.7243 212.61 92.4076 212.089C92.0909 211.567 91.5392 211.24 90.7832 211.097C90.0068 210.954 89.3836 211.056 88.8932 211.424C88.4028 211.792 88.0759 212.416 87.9022 213.315L87.0645 217.71L86.2676 217.557L87.1053 213.131C87.3097 212.038 87.749 211.251 88.413 210.78C89.0771 210.31 89.9148 210.177 90.916 210.361C91.9172 210.556 92.6426 210.985 93.0921 211.67H93.0819Z" fill="white"/>
    <path d="M84.9082 209.339C85.3782 209.656 85.7153 210.004 85.9094 210.382L85.4293 210.913C85.2249 210.566 84.9185 210.239 84.5098 209.953C84.1011 209.656 83.6516 209.442 83.1714 209.319C82.4869 209.135 81.9455 209.125 81.5368 209.278C81.1282 209.431 80.8728 209.718 80.7604 210.116C80.6786 210.423 80.7093 210.689 80.8421 210.924C80.9749 211.149 81.169 211.353 81.404 211.527C81.6492 211.7 81.9863 211.905 82.4359 212.15C82.9671 212.447 83.386 212.712 83.6925 212.937C83.999 213.162 84.234 213.448 84.3974 213.786C84.5711 214.123 84.5813 214.532 84.4587 215.002C84.3565 215.39 84.1624 215.707 83.8764 215.963C83.5903 216.218 83.2123 216.392 82.7424 216.464C82.2724 216.535 81.7309 216.494 81.1077 216.32C80.6786 216.208 80.27 216.024 79.8818 215.799C79.4935 215.564 79.1871 215.309 78.9316 215.012L79.3709 214.45C79.6366 214.746 79.9328 214.992 80.2598 215.196C80.5969 215.401 80.9341 215.544 81.2814 215.646C81.9455 215.83 82.4869 215.83 82.8854 215.666C83.294 215.503 83.5495 215.217 83.6618 214.808C83.7436 214.501 83.7129 214.235 83.5801 214C83.4473 213.765 83.2532 213.561 82.9978 213.387C82.7424 213.213 82.4052 213.009 81.9659 212.764C81.4449 212.477 81.0362 212.222 80.7297 211.997C80.4232 211.772 80.1883 211.486 80.0248 211.149C79.8613 210.811 79.8409 210.413 79.9635 209.953C80.0657 209.564 80.2598 209.247 80.556 208.992C80.8523 208.736 81.2303 208.573 81.7105 208.501C82.1907 208.43 82.7321 208.481 83.3553 208.644C83.9172 208.798 84.4383 209.033 84.9082 209.36V209.339Z" fill="white"/>
    <path d="M75.2542 213.714L77.8696 214.603L77.6346 215.288L71.6172 213.244L71.8522 212.559L74.4676 213.448L76.7663 206.682L77.5529 206.947L75.2542 213.714Z" fill="white"/>
    <path d="M68.0309 205.537L72.0766 207.223L73.7521 205.649L74.549 205.987L68.2046 211.874L67.4486 211.557L67.1523 202.91L67.9594 203.247L68.0207 205.547L68.0309 205.537ZM68.0514 206.273L68.174 210.903L71.5352 207.724L68.0514 206.273Z" fill="white"/>
    <path d="M56.6699 206.344L60.2865 199.353L60.8995 199.67L62.4626 207.663L65.3947 201.99L66.1303 202.368L62.5137 209.36L61.9007 209.043L60.3274 201.04L57.3953 206.712L56.6699 206.334V206.344Z" fill="white"/>
    <path d="M51.4093 198.525L50.735 198.096L52.339 195.561C52.8191 195.49 53.3197 195.51 53.8408 195.633C54.3618 195.755 54.8522 195.96 55.3222 196.256C55.9862 196.675 56.497 197.197 56.8444 197.83C57.1917 198.454 57.3552 199.128 57.3348 199.834C57.3143 200.539 57.0998 201.213 56.7014 201.857C56.2927 202.501 55.7819 202.982 55.1485 203.309C54.5151 203.636 53.8408 203.769 53.1256 203.728C52.4105 203.687 51.7158 203.452 51.0415 203.023C50.5307 202.706 50.122 202.328 49.7951 201.898C49.4682 201.469 49.2638 200.999 49.1719 200.498L49.887 200.324C50.0811 201.173 50.592 201.857 51.3991 202.368C51.9405 202.706 52.5024 202.9 53.0848 202.931C53.6671 202.971 54.2188 202.849 54.7296 202.583C55.2404 202.317 55.6593 201.929 55.9862 201.408C56.3131 200.886 56.4868 200.345 56.5073 199.762C56.5277 199.19 56.3949 198.648 56.119 198.127C55.8432 197.616 55.4345 197.186 54.8931 196.849C54.2086 196.42 53.5241 196.226 52.8293 196.266L51.4093 198.515V198.525Z" fill="white"/>
    <path d="M40.0791 194.079C39.936 193.354 40.1199 192.659 40.641 191.994C41.162 191.34 41.7954 191.003 42.5412 190.982C43.287 190.962 44.043 191.269 44.8297 191.892L46.4847 193.211L48.0274 191.269L48.6813 191.79L43.7876 197.953L41.4787 196.124C40.692 195.5 40.2221 194.815 40.0791 194.09V194.079ZM42.674 191.769C42.1428 191.769 41.683 192.025 41.2948 192.516C40.8964 193.016 40.7533 193.527 40.8657 194.049C40.9781 194.57 41.3357 195.081 41.9487 195.561L43.5833 196.86L46.0352 193.783L44.4006 192.485C43.7876 192.005 43.2155 191.759 42.6842 191.769H42.674Z" fill="white"/>
    <path d="M38.7 183.214L38.3015 186.291C38.465 186.414 38.6285 186.546 38.7817 186.689L40.3346 188.131L42.0305 186.301L42.6435 186.863L37.2901 192.638L35.1345 190.635C34.3989 189.95 33.9902 189.245 33.8983 188.499C33.8063 187.763 34.0413 187.078 34.6134 186.465C35.0323 186.015 35.5022 185.739 36.0131 185.637C36.5239 185.535 37.0654 185.616 37.617 185.872L38.0461 182.591L38.7102 183.214H38.7ZM36.6567 186.393C36.1152 186.362 35.6351 186.577 35.2162 187.037C34.7871 187.507 34.6032 188.008 34.6747 188.529C34.7462 189.061 35.0629 189.592 35.6351 190.124L37.1675 191.545L39.8442 188.652L38.3118 187.231C37.7396 186.7 37.188 186.424 36.6465 186.393H36.6567Z" fill="white"/>
    <path d="M35.6044 180.71C35.7781 181.415 35.7576 182.1 35.5431 182.774C35.3387 183.449 34.9505 184.042 34.3886 184.553C33.8267 185.064 33.2035 185.391 32.519 185.534C31.8345 185.677 31.1398 185.636 30.4655 185.401C29.781 185.166 29.1783 184.768 28.6572 184.185C28.1362 183.613 27.7888 182.969 27.6151 182.274C27.4415 181.579 27.4721 180.894 27.6764 180.219C27.891 179.545 28.269 178.952 28.8309 178.441C29.3928 177.93 30.016 177.603 30.7107 177.459C31.4054 177.316 32.0899 177.357 32.7642 177.582C33.4385 177.817 34.0413 178.216 34.5623 178.788C35.0833 179.361 35.4307 180.005 35.6044 180.71ZM32.5701 178.328C32.0286 178.144 31.4667 178.114 30.915 178.246C30.3531 178.369 29.8525 178.645 29.3928 179.054C28.9331 179.463 28.6266 179.953 28.4427 180.495C28.269 181.037 28.2486 181.599 28.3712 182.151C28.504 182.713 28.7798 183.224 29.1987 183.684C29.6176 184.144 30.0977 184.461 30.6494 184.655C31.2011 184.839 31.7528 184.87 32.3147 184.747C32.8766 184.624 33.3874 184.359 33.8369 183.94C34.2865 183.521 34.6032 183.04 34.7768 182.498C34.9505 181.957 34.971 181.395 34.8381 180.832C34.7053 180.27 34.4295 179.759 34.0106 179.299C33.5917 178.839 33.1116 178.522 32.5599 178.338L32.5701 178.328Z" fill="white"/>
    <path d="M24.5292 178.144L26.9709 176.253L24.4781 173.034L25.0502 172.594L27.543 175.814L30.1788 173.77L30.6897 174.424L24.4781 179.248L21.168 174.986L21.7401 174.546L24.5394 178.155L24.5292 178.144Z" fill="white"/>
    <path d="M22.7618 164.612L23.3645 164.213L26.4601 168.843L19.9216 173.218L16.918 168.731L17.5105 168.332L20.0442 172.124L22.3735 170.57L20.1157 167.187L20.7083 166.789L22.9661 170.172L25.3976 168.547L22.7618 164.612Z" fill="white"/>
    <path d="M21.9958 162.332C22.098 162.895 22.0877 163.375 21.9652 163.784L21.25 163.825C21.3522 163.436 21.3624 162.997 21.2807 162.496C21.1989 161.995 21.0355 161.535 20.7801 161.096C20.4327 160.482 20.0547 160.094 19.6562 159.91C19.2578 159.736 18.8798 159.747 18.5222 159.951C18.2464 160.104 18.0829 160.319 18.0114 160.574C17.9399 160.83 17.9399 161.106 17.9808 161.402C18.0318 161.699 18.1238 162.087 18.2668 162.568C18.4303 163.16 18.5427 163.641 18.5937 164.009C18.6448 164.387 18.6142 164.755 18.4916 165.113C18.369 165.47 18.0931 165.777 17.6743 166.012C17.3269 166.206 16.9591 166.298 16.5811 166.278C16.2031 166.257 15.8047 166.104 15.4267 165.828C15.0384 165.552 14.6911 165.133 14.3641 164.571C14.1394 164.182 13.9759 163.763 13.8635 163.334C13.7614 162.895 13.7205 162.486 13.7512 162.108L14.4663 162.026C14.4459 162.424 14.4663 162.803 14.5685 163.191C14.6604 163.569 14.7932 163.917 14.9771 164.223C15.3143 164.826 15.6923 165.205 16.1009 165.378C16.5096 165.552 16.8876 165.532 17.2554 165.317C17.5312 165.164 17.7049 164.949 17.7662 164.694C17.8275 164.438 17.8479 164.152 17.7866 163.855C17.7356 163.559 17.6334 163.16 17.5006 162.68C17.3371 162.108 17.2247 161.637 17.1737 161.259C17.1226 160.881 17.1532 160.513 17.2656 160.166C17.3882 159.808 17.6538 159.511 18.0727 159.276C18.4201 159.082 18.7879 158.99 19.1761 159.011C19.5643 159.031 19.9525 159.184 20.3407 159.481C20.729 159.767 21.0763 160.196 21.4033 160.748C21.6995 161.259 21.8936 161.791 21.9958 162.343V162.332Z" fill="white"/>
    <path d="M18.7262 156.373C18.7977 156.936 18.7568 157.416 18.6036 157.815H17.8885C18.0213 157.426 18.0621 156.976 18.0111 156.476C17.96 155.975 17.8272 155.494 17.6126 155.045C17.3061 154.411 16.9588 153.992 16.5705 153.787C16.1823 153.583 15.8043 153.573 15.4365 153.757C15.1505 153.89 14.9666 154.094 14.8848 154.35C14.8031 154.605 14.7725 154.881 14.8031 155.167C14.8338 155.464 14.9053 155.852 15.0176 156.353C15.1402 156.946 15.222 157.436 15.2526 157.815C15.2833 158.193 15.222 158.55 15.0789 158.908C14.9359 159.256 14.6396 159.542 14.2003 159.757C13.8428 159.93 13.475 159.992 13.0867 159.951C12.6985 159.91 12.3307 159.726 11.9629 159.429C11.5952 159.123 11.2784 158.683 10.9924 158.101C10.7983 157.692 10.6552 157.273 10.5837 156.833C10.502 156.394 10.4918 155.985 10.5531 155.607L11.2682 155.566C11.2171 155.954 11.2274 156.343 11.2887 156.731C11.3602 157.119 11.4623 157.467 11.6258 157.794C11.9323 158.418 12.2796 158.826 12.6679 159.021C13.0561 159.215 13.4443 159.225 13.8223 159.041C14.1084 158.908 14.2923 158.704 14.374 158.448C14.4557 158.193 14.4864 157.917 14.4557 157.61C14.4149 157.303 14.3536 156.905 14.2412 156.414C14.1186 155.832 14.0369 155.351 14.0062 154.973C13.9756 154.595 14.0267 154.227 14.1799 153.879C14.3229 153.532 14.609 153.256 15.0381 153.041C15.3957 152.867 15.7634 152.806 16.1517 152.857C16.5399 152.908 16.9179 153.092 17.2755 153.399C17.6433 153.716 17.96 154.155 18.246 154.738C18.5014 155.259 18.6649 155.811 18.7262 156.373Z" fill="white"/>
    <path d="M9.00075 153.634L8.67383 152.868L15.907 149.771L16.234 150.537L9.00075 153.634Z" fill="white"/>
    <path d="M14.0581 146.438C13.9457 147.154 13.6597 147.777 13.2102 148.319C12.7606 148.861 12.1783 149.259 11.4632 149.505C10.748 149.76 10.0533 149.821 9.35857 149.689C8.66386 149.556 8.05087 149.249 7.5094 148.769C6.96793 148.288 6.56949 147.685 6.30387 146.949C6.03824 146.213 5.96673 145.498 6.08932 144.793C6.2017 144.087 6.48776 143.464 6.9475 142.922C7.40724 142.38 7.98957 141.982 8.69451 141.726C9.40965 141.471 10.1146 141.409 10.8093 141.542C11.504 141.675 12.117 141.982 12.6585 142.452C13.1999 142.922 13.5882 143.525 13.8538 144.261C14.1194 144.997 14.1909 145.723 14.0683 146.428L14.0581 146.438ZM12.1783 143.065C11.7492 142.687 11.2486 142.442 10.6867 142.34C10.1248 142.237 9.55268 142.288 8.97035 142.493C8.38801 142.697 7.91806 143.024 7.54005 143.454C7.16204 143.893 6.92707 144.394 6.83512 144.956C6.74317 145.518 6.79425 146.101 7.0088 146.684C7.22334 147.266 7.54005 147.757 7.96914 148.135C8.40845 148.523 8.90905 148.758 9.47095 148.861C10.0329 148.963 10.6152 148.912 11.1873 148.707C11.7594 148.503 12.2396 148.176 12.6176 147.736C12.9956 147.297 13.2204 146.796 13.3225 146.224C13.4145 145.651 13.3634 145.079 13.1489 144.486C12.9445 143.903 12.6176 143.423 12.1885 143.035L12.1783 143.065Z" fill="white"/>
    <path d="M2.67623 134.357L10.2977 132.395L10.4713 133.059L5.54704 139.549L11.728 137.955L11.9323 138.762L4.31086 140.725L4.13718 140.06L9.05127 133.56L2.87034 135.154L2.66602 134.357H2.67623Z" fill="white"/>
    <path d="M6.90598 125.516L7.64156 129.839L9.86874 130.412L10.0118 131.27L1.65475 129.042L1.51172 128.234L8.6632 123.369L8.80623 124.238L6.89576 125.526L6.90598 125.516ZM6.29299 125.924L2.44141 128.5L6.92641 129.655L6.29299 125.935V125.924Z" fill="white"/>
    <path d="M0.755559 122.981L0.673828 122.153L7.78444 121.448L7.35536 117.063L8.0705 116.991L8.58132 122.204L0.755559 122.981Z" fill="white"/>
    <path d="M0.552136 98.3682L8.39833 98.8997L8.34725 99.6969L2.06416 99.2676L7.1315 102.712L7.10085 103.101L1.64529 105.83L7.88751 106.259L7.83643 107.056L-0.00976562 106.525L0.0413164 105.84L6.08943 102.825L0.501054 99.053L0.552136 98.3682Z" fill="white"/>
    <path d="M8.05059 95.629C7.38653 96.0992 6.4977 96.2423 5.39433 96.0583L0.950195 95.3326L1.08301 94.5149L5.49649 95.2406C6.39554 95.3837 7.10047 95.2917 7.61129 94.9647C8.12211 94.6274 8.43882 94.0754 8.56142 93.3088C8.68401 92.532 8.56142 91.9085 8.18341 91.4281C7.8054 90.9477 7.16177 90.6309 6.26272 90.4878L1.84924 89.7621L1.98205 88.9648L6.42619 89.6905C7.52956 89.8745 8.32644 90.2834 8.80661 90.9375C9.28678 91.5917 9.45024 92.4196 9.28678 93.4213C9.12332 94.4229 8.70444 95.1691 8.04038 95.629H8.05059Z" fill="white"/>
    <path d="M10.1752 87.3704C9.86875 87.8508 9.53161 88.1881 9.16382 88.4028L8.62235 87.9326C8.96971 87.7179 9.2762 87.4113 9.56226 86.9922C9.84832 86.5732 10.0424 86.1234 10.165 85.6328C10.3285 84.948 10.3285 84.4063 10.165 83.9974C10.0016 83.5886 9.7155 83.3433 9.31706 83.2411C9.01057 83.1695 8.74495 83.2002 8.52018 83.3433C8.29542 83.4864 8.10131 83.6806 7.93785 83.9259C7.77439 84.1712 7.57006 84.5187 7.3453 84.9684C7.05924 85.5102 6.80383 85.9292 6.58928 86.2461C6.37474 86.5527 6.0989 86.798 5.76176 86.9718C5.42461 87.1456 5.02618 87.1762 4.546 87.0638C4.15778 86.9718 3.83086 86.7878 3.56523 86.5016C3.2996 86.2256 3.12592 85.8475 3.03398 85.3773C2.94203 84.9071 2.98289 84.3654 3.13614 83.7317C3.2383 83.2922 3.40177 82.8833 3.62653 82.4949C3.85129 82.1065 4.1067 81.7795 4.39276 81.5239L4.97509 81.9532C4.68903 82.219 4.44384 82.5256 4.24973 82.8629C4.05562 83.2002 3.91259 83.5477 3.83086 83.8952C3.66739 84.5698 3.67761 85.1013 3.85129 85.5C4.02497 85.8986 4.32124 86.1541 4.7299 86.2461C5.03639 86.3176 5.30202 86.287 5.537 86.1439C5.77197 86.0008 5.96608 85.8066 6.12955 85.5511C6.29301 85.2955 6.49734 84.948 6.7221 84.4983C6.99794 83.9668 7.24313 83.5477 7.45768 83.2411C7.67222 82.9344 7.94807 82.6891 8.28521 82.5154C8.62235 82.3416 9.01057 82.311 9.48053 82.4234C9.86875 82.5154 10.1957 82.7096 10.4613 82.9958C10.7269 83.282 10.9006 83.6601 10.9823 84.1303C11.0641 84.6005 11.0232 85.1524 10.8802 85.7861C10.7371 86.3585 10.5226 86.8798 10.2059 87.35L10.1752 87.3704Z" fill="white"/>
    <path d="M5.54771 77.8545L4.7304 80.4916L4.0459 80.2769L5.93593 74.2056L6.62043 74.4202L5.80312 77.0573L12.6277 79.1833L12.3825 79.9805L5.55793 77.8545H5.54771Z" fill="white"/>
    <path d="M13.5368 70.4135L11.9533 74.5019L13.5777 76.1373L13.261 76.9448L7.21289 70.7508L7.50917 69.9842L16.142 69.4629L15.8253 70.2806L13.5266 70.4032L13.5368 70.4135ZM12.8013 70.4543L8.18345 70.6894L11.4425 73.9704L12.8013 70.4441V70.4543Z" fill="white"/>
    <path d="M12.4333 59.0679L19.5133 62.5022L19.217 63.1154L11.2686 64.8837L17.0103 67.6741L16.6425 68.4202L9.5625 64.9859L9.85878 64.3726L17.8174 62.5942L12.0757 59.8038L12.4333 59.0679Z" fill="white"/>
    <path d="M20.1361 53.5995L20.5448 52.9147L23.1193 54.4478C23.2112 54.9282 23.201 55.4291 23.0886 55.9503C22.9763 56.4716 22.7822 56.9724 22.4961 57.4426C22.0977 58.1172 21.5868 58.6385 20.9636 59.0065C20.3506 59.3744 19.6866 59.5482 18.9714 59.5482C18.2665 59.5482 17.582 59.3438 16.9384 58.9656C16.2845 58.5772 15.7941 58.0763 15.457 57.4528C15.1199 56.8293 14.9564 56.165 14.987 55.4495C15.0177 54.734 15.2322 54.0288 15.6409 53.3542C15.9474 52.8431 16.3152 52.4138 16.734 52.0765C17.1529 51.7392 17.6127 51.5246 18.1133 51.4224L18.3074 52.1378C17.4594 52.3525 16.7953 52.884 16.305 53.7017C15.978 54.2536 15.8043 54.8158 15.7839 55.3984C15.7635 55.981 15.8963 56.5329 16.1721 57.0338C16.448 57.5448 16.8566 57.9537 17.3777 58.2705C17.9089 58.5874 18.4606 58.7407 19.0327 58.7407C19.6049 58.7407 20.1463 58.5976 20.6469 58.3114C21.1577 58.015 21.5664 57.5959 21.8933 57.0542C22.3122 56.3592 22.4859 55.6641 22.4246 54.9793L20.1463 53.6199L20.1361 53.5995Z" fill="white"/>
    <path d="M24.2738 42.1826C24.9991 42.0191 25.6938 42.1826 26.3681 42.6937C27.0424 43.1945 27.3898 43.818 27.4306 44.5641C27.4715 45.3 27.1854 46.0769 26.5827 46.8741L25.3056 48.5606L27.2876 50.0529L26.787 50.7173L20.5039 45.9746L22.2816 43.6238C22.8843 42.8163 23.5484 42.3359 24.2738 42.1724V42.1826ZM26.644 44.7174C26.6235 44.1859 26.3579 43.726 25.8675 43.358C25.3567 42.9696 24.8459 42.847 24.3248 42.9696C23.8038 43.0923 23.3134 43.4705 22.8435 44.0837L21.5868 45.7498L24.7233 48.1211L25.9799 46.455C26.4499 45.8315 26.6746 45.2592 26.644 44.7174Z" fill="white"/>
    <path d="M35.1039 40.5063L32.0186 40.1792C31.9062 40.3428 31.7734 40.5063 31.6304 40.6699L30.2307 42.2541L32.1003 43.91L31.5486 44.5334L25.6436 39.3309L27.5949 37.1231C28.259 36.3668 28.9537 35.9375 29.6995 35.825C30.435 35.7126 31.1195 35.9375 31.7427 36.4894C32.2025 36.8983 32.4885 37.3582 32.6009 37.8693C32.7133 38.3803 32.652 38.922 32.4068 39.474L35.6965 39.8113L35.0937 40.4961L35.1039 40.5063ZM31.8756 38.5439C31.8858 38.0021 31.661 37.532 31.2013 37.1231C30.7211 36.704 30.2205 36.5303 29.6892 36.6121C29.158 36.6938 28.637 37.0311 28.1261 37.6137L26.7469 39.1878L29.7097 41.7942L31.0889 40.2201C31.5997 39.6375 31.8653 39.0754 31.8858 38.5336L31.8756 38.5439Z" fill="white"/>
    <path d="M37.5348 37.3481C36.8401 37.5321 36.1454 37.5321 35.4711 37.3481C34.7968 37.1539 34.194 36.7859 33.673 36.2442C33.1519 35.7025 32.8046 35.079 32.6411 34.3942C32.4777 33.7094 32.5083 33.0245 32.7229 32.3295C32.9374 31.6345 33.3256 31.0212 33.8875 30.4897C34.4494 29.948 35.0726 29.5902 35.7673 29.4063C36.4621 29.2223 37.1466 29.2223 37.8208 29.4165C38.5053 29.6107 39.1081 29.9786 39.6291 30.5204C40.1502 31.0621 40.4975 31.6856 40.661 32.3704C40.8245 33.0552 40.7938 33.7503 40.5895 34.4248C40.3749 35.1097 39.9867 35.7127 39.4248 36.2544C38.8629 36.7962 38.2295 37.1539 37.5348 37.3481ZM39.8335 34.2511C40.0072 33.6991 40.0174 33.1472 39.8743 32.585C39.7313 32.0331 39.4555 31.5323 39.0264 31.0825C38.5973 30.643 38.1171 30.3364 37.5654 30.1729C37.0137 30.0093 36.4621 29.9991 35.9002 30.1422C35.3485 30.2853 34.8377 30.5715 34.3881 31.0008C33.9386 31.4301 33.6321 31.9207 33.4584 32.4726C33.2848 33.0246 33.2745 33.5765 33.4074 34.1387C33.5402 34.7008 33.8262 35.2017 34.2553 35.6412C34.6844 36.0807 35.1646 36.3873 35.7265 36.5508C36.2782 36.7144 36.8401 36.7144 37.3917 36.5713C37.9537 36.4282 38.4543 36.1318 38.9038 35.7025C39.3533 35.2732 39.6598 34.7826 39.8335 34.2306V34.2511Z" fill="white"/>
    <path d="M39.8129 26.2072L41.7642 28.5989L44.9109 26.0232L45.3706 26.5752L42.224 29.1509L44.3387 31.7368L43.6951 32.2581L38.7197 26.1663L42.8982 22.7524L43.358 23.3044L39.8231 26.197L39.8129 26.2072Z" fill="white"/>
    <path d="M53.268 24.1119L53.6869 24.6945L49.1406 27.904L44.6045 21.4749L49.0078 18.3574L49.4266 18.9503L45.6976 21.5873L47.3118 23.8768L50.6322 21.526L51.0408 22.1086L47.7205 24.4594L49.4062 26.8512L53.268 24.1222V24.1119Z" fill="white"/>
    <path d="M55.5263 23.2941C54.9746 23.4167 54.4842 23.4167 54.0755 23.3043L54.0245 22.5888C54.4127 22.6808 54.8622 22.6808 55.3526 22.5888C55.843 22.4968 56.3129 22.3128 56.742 22.0573C57.3448 21.6894 57.7228 21.3112 57.8965 20.9023C58.0701 20.4935 58.0395 20.1153 57.8249 19.7678C57.6615 19.502 57.4469 19.3385 57.1915 19.2772C56.9361 19.2158 56.6603 19.2158 56.364 19.2772C56.0779 19.3385 55.6897 19.4407 55.1993 19.594C54.617 19.778 54.1368 19.8904 53.769 19.962C53.391 20.0233 53.0335 20.0029 52.6657 19.8904C52.2979 19.778 51.9914 19.5123 51.7462 19.0932C51.5419 18.7559 51.4397 18.3879 51.4499 17.9995C51.4601 17.6111 51.6032 17.2227 51.8688 16.8343C52.1344 16.4459 52.5533 16.0779 53.105 15.7407C53.4932 15.5056 53.9019 15.3318 54.3309 15.2092C54.76 15.0865 55.1687 15.0456 55.5569 15.0661L55.6591 15.7815C55.2606 15.7713 54.8826 15.8122 54.5046 15.9144C54.1266 16.0166 53.7895 16.1597 53.483 16.3437C52.8904 16.7014 52.5226 17.0898 52.3592 17.4885C52.1957 17.8871 52.2264 18.2755 52.4511 18.6332C52.6146 18.899 52.8291 19.0727 53.0845 19.1341C53.3399 19.1954 53.626 19.1954 53.9223 19.1341C54.2186 19.0727 54.6068 18.9603 55.087 18.8172C55.6489 18.6435 56.129 18.5208 56.4968 18.4493C56.8748 18.3777 57.2426 18.4084 57.6002 18.5208C57.9578 18.6332 58.2643 18.8888 58.5094 19.3078C58.7138 19.6451 58.8159 20.0131 58.7955 20.4015C58.7853 20.7899 58.632 21.1783 58.3562 21.5769C58.0804 21.9653 57.6615 22.3333 57.1098 22.6706C56.6092 22.9772 56.0882 23.1816 55.5263 23.3043V23.2941Z" fill="white"/>
    <path d="M61.4009 19.8595C60.839 19.9413 60.3588 19.9106 59.9604 19.7778V19.0623C60.3384 19.1849 60.7777 19.2156 61.2783 19.1543C61.7789 19.093 62.2488 18.9499 62.6984 18.7148C63.3216 18.3877 63.7302 18.03 63.9243 17.6415C64.1184 17.2531 64.1184 16.875 63.9243 16.507C63.7813 16.231 63.577 16.047 63.3216 15.9755C63.0662 15.8937 62.7903 15.8733 62.494 15.9142C62.1978 15.9551 61.8095 16.0368 61.3089 16.1493C60.7164 16.2924 60.226 16.3843 59.8582 16.415C59.4802 16.4559 59.1124 16.415 58.7651 16.2719C58.4177 16.1288 58.1214 15.8528 57.8967 15.4236C57.7128 15.0658 57.6413 14.6979 57.6719 14.3197C57.7128 13.9313 57.8762 13.5531 58.1725 13.1749C58.4688 12.7967 58.8979 12.4696 59.47 12.1732C59.8684 11.9688 60.2873 11.8155 60.7266 11.7337C61.1659 11.6417 61.5746 11.6213 61.9526 11.6724L62.0037 12.3879C61.6154 12.347 61.2272 12.3674 60.839 12.439C60.461 12.5208 60.1034 12.6332 59.7867 12.8069C59.1737 13.1238 58.7753 13.4815 58.5914 13.8802C58.4075 14.2788 58.4075 14.657 58.5914 15.0352C58.7344 15.3111 58.9387 15.4951 59.1941 15.5769C59.4496 15.6586 59.7356 15.6791 60.0319 15.6382C60.3384 15.5973 60.7266 15.5155 61.217 15.3929C61.7891 15.2498 62.2693 15.1578 62.6575 15.1169C63.0355 15.076 63.4033 15.1169 63.7507 15.26C64.098 15.3929 64.3841 15.6791 64.6088 16.0982C64.7927 16.4457 64.8642 16.8239 64.8234 17.2123C64.7825 17.6007 64.6088 17.9788 64.3126 18.357C64.0061 18.7352 63.5668 19.0623 62.9946 19.3587C62.4736 19.6245 61.9321 19.8084 61.3702 19.88L61.4009 19.8595Z" fill="white"/>
    <path d="M63.8936 10.0575L64.6496 9.70996L67.929 16.8648L67.173 17.2123L63.8936 10.0575Z" fill="white"/>
    <path d="M71.2182 14.9331C70.5031 14.8309 69.8697 14.5651 69.318 14.1256C68.7663 13.6861 68.3577 13.1137 68.0818 12.4085C67.806 11.7032 67.7345 10.998 67.8468 10.3029C67.9592 9.60788 68.2453 8.98439 68.7152 8.43245C69.1852 7.88051 69.7777 7.46144 70.5031 7.18547C71.2285 6.9095 71.9436 6.81751 72.6588 6.9095C73.3637 7.01171 73.9971 7.27746 74.5488 7.71697C75.1005 8.15648 75.5194 8.72886 75.785 9.43412C76.0608 10.1394 76.1323 10.8446 76.02 11.5397C75.9076 12.2347 75.6113 12.8582 75.1516 13.4101C74.6918 13.9519 74.0993 14.3709 73.3739 14.6469C72.6485 14.9229 71.9232 15.0149 71.208 14.9229L71.2182 14.9331ZM74.5386 12.9706C74.9064 12.5311 75.1311 12.0201 75.2231 11.4579C75.315 10.8957 75.2435 10.3234 75.0187 9.75098C74.794 9.17859 74.4671 8.70842 74.0175 8.35068C73.568 7.99294 73.0674 7.76807 72.4953 7.6863C71.9232 7.60453 71.3511 7.67608 70.7687 7.90095C70.1864 8.12581 69.7164 8.45289 69.3384 8.90262C68.9706 9.34213 68.7357 9.85319 68.6437 10.4256C68.5518 10.998 68.6233 11.5703 68.8378 12.1427C69.0626 12.7151 69.3895 13.1853 69.839 13.543C70.2886 13.9008 70.7994 14.1256 71.3715 14.2074C71.9436 14.2892 72.5157 14.2074 73.0981 13.9928C73.6804 13.7781 74.1504 13.4408 74.5181 12.9911L74.5386 12.9706Z" fill="white"/>
    <path d="M83.0081 3.22998L85.1637 10.8039L84.5099 10.9878L77.8999 6.235L79.6469 12.3779L78.85 12.6028L76.6943 5.0289L77.3584 4.84492L83.9786 9.59776L82.2316 3.45485L83.0183 3.22998H83.0081Z" fill="white"/>
    <path d="M91.9475 7.2466L87.6463 8.09496L87.1253 10.3436L86.2773 10.5072L88.29 2.08493L89.0971 1.92139L94.144 8.95354L93.2858 9.1273L91.9577 7.2466H91.9475ZM91.5184 6.64356L88.8519 2.86173L87.82 7.37948L91.5286 6.65378L91.5184 6.64356Z" fill="white"/>
    <path d="M94.3379 1.03239L95.1654 0.930176L96.044 8.02365L100.417 7.48193L100.509 8.19741L95.3085 8.84134L94.3379 1.03239Z" fill="white"/>
    <path d="M128.996 110.884L95.2009 130.395L95.2009 91.372L128.996 110.884Z" fill="#D9D9D9"/>
  </g>
  <defs>
    <clipPath id="clip0_1411_7050">
      <rect width="220" height="220" fill="white"/>
    </clipPath>
  </defs>
</svg>
