<svg xmlns="http://www.w3.org/2000/svg" width="40" height="39" viewBox="0 0 40 39" fill="none">
  <path d="M0 21.7915C0 21.5842 0 21.3769 0 21.1696C0.164935 20.7654 0.432953 20.4648 0.834981 20.2575C7.56637 16.7333 14.2875 13.1988 21.0085 9.67471C26.6576 6.7103 32.3066 3.73552 37.9659 0.760742C38.172 0.760742 38.3782 0.760742 38.5844 0.760742C39.44 1.23754 39.5843 1.52776 39.44 2.51244C39.2854 3.60077 39.1204 4.68911 38.9658 5.76708C38.471 9.15646 37.9659 12.5355 37.4608 15.9249C36.9557 19.3246 36.4608 22.7244 35.9557 26.1137C35.6259 28.3215 35.296 30.5293 34.9764 32.7474C34.9249 33.1309 34.7497 33.4315 34.4404 33.6491C33.9971 33.9497 33.5436 33.8668 33.0797 33.7113C28.7192 32.2084 24.3588 30.7158 19.9983 29.2129C18.7201 28.7672 17.4315 28.3319 16.1017 27.8654C21.6477 21.1489 27.1524 14.4737 32.6674 7.79863C32.5333 7.78827 32.4612 7.84009 32.389 7.89192C25.4102 13.8933 18.4314 19.8843 11.463 25.8961C11.2362 26.093 11.0506 26.1552 10.7517 26.0515C7.58699 24.9528 4.42231 23.8541 1.24732 22.7865C0.690664 22.5896 0.247402 22.3305 0 21.7915Z" fill="currentColor"/>
  <path d="M14.4112 29.9077C16.6687 30.6851 18.8644 31.4417 21.0807 32.1984C21.0086 32.3124 20.957 32.3953 20.9055 32.4783C19.5139 34.3854 18.1325 36.2926 16.7203 38.179C16.5244 38.4485 16.1842 38.6766 15.875 38.7802C15.1843 38.9875 14.4834 38.4382 14.4318 37.723C14.4009 37.3498 14.4215 36.9767 14.4215 36.6036C14.4215 34.5409 14.4215 32.4679 14.4215 30.4052C14.4112 30.2601 14.4112 30.115 14.4112 29.9077Z" fill="currentColor"/>
</svg>
