<svg width="63" height="64" viewBox="0 0 63 64" fill="none" xmlns="http://www.w3.org/2000/svg">
  <g filter="url(#filter0_d_310_591)">
    <path d="M0 34.2538C0 33.9161 0 33.5785 0 33.2408C0.254781 32.5824 0.6688 32.0929 1.28983 31.7552C11.6881 26.0153 22.0704 20.2585 32.4527 14.5186C41.179 9.69032 49.9052 4.84516 58.6474 0C58.9659 0 59.2844 0 59.6028 0C60.9245 0.776576 61.1475 1.24927 60.9245 2.85307C60.6857 4.62569 60.4309 6.39831 60.192 8.15405C59.4277 13.6745 58.6474 19.1781 57.8672 24.6985C57.0869 30.2358 56.3225 35.7732 55.5423 41.2936C55.0327 44.8895 54.5231 48.4854 54.0295 52.0981C53.9499 52.7228 53.6792 53.2124 53.2015 53.5669C52.5168 54.0565 51.8161 53.9214 51.0995 53.6682C44.3638 51.2203 37.628 48.7892 30.8922 46.3413C28.9177 45.6154 26.9272 44.9064 24.873 44.1467C33.44 33.2071 41.9433 22.335 50.4626 11.4629C50.2556 11.4461 50.1441 11.5305 50.0326 11.6149C39.2522 21.3896 28.4718 31.1475 17.7073 40.9391C17.357 41.2598 17.0703 41.3611 16.6085 41.1923C11.7199 39.4028 6.83132 37.6133 1.92678 35.8744C1.0669 35.5537 0.382172 35.1316 0 34.2538Z" fill="white"/>
    <path d="M22.2614 47.4766C25.7487 48.7427 29.1404 49.9751 32.5641 51.2075C32.4526 51.3932 32.373 51.5283 32.2934 51.6633C30.1436 54.7696 28.0098 57.8759 25.8283 60.9485C25.5257 61.3874 25.0002 61.7588 24.5225 61.9276C23.4556 62.2653 22.3728 61.3705 22.2932 60.2057C22.2454 59.5979 22.2773 58.9901 22.2773 58.3824C22.2773 55.0229 22.2773 51.6464 22.2773 48.2869C22.2614 48.0506 22.2614 47.8142 22.2614 47.4766Z" fill="white"/>
  </g>
  <defs>
    <filter id="filter0_d_310_591" x="0" y="0" width="63" height="64" filterUnits="userSpaceOnUse" color-interpolation-filters="sRGB">
      <feFlood flood-opacity="0" result="BackgroundImageFix"/>
      <feColorMatrix in="SourceAlpha" type="matrix" values="0 0 0 0 0 0 0 0 0 0 0 0 0 0 0 0 0 0 127 0" result="hardAlpha"/>
      <feOffset dx="2" dy="2"/>
      <feComposite in2="hardAlpha" operator="out"/>
      <feColorMatrix type="matrix" values="0 0 0 0 0.0941176 0 0 0 0 0.196078 0 0 0 0 0.356863 0 0 0 1 0"/>
      <feBlend mode="normal" in2="BackgroundImageFix" result="effect1_dropShadow_310_591"/>
      <feBlend mode="normal" in="SourceGraphic" in2="effect1_dropShadow_310_591" result="shape"/>
    </filter>
  </defs>
</svg>
