<svg width="24" height="23" viewBox="0 0 24 23" fill="none" xmlns="http://www.w3.org/2000/svg">
  <path fill-rule="evenodd" clip-rule="evenodd" d="M21.9107 5.94282C22.0569 5.42089 21.9107 5.05554 21.2287 5.05554H18.9551C18.3705 5.05554 18.1107 5.3861 17.9645 5.75145C17.9645 5.75145 16.8115 8.77864 15.1713 10.7272C14.6354 11.3013 14.4081 11.4753 14.1157 11.4753C13.9696 11.4753 13.7585 11.3013 13.7585 10.7794V5.94282C13.7585 5.31651 13.5961 5.05554 13.1089 5.05554H9.53621C9.17894 5.05554 8.95158 5.3513 8.95158 5.61227C8.95158 6.20379 9.76356 6.34297 9.861 7.97835V11.5623C9.861 12.3452 9.73108 12.4843 9.43877 12.4843C8.67551 12.4843 6.79173 9.45715 5.68744 5.97762C5.46009 5.33391 5.24898 5.05554 4.66436 5.05554H2.39082C1.74124 5.05554 1.61133 5.3861 1.61133 5.75145C1.61133 6.39516 2.37458 9.59633 5.20026 13.824C7.08404 16.712 9.73108 18.2778 12.1345 18.2778C13.5798 18.2778 13.7585 17.9298 13.7585 17.3383V15.1462C13.7585 14.4503 13.8884 14.3111 14.3593 14.3111C14.7004 14.3111 15.2688 14.4851 16.6166 15.8769C18.1594 17.5297 18.4192 18.2778 19.2799 18.2778H21.5534C22.203 18.2778 22.5278 17.9298 22.3329 17.2513C22.1218 16.5728 21.391 15.5811 20.4167 14.3981C19.8808 13.7196 19.085 13.0063 18.8577 12.6409C18.5167 12.1712 18.6141 11.9624 18.8577 11.5623C18.8577 11.5449 21.6346 7.36943 21.9107 5.94282Z" fill="currentColor"/>
</svg>
