<svg xmlns="http://www.w3.org/2000/svg" width="66" height="68" viewBox="0 0 66 68" fill="none">
  <path d="M64 30.6689C64 32.047 64 33.4251 64 34.8032C63.9666 35.0099 63.8998 35.2167 63.8831 35.4234C63.5993 39.0926 62.7477 42.6067 61.2951 45.9659C53.7814 63.1921 33.5946 70.4271 17.3817 61.7279C17.0978 61.5728 16.6971 61.5384 16.3966 61.6073C12.623 62.5892 8.86616 63.6055 5.10931 64.6219C3.48969 65.0526 1.87008 65.5349 0.250457 66C0.166971 66 0.0834855 66 0 66C1.45265 60.5393 2.92199 55.0785 4.35794 49.6178C4.44143 49.2905 4.39134 48.8426 4.24106 48.5498C1.26898 42.934 -0.0500913 36.9565 0.350639 30.5828C0.818158 22.8999 3.473 16.1472 8.6491 10.6003C16.2964 2.40063 25.7302 -1.0963 36.6668 0.299024C43.9635 1.22924 50.1915 4.57114 55.2507 10.1524C59.6254 14.9758 62.4305 20.5743 63.5158 27.0859C63.7161 28.2917 63.833 29.4803 64 30.6689ZM7.69736 58.0587C7.96452 58.007 8.14819 57.9726 8.33185 57.9209C11.2538 57.1457 14.1758 56.3705 17.0811 55.5609C17.5153 55.4403 17.8492 55.5092 18.2332 55.7504C24.3444 59.5229 30.8729 60.7115 37.8523 59.1612C51.8111 56.0604 60.911 41.8832 58.1894 27.4821C55.2674 12.0646 40.3235 2.33172 25.5633 6.20763C14.059 9.25668 5.81059 20.0576 5.66032 32.3054C5.59353 37.8523 7.11297 42.934 10.0517 47.5679C10.2687 47.9296 10.3355 48.2225 10.2186 48.6359C9.63423 50.7203 9.08322 52.8047 8.53222 54.8891C8.24837 55.9226 7.99791 56.9562 7.69736 58.0587Z" fill="currentColor"/>
  <path d="M40.4904 48.3258C39.7224 48.2225 38.9376 48.2397 38.2029 48.0158C34.1121 46.7927 30.1883 45.1562 26.8489 42.3139C24.2442 40.0917 22.0735 37.4733 19.9864 34.7688C18.6172 32.9944 17.4484 31.0996 16.6637 28.9807C15.211 25.0187 15.9958 21.5218 18.7508 18.4555C19.2684 17.887 19.9196 17.5425 20.671 17.508C21.3889 17.4736 22.1236 17.4908 22.8583 17.5253C23.4594 17.5597 23.7766 18.0248 23.9937 18.5072C24.4111 19.4374 24.7785 20.4021 25.1625 21.3495C25.6634 22.5898 26.1643 23.8473 26.6819 25.0876C26.9157 25.6216 26.9157 26.1384 26.5817 26.6207C25.9807 27.4993 25.3629 28.3606 24.7117 29.1874C24.0271 30.066 23.9937 30.2899 24.5447 31.2374C27.0827 35.5956 30.5891 38.7825 35.1808 40.6946C36.1325 41.0908 36.4831 41.0219 37.1343 40.2123C37.8857 39.2648 38.6371 38.3174 39.3717 37.3527C39.8893 36.6636 40.1899 36.5086 40.9746 36.8015C41.8262 37.1288 42.6611 37.525 43.4959 37.9039C44.7816 38.4724 46.0673 39.0409 47.3362 39.6266C48.2379 40.04 48.3214 40.2639 48.3047 41.2631C48.2546 45.6558 44.9152 47.6023 41.7928 48.1536C41.3587 48.2225 40.9246 48.2225 40.4904 48.2397C40.4904 48.2914 40.4904 48.3086 40.4904 48.3258Z" fill="currentColor"/>
<!--  <g filter="url(#filter0_d_310_592)">-->
<!--    <path d="M64 30.6689C64 32.047 64 33.4251 64 34.8032C63.9666 35.0099 63.8998 35.2167 63.8831 35.4234C63.5993 39.0926 62.7477 42.6067 61.2951 45.9659C53.7814 63.1921 33.5946 70.4271 17.3817 61.7279C17.0978 61.5728 16.6971 61.5384 16.3966 61.6073C12.623 62.5892 8.86616 63.6055 5.10931 64.6219C3.48969 65.0526 1.87008 65.5349 0.250457 66C0.166971 66 0.0834855 66 0 66C1.45265 60.5393 2.92199 55.0785 4.35794 49.6178C4.44143 49.2905 4.39134 48.8426 4.24106 48.5498C1.26898 42.934 -0.0500913 36.9565 0.350639 30.5828C0.818158 22.8999 3.473 16.1472 8.6491 10.6003C16.2964 2.40063 25.7302 -1.0963 36.6668 0.299024C43.9635 1.22924 50.1915 4.57114 55.2507 10.1524C59.6254 14.9758 62.4305 20.5743 63.5158 27.0859C63.7161 28.2917 63.833 29.4803 64 30.6689ZM7.69736 58.0587C7.96452 58.007 8.14819 57.9726 8.33185 57.9209C11.2538 57.1457 14.1758 56.3705 17.0811 55.5609C17.5153 55.4403 17.8492 55.5092 18.2332 55.7504C24.3444 59.5229 30.8729 60.7115 37.8523 59.1612C51.8111 56.0604 60.911 41.8832 58.1894 27.4821C55.2674 12.0646 40.3235 2.33172 25.5633 6.20763C14.059 9.25668 5.81059 20.0576 5.66032 32.3054C5.59353 37.8523 7.11297 42.934 10.0517 47.5679C10.2687 47.9296 10.3355 48.2225 10.2186 48.6359C9.63423 50.7203 9.08322 52.8047 8.53222 54.8891C8.24837 55.9226 7.99791 56.9562 7.69736 58.0587Z" fill="currentColor"/>-->
<!--    <path d="M40.4904 48.3258C39.7224 48.2225 38.9376 48.2397 38.2029 48.0158C34.1121 46.7927 30.1883 45.1562 26.8489 42.3139C24.2442 40.0917 22.0735 37.4733 19.9864 34.7688C18.6172 32.9944 17.4484 31.0996 16.6637 28.9807C15.211 25.0187 15.9958 21.5218 18.7508 18.4555C19.2684 17.887 19.9196 17.5425 20.671 17.508C21.3889 17.4736 22.1236 17.4908 22.8583 17.5253C23.4594 17.5597 23.7766 18.0248 23.9937 18.5072C24.4111 19.4374 24.7785 20.4021 25.1625 21.3495C25.6634 22.5898 26.1643 23.8473 26.6819 25.0876C26.9157 25.6216 26.9157 26.1384 26.5817 26.6207C25.9807 27.4993 25.3629 28.3606 24.7117 29.1874C24.0271 30.066 23.9937 30.2899 24.5447 31.2374C27.0827 35.5956 30.5891 38.7825 35.1808 40.6946C36.1325 41.0908 36.4831 41.0219 37.1343 40.2123C37.8857 39.2648 38.6371 38.3174 39.3717 37.3527C39.8893 36.6636 40.1899 36.5086 40.9746 36.8015C41.8262 37.1288 42.6611 37.525 43.4959 37.9039C44.7816 38.4724 46.0673 39.0409 47.3362 39.6266C48.2379 40.04 48.3214 40.2639 48.3047 41.2631C48.2546 45.6558 44.9152 47.6023 41.7928 48.1536C41.3587 48.2225 40.9246 48.2225 40.4904 48.2397C40.4904 48.2914 40.4904 48.3086 40.4904 48.3258Z" fill="currentColor"/>-->
<!--  </g>-->
<!--  <defs>-->
<!--    <filter id="filter0_d_310_592" x="0" y="0" width="66" height="68" filterUnits="userSpaceOnUse" color-interpolation-filters="sRGB">-->
<!--      <feFlood flood-opacity="0" result="BackgroundImageFix"/>-->
<!--      <feColorMatrix in="SourceAlpha" type="matrix" values="0 0 0 0 0 0 0 0 0 0 0 0 0 0 0 0 0 0 127 0" result="hardAlpha"/>-->
<!--      <feOffset dx="2" dy="2"/>-->
<!--      <feComposite in2="hardAlpha" operator="out"/>-->
<!--      <feColorMatrix type="matrix" values="0 0 0 0 0.0941176 0 0 0 0 0.196078 0 0 0 0 0.356863 0 0 0 1 0"/>-->
<!--      <feBlend mode="normal" in2="BackgroundImageFix" result="effect1_dropShadow_310_592"/>-->
<!--      <feBlend mode="normal" in="SourceGraphic" in2="effect1_dropShadow_310_592" result="shape"/>-->
<!--    </filter>-->
<!--  </defs>-->
</svg>
